%TF.GenerationSoftware,KiCad,Pcbnew,8.0.4-8.0.4-0~ubuntu22.04.1*%
%TF.CreationDate,2024-08-25T13:27:29+01:00*%
%TF.ProjectId,membrane1,6d656d62-7261-46e6-9531-2e6b69636164,V1.1*%
%TF.SameCoordinates,Original*%
%TF.FileFunction,Drillmap*%
%TF.FilePolarity,Positive*%
%FSLAX45Y45*%
G04 Gerber Fmt 4.5, Leading zero omitted, Abs format (unit mm)*
G04 Created by KiCad (PCBNEW 8.0.4-8.0.4-0~ubuntu22.04.1) date 2024-08-25 13:27:29*
%MOMM*%
%LPD*%
G01*
G04 APERTURE LIST*
%ADD10C,0.050000*%
%ADD11C,0.200000*%
%ADD12C,0.100000*%
G04 APERTURE END LIST*
D10*
X6800000Y-8700000D02*
X6800000Y-19900000D01*
X6800000Y-19900000D02*
X35600000Y-19900000D01*
X32900000Y-8700000D02*
X35600000Y-8700000D01*
X26100000Y-8700000D02*
X6800000Y-8700000D01*
X27511000Y-8820000D02*
G75*
G02*
X27100000Y-8820000I-205500J0D01*
G01*
X26100000Y-8700000D02*
X26700000Y-8700000D01*
X27100000Y-8700000D02*
X26700000Y-8700000D01*
X27100000Y-8810000D02*
X27100000Y-8820000D01*
X32900000Y-8700000D02*
X32900000Y-8800000D01*
X30209000Y-2499000D02*
X32500000Y-2500000D01*
X30209000Y-8819980D02*
X30209000Y-2499000D01*
X29811000Y-3820000D02*
X27511000Y-3820000D01*
X12360000Y-14000000D02*
G75*
G02*
X11960000Y-14000000I-200000J0D01*
G01*
X11960000Y-14000000D02*
G75*
G02*
X12360000Y-14000000I200000J0D01*
G01*
X30209000Y-8819980D02*
G75*
G02*
X29811000Y-8819980I-199000J-5D01*
G01*
X31360000Y-14000000D02*
G75*
G02*
X30960000Y-14000000I-200000J0D01*
G01*
X30960000Y-14000000D02*
G75*
G02*
X31360000Y-14000000I200000J0D01*
G01*
X32500000Y-2500000D02*
X32500000Y-8800000D01*
X21860000Y-14000000D02*
G75*
G02*
X21460000Y-14000000I-200000J0D01*
G01*
X21460000Y-14000000D02*
G75*
G02*
X21860000Y-14000000I200000J0D01*
G01*
X35600000Y-19900000D02*
X35600000Y-8700000D01*
X29811000Y-3820000D02*
X29811000Y-8819980D01*
X27100000Y-8810000D02*
X27100000Y-8700000D01*
X32900000Y-8800000D02*
G75*
G02*
X32500000Y-8800000I-200000J0D01*
G01*
X27511000Y-8820000D02*
X27511000Y-3820000D01*
D11*
D12*
X6967500Y-17940000D02*
X7007500Y-17980000D01*
X7007500Y-17940000D02*
X6967500Y-17980000D01*
X7020000Y-11840000D02*
X7060000Y-11880000D01*
X7060000Y-11840000D02*
X7020000Y-11880000D01*
X7040000Y-19550000D02*
X7080000Y-19590000D01*
X7080000Y-19550000D02*
X7040000Y-19590000D01*
X7050000Y-15850000D02*
X7090000Y-15890000D01*
X7090000Y-15850000D02*
X7050000Y-15890000D01*
X7210000Y-13850000D02*
X7250000Y-13890000D01*
X7250000Y-13850000D02*
X7210000Y-13890000D01*
X7250000Y-15720000D02*
X7290000Y-15760000D01*
X7290000Y-15720000D02*
X7250000Y-15760000D01*
X7330000Y-17627500D02*
X7370000Y-17667500D01*
X7370000Y-17627500D02*
X7330000Y-17667500D01*
X7550000Y-17780000D02*
X7590000Y-17820000D01*
X7590000Y-17780000D02*
X7550000Y-17820000D01*
X8620000Y-9450000D02*
X8660000Y-9490000D01*
X8660000Y-9450000D02*
X8620000Y-9490000D01*
X8640000Y-10150000D02*
X8680000Y-10190000D01*
X8680000Y-10150000D02*
X8640000Y-10190000D01*
X8860000Y-15840000D02*
X8900000Y-15880000D01*
X8900000Y-15840000D02*
X8860000Y-15880000D01*
X8890000Y-17910000D02*
X8930000Y-17950000D01*
X8930000Y-17910000D02*
X8890000Y-17950000D01*
X9110000Y-11860000D02*
X9150000Y-11900000D01*
X9150000Y-11860000D02*
X9110000Y-11900000D01*
X9570000Y-12650000D02*
X9610000Y-12690000D01*
X9610000Y-12650000D02*
X9570000Y-12690000D01*
X10090000Y-13770000D02*
X10130000Y-13810000D01*
X10130000Y-13770000D02*
X10090000Y-13810000D01*
X10220000Y-14400000D02*
X10260000Y-14440000D01*
X10260000Y-14400000D02*
X10220000Y-14440000D01*
X10280000Y-17627500D02*
X10320000Y-17667500D01*
X10320000Y-17627500D02*
X10280000Y-17667500D01*
X10480000Y-9470000D02*
X10520000Y-9510000D01*
X10520000Y-9470000D02*
X10480000Y-9510000D01*
X10480000Y-10150000D02*
X10520000Y-10190000D01*
X10520000Y-10150000D02*
X10480000Y-10190000D01*
X10590000Y-19670000D02*
X10630000Y-19710000D01*
X10630000Y-19670000D02*
X10590000Y-19710000D01*
X10680000Y-19320000D02*
X10720000Y-19360000D01*
X10720000Y-19320000D02*
X10680000Y-19360000D01*
X10790000Y-17890000D02*
X10830000Y-17930000D01*
X10830000Y-17890000D02*
X10790000Y-17930000D01*
X10820000Y-19550000D02*
X10860000Y-19590000D01*
X10860000Y-19550000D02*
X10820000Y-19590000D01*
X10880000Y-10180000D02*
X10920000Y-10220000D01*
X10920000Y-10180000D02*
X10880000Y-10220000D01*
X11010000Y-13760000D02*
X11050000Y-13800000D01*
X11050000Y-13760000D02*
X11010000Y-13800000D01*
X11450000Y-13900000D02*
X11490000Y-13940000D01*
X11490000Y-13900000D02*
X11450000Y-13940000D01*
X11450000Y-15830000D02*
X11490000Y-15870000D01*
X11490000Y-15830000D02*
X11450000Y-15870000D01*
X11460000Y-12010000D02*
X11500000Y-12050000D01*
X11500000Y-12010000D02*
X11460000Y-12050000D01*
X11710000Y-12120000D02*
X11750000Y-12160000D01*
X11750000Y-12120000D02*
X11710000Y-12160000D01*
X11890000Y-15770000D02*
X11930000Y-15810000D01*
X11930000Y-15770000D02*
X11890000Y-15810000D01*
X11960000Y-19630000D02*
X12000000Y-19670000D01*
X12000000Y-19630000D02*
X11960000Y-19670000D01*
X12230000Y-15470000D02*
X12270000Y-15510000D01*
X12270000Y-15470000D02*
X12230000Y-15510000D01*
X12400000Y-9480000D02*
X12440000Y-9520000D01*
X12440000Y-9480000D02*
X12400000Y-9520000D01*
X12410000Y-10080000D02*
X12450000Y-10120000D01*
X12450000Y-10080000D02*
X12410000Y-10120000D01*
X12530000Y-17557500D02*
X12570000Y-17597500D01*
X12570000Y-17557500D02*
X12530000Y-17597500D01*
X12680000Y-19130000D02*
X12720000Y-19170000D01*
X12720000Y-19130000D02*
X12680000Y-19170000D01*
X12680000Y-19640000D02*
X12720000Y-19680000D01*
X12720000Y-19640000D02*
X12680000Y-19680000D01*
X14210000Y-11820000D02*
X14250000Y-11860000D01*
X14250000Y-11820000D02*
X14210000Y-11860000D01*
X14280000Y-13930000D02*
X14320000Y-13970000D01*
X14320000Y-13930000D02*
X14280000Y-13970000D01*
X14350000Y-9450000D02*
X14390000Y-9490000D01*
X14390000Y-9450000D02*
X14350000Y-9490000D01*
X14350000Y-10110000D02*
X14390000Y-10150000D01*
X14390000Y-10110000D02*
X14350000Y-10150000D01*
X14680000Y-17930000D02*
X14720000Y-17970000D01*
X14720000Y-17930000D02*
X14680000Y-17970000D01*
X14940000Y-17560000D02*
X14980000Y-17600000D01*
X14980000Y-17560000D02*
X14940000Y-17600000D01*
X14960000Y-15930000D02*
X15000000Y-15970000D01*
X15000000Y-15930000D02*
X14960000Y-15970000D01*
X15640000Y-11880000D02*
X15680000Y-11920000D01*
X15680000Y-11880000D02*
X15640000Y-11920000D01*
X15640000Y-12140000D02*
X15680000Y-12180000D01*
X15680000Y-12140000D02*
X15640000Y-12180000D01*
X16070000Y-13720000D02*
X16110000Y-13760000D01*
X16110000Y-13720000D02*
X16070000Y-13760000D01*
X16070000Y-14070000D02*
X16110000Y-14110000D01*
X16110000Y-14070000D02*
X16070000Y-14110000D01*
X16120000Y-17540000D02*
X16160000Y-17580000D01*
X16160000Y-17540000D02*
X16120000Y-17580000D01*
X16140000Y-10110000D02*
X16180000Y-10150000D01*
X16180000Y-10110000D02*
X16140000Y-10150000D01*
X16160000Y-9450000D02*
X16200000Y-9490000D01*
X16200000Y-9450000D02*
X16160000Y-9490000D01*
X17510000Y-13820000D02*
X17550000Y-13860000D01*
X17550000Y-13820000D02*
X17510000Y-13860000D01*
X17750000Y-11910000D02*
X17790000Y-11950000D01*
X17790000Y-11910000D02*
X17750000Y-11950000D01*
X17750000Y-12110000D02*
X17790000Y-12150000D01*
X17790000Y-12110000D02*
X17750000Y-12150000D01*
X17920000Y-14250000D02*
X17960000Y-14290000D01*
X17960000Y-14250000D02*
X17920000Y-14290000D01*
X17940000Y-15880000D02*
X17980000Y-15920000D01*
X17980000Y-15880000D02*
X17940000Y-15920000D01*
X18070000Y-10100000D02*
X18110000Y-10140000D01*
X18110000Y-10100000D02*
X18070000Y-10140000D01*
X18090000Y-9410000D02*
X18130000Y-9450000D01*
X18130000Y-9410000D02*
X18090000Y-9450000D01*
X18430000Y-15860000D02*
X18470000Y-15900000D01*
X18470000Y-15860000D02*
X18430000Y-15900000D01*
X18740000Y-15860000D02*
X18780000Y-15900000D01*
X18780000Y-15860000D02*
X18740000Y-15900000D01*
X19820000Y-15900000D02*
X19860000Y-15940000D01*
X19860000Y-15900000D02*
X19820000Y-15940000D01*
X19890000Y-14250000D02*
X19930000Y-14290000D01*
X19930000Y-14250000D02*
X19890000Y-14290000D01*
X19900000Y-9360000D02*
X19940000Y-9400000D01*
X19940000Y-9360000D02*
X19900000Y-9400000D01*
X19940000Y-10020000D02*
X19980000Y-10060000D01*
X19980000Y-10020000D02*
X19940000Y-10060000D01*
X20210000Y-12100000D02*
X20250000Y-12140000D01*
X20250000Y-12100000D02*
X20210000Y-12140000D01*
X20320000Y-11860000D02*
X20360000Y-11900000D01*
X20360000Y-11860000D02*
X20320000Y-11900000D01*
X20400000Y-15860000D02*
X20440000Y-15900000D01*
X20440000Y-15860000D02*
X20400000Y-15900000D01*
X20660000Y-15870000D02*
X20700000Y-15910000D01*
X20700000Y-15870000D02*
X20660000Y-15910000D01*
X21040000Y-13960000D02*
X21080000Y-14000000D01*
X21080000Y-13960000D02*
X21040000Y-14000000D01*
X21650000Y-15460000D02*
X21690000Y-15500000D01*
X21690000Y-15460000D02*
X21650000Y-15500000D01*
X21730000Y-15170000D02*
X21770000Y-15210000D01*
X21770000Y-15170000D02*
X21730000Y-15210000D01*
X21780000Y-19640000D02*
X21820000Y-19680000D01*
X21820000Y-19640000D02*
X21780000Y-19680000D01*
X21980000Y-17520000D02*
X22020000Y-17560000D01*
X22020000Y-17520000D02*
X21980000Y-17560000D01*
X22020000Y-13770000D02*
X22060000Y-13810000D01*
X22060000Y-13770000D02*
X22020000Y-13810000D01*
X22030000Y-12130000D02*
X22070000Y-12170000D01*
X22070000Y-12130000D02*
X22030000Y-12170000D01*
X22050000Y-11610000D02*
X22090000Y-11650000D01*
X22090000Y-11610000D02*
X22050000Y-11650000D01*
X22260000Y-13900000D02*
X22300000Y-13940000D01*
X22300000Y-13900000D02*
X22260000Y-13940000D01*
X22510000Y-9910000D02*
X22550000Y-9950000D01*
X22550000Y-9910000D02*
X22510000Y-9950000D01*
X22530000Y-11920000D02*
X22570000Y-11960000D01*
X22570000Y-11920000D02*
X22530000Y-11960000D01*
X22870000Y-14010000D02*
X22910000Y-14050000D01*
X22910000Y-14010000D02*
X22870000Y-14050000D01*
X22980000Y-15870000D02*
X23020000Y-15910000D01*
X23020000Y-15870000D02*
X22980000Y-15910000D01*
X23030000Y-13510000D02*
X23070000Y-13550000D01*
X23070000Y-13510000D02*
X23030000Y-13550000D01*
X23210000Y-12020000D02*
X23250000Y-12060000D01*
X23250000Y-12020000D02*
X23210000Y-12060000D01*
X23760000Y-12100000D02*
X23800000Y-12140000D01*
X23800000Y-12100000D02*
X23760000Y-12140000D01*
X23900000Y-11770000D02*
X23940000Y-11810000D01*
X23940000Y-11770000D02*
X23900000Y-11810000D01*
X23980000Y-10040000D02*
X24020000Y-10080000D01*
X24020000Y-10040000D02*
X23980000Y-10080000D01*
X24110000Y-14012500D02*
X24150000Y-14052500D01*
X24150000Y-14012500D02*
X24110000Y-14052500D01*
X24110000Y-19477500D02*
X24150000Y-19517500D01*
X24150000Y-19477500D02*
X24110000Y-19517500D01*
X24180000Y-13810000D02*
X24220000Y-13850000D01*
X24220000Y-13810000D02*
X24180000Y-13850000D01*
X24190000Y-10130000D02*
X24230000Y-10170000D01*
X24230000Y-10130000D02*
X24190000Y-10170000D01*
X24620000Y-17360000D02*
X24660000Y-17400000D01*
X24660000Y-17360000D02*
X24620000Y-17400000D01*
X24630000Y-19550000D02*
X24670000Y-19590000D01*
X24670000Y-19550000D02*
X24630000Y-19590000D01*
X24670000Y-15640000D02*
X24710000Y-15680000D01*
X24710000Y-15640000D02*
X24670000Y-15680000D01*
X25540000Y-14150000D02*
X25580000Y-14190000D01*
X25580000Y-14150000D02*
X25540000Y-14190000D01*
X25720000Y-13730000D02*
X25760000Y-13770000D01*
X25760000Y-13730000D02*
X25720000Y-13770000D01*
X26010000Y-10250000D02*
X26050000Y-10290000D01*
X26050000Y-10250000D02*
X26010000Y-10290000D01*
X26170000Y-9670000D02*
X26210000Y-9710000D01*
X26210000Y-9670000D02*
X26170000Y-9710000D01*
X26490000Y-17590000D02*
X26530000Y-17630000D01*
X26530000Y-17590000D02*
X26490000Y-17630000D01*
X26830000Y-17617500D02*
X26870000Y-17657500D01*
X26870000Y-17617500D02*
X26830000Y-17657500D01*
X27000000Y-11810000D02*
X27040000Y-11850000D01*
X27040000Y-11810000D02*
X27000000Y-11850000D01*
X27010000Y-12180000D02*
X27050000Y-12220000D01*
X27050000Y-12180000D02*
X27010000Y-12220000D01*
X27390000Y-15520000D02*
X27430000Y-15560000D01*
X27430000Y-15520000D02*
X27390000Y-15560000D01*
X27410000Y-11940000D02*
X27450000Y-11980000D01*
X27450000Y-11940000D02*
X27410000Y-11980000D01*
X27590000Y-12060000D02*
X27630000Y-12100000D01*
X27630000Y-12060000D02*
X27590000Y-12100000D01*
X27690000Y-17790000D02*
X27730000Y-17830000D01*
X27730000Y-17790000D02*
X27690000Y-17830000D01*
X27730000Y-13730000D02*
X27770000Y-13770000D01*
X27770000Y-13730000D02*
X27730000Y-13770000D01*
X27750000Y-9132000D02*
X27790000Y-9172000D01*
X27790000Y-9132000D02*
X27750000Y-9172000D01*
X27760000Y-15687500D02*
X27800000Y-15727500D01*
X27800000Y-15687500D02*
X27760000Y-15727500D01*
X27790000Y-11670000D02*
X27830000Y-11710000D01*
X27830000Y-11670000D02*
X27790000Y-11710000D01*
X27910000Y-17610000D02*
X27950000Y-17650000D01*
X27950000Y-17610000D02*
X27910000Y-17650000D01*
X27950000Y-19410000D02*
X27990000Y-19450000D01*
X27990000Y-19410000D02*
X27950000Y-19450000D01*
X28005000Y-9128000D02*
X28045000Y-9168000D01*
X28045000Y-9128000D02*
X28005000Y-9168000D01*
X28006000Y-9530000D02*
X28046000Y-9570000D01*
X28046000Y-9530000D02*
X28006000Y-9570000D01*
X28254000Y-9640000D02*
X28294000Y-9680000D01*
X28294000Y-9640000D02*
X28254000Y-9680000D01*
X28260360Y-9126000D02*
X28300360Y-9166000D01*
X28300360Y-9126000D02*
X28260360Y-9166000D01*
X28511000Y-9129000D02*
X28551000Y-9169000D01*
X28551000Y-9129000D02*
X28511000Y-9169000D01*
X28520000Y-11860000D02*
X28560000Y-11900000D01*
X28560000Y-11860000D02*
X28520000Y-11900000D01*
X28660000Y-19735000D02*
X28700000Y-19775000D01*
X28700000Y-19735000D02*
X28660000Y-19775000D01*
X28740000Y-17580000D02*
X28780000Y-17620000D01*
X28780000Y-17580000D02*
X28740000Y-17620000D01*
X28768000Y-9122000D02*
X28808000Y-9162000D01*
X28808000Y-9122000D02*
X28768000Y-9162000D01*
X28772000Y-10124000D02*
X28812000Y-10164000D01*
X28812000Y-10124000D02*
X28772000Y-10164000D01*
X28790000Y-12540000D02*
X28830000Y-12580000D01*
X28830000Y-12540000D02*
X28790000Y-12580000D01*
X28860000Y-13490000D02*
X28900000Y-13530000D01*
X28900000Y-13490000D02*
X28860000Y-13530000D01*
X28960000Y-15860000D02*
X29000000Y-15900000D01*
X29000000Y-15860000D02*
X28960000Y-15900000D01*
X29022360Y-9121360D02*
X29062360Y-9161360D01*
X29062360Y-9121360D02*
X29022360Y-9161360D01*
X29027000Y-9670000D02*
X29067000Y-9710000D01*
X29067000Y-9670000D02*
X29027000Y-9710000D01*
X29220000Y-13822500D02*
X29260000Y-13862500D01*
X29260000Y-13822500D02*
X29220000Y-13862500D01*
X29220000Y-15480000D02*
X29260000Y-15520000D01*
X29260000Y-15480000D02*
X29220000Y-15520000D01*
X29271000Y-9837500D02*
X29311000Y-9877500D01*
X29311000Y-9837500D02*
X29271000Y-9877500D01*
X29275000Y-9121000D02*
X29315000Y-9161000D01*
X29315000Y-9121000D02*
X29275000Y-9161000D01*
X29276000Y-10019000D02*
X29316000Y-10059000D01*
X29316000Y-10019000D02*
X29276000Y-10059000D01*
X29490000Y-11850000D02*
X29530000Y-11890000D01*
X29530000Y-11850000D02*
X29490000Y-11890000D01*
X29500000Y-12090000D02*
X29540000Y-12130000D01*
X29540000Y-12090000D02*
X29500000Y-12130000D01*
X29526000Y-9760000D02*
X29566000Y-9800000D01*
X29566000Y-9760000D02*
X29526000Y-9800000D01*
X29530360Y-9122583D02*
X29570360Y-9162583D01*
X29570360Y-9122583D02*
X29530360Y-9162583D01*
X29670000Y-15670000D02*
X29710000Y-15710000D01*
X29710000Y-15670000D02*
X29670000Y-15710000D01*
X29680000Y-19662500D02*
X29720000Y-19702500D01*
X29720000Y-19662500D02*
X29680000Y-19702500D01*
X29740000Y-13840000D02*
X29780000Y-13880000D01*
X29780000Y-13840000D02*
X29740000Y-13880000D01*
X29750000Y-11750000D02*
X29790000Y-11790000D01*
X29790000Y-11750000D02*
X29750000Y-11790000D01*
X29770000Y-17860000D02*
X29810000Y-17900000D01*
X29810000Y-17860000D02*
X29770000Y-17900000D01*
X30050000Y-10140000D02*
X30090000Y-10180000D01*
X30090000Y-10140000D02*
X30050000Y-10180000D01*
X30120000Y-9670000D02*
X30160000Y-9710000D01*
X30160000Y-9670000D02*
X30120000Y-9710000D01*
X30300000Y-17680000D02*
X30340000Y-17720000D01*
X30340000Y-17680000D02*
X30300000Y-17720000D01*
X30310000Y-15680000D02*
X30350000Y-15720000D01*
X30350000Y-15680000D02*
X30310000Y-15720000D01*
X30390000Y-16200000D02*
X30430000Y-16240000D01*
X30430000Y-16200000D02*
X30390000Y-16240000D01*
X30410000Y-17610000D02*
X30450000Y-17650000D01*
X30450000Y-17610000D02*
X30410000Y-17650000D01*
X30432640Y-9125418D02*
X30472640Y-9165418D01*
X30472640Y-9125418D02*
X30432640Y-9165418D01*
X30587000Y-9610000D02*
X30627000Y-9650000D01*
X30627000Y-9610000D02*
X30587000Y-9650000D01*
X30687640Y-9121418D02*
X30727640Y-9161418D01*
X30727640Y-9121418D02*
X30687640Y-9161418D01*
X30760000Y-12300000D02*
X30800000Y-12340000D01*
X30800000Y-12300000D02*
X30760000Y-12340000D01*
X30786400Y-9910000D02*
X30826400Y-9950000D01*
X30826400Y-9910000D02*
X30786400Y-9950000D01*
X30930000Y-11890000D02*
X30970000Y-11930000D01*
X30970000Y-11890000D02*
X30930000Y-11930000D01*
X30943000Y-9119418D02*
X30983000Y-9159418D01*
X30983000Y-9119418D02*
X30943000Y-9159418D01*
X31190000Y-14560000D02*
X31230000Y-14600000D01*
X31230000Y-14560000D02*
X31190000Y-14600000D01*
X31197000Y-9119058D02*
X31237000Y-9159058D01*
X31237000Y-9119058D02*
X31197000Y-9159058D01*
X31453540Y-9112518D02*
X31493540Y-9152518D01*
X31493540Y-9112518D02*
X31453540Y-9152518D01*
X31460000Y-9990000D02*
X31500000Y-10030000D01*
X31500000Y-9990000D02*
X31460000Y-10030000D01*
X31600000Y-17640000D02*
X31640000Y-17680000D01*
X31640000Y-17640000D02*
X31600000Y-17680000D01*
X31660000Y-15840000D02*
X31700000Y-15880000D01*
X31700000Y-15840000D02*
X31660000Y-15880000D01*
X31704600Y-11968800D02*
X31744600Y-12008800D01*
X31744600Y-11968800D02*
X31704600Y-12008800D01*
X31705000Y-9114778D02*
X31745000Y-9154778D01*
X31745000Y-9114778D02*
X31705000Y-9154778D01*
X31750000Y-19140000D02*
X31790000Y-19180000D01*
X31790000Y-19140000D02*
X31750000Y-19180000D01*
X31933200Y-11950000D02*
X31973200Y-11990000D01*
X31973200Y-11950000D02*
X31933200Y-11990000D01*
X31957640Y-9114418D02*
X31997640Y-9154418D01*
X31997640Y-9114418D02*
X31957640Y-9154418D01*
X31960000Y-19590000D02*
X32000000Y-19630000D01*
X32000000Y-19590000D02*
X31960000Y-19630000D01*
X32213000Y-9116000D02*
X32253000Y-9156000D01*
X32253000Y-9116000D02*
X32213000Y-9156000D01*
X32310000Y-15760000D02*
X32350000Y-15800000D01*
X32350000Y-15760000D02*
X32310000Y-15800000D01*
X32450000Y-13720000D02*
X32490000Y-13760000D01*
X32490000Y-13720000D02*
X32450000Y-13760000D01*
X32510000Y-15830000D02*
X32550000Y-15870000D01*
X32550000Y-15830000D02*
X32510000Y-15870000D01*
X32660000Y-12090000D02*
X32700000Y-12130000D01*
X32700000Y-12090000D02*
X32660000Y-12130000D01*
X32840000Y-13750000D02*
X32880000Y-13790000D01*
X32880000Y-13750000D02*
X32840000Y-13790000D01*
X32990000Y-14180000D02*
X33030000Y-14220000D01*
X33030000Y-14180000D02*
X32990000Y-14220000D01*
X33470000Y-9980000D02*
X33510000Y-10020000D01*
X33510000Y-9980000D02*
X33470000Y-10020000D01*
X33470000Y-10440000D02*
X33510000Y-10480000D01*
X33510000Y-10440000D02*
X33470000Y-10480000D01*
X33520000Y-11860000D02*
X33560000Y-11900000D01*
X33560000Y-11860000D02*
X33520000Y-11900000D01*
X33620000Y-10170000D02*
X33660000Y-10210000D01*
X33660000Y-10170000D02*
X33620000Y-10210000D01*
X33630000Y-17970000D02*
X33670000Y-18010000D01*
X33670000Y-17970000D02*
X33630000Y-18010000D01*
X33640000Y-9880000D02*
X33680000Y-9920000D01*
X33680000Y-9880000D02*
X33640000Y-9920000D01*
X33650000Y-16080000D02*
X33690000Y-16120000D01*
X33690000Y-16080000D02*
X33650000Y-16120000D01*
X33790000Y-10180000D02*
X33830000Y-10220000D01*
X33830000Y-10180000D02*
X33790000Y-10220000D01*
X33800000Y-9830000D02*
X33840000Y-9870000D01*
X33840000Y-9830000D02*
X33800000Y-9870000D01*
D11*
X7058277Y-20213984D02*
X7058277Y-20013984D01*
X7058277Y-20013984D02*
X7105896Y-20013984D01*
X7105896Y-20013984D02*
X7134467Y-20023508D01*
X7134467Y-20023508D02*
X7153515Y-20042555D01*
X7153515Y-20042555D02*
X7163039Y-20061603D01*
X7163039Y-20061603D02*
X7172562Y-20099698D01*
X7172562Y-20099698D02*
X7172562Y-20128270D01*
X7172562Y-20128270D02*
X7163039Y-20166365D01*
X7163039Y-20166365D02*
X7153515Y-20185412D01*
X7153515Y-20185412D02*
X7134467Y-20204460D01*
X7134467Y-20204460D02*
X7105896Y-20213984D01*
X7105896Y-20213984D02*
X7058277Y-20213984D01*
X7258277Y-20213984D02*
X7258277Y-20080650D01*
X7258277Y-20118746D02*
X7267801Y-20099698D01*
X7267801Y-20099698D02*
X7277324Y-20090174D01*
X7277324Y-20090174D02*
X7296372Y-20080650D01*
X7296372Y-20080650D02*
X7315420Y-20080650D01*
X7382086Y-20213984D02*
X7382086Y-20080650D01*
X7382086Y-20013984D02*
X7372562Y-20023508D01*
X7372562Y-20023508D02*
X7382086Y-20033031D01*
X7382086Y-20033031D02*
X7391610Y-20023508D01*
X7391610Y-20023508D02*
X7382086Y-20013984D01*
X7382086Y-20013984D02*
X7382086Y-20033031D01*
X7505896Y-20213984D02*
X7486848Y-20204460D01*
X7486848Y-20204460D02*
X7477324Y-20185412D01*
X7477324Y-20185412D02*
X7477324Y-20013984D01*
X7610658Y-20213984D02*
X7591610Y-20204460D01*
X7591610Y-20204460D02*
X7582086Y-20185412D01*
X7582086Y-20185412D02*
X7582086Y-20013984D01*
X7839229Y-20213984D02*
X7839229Y-20013984D01*
X7839229Y-20013984D02*
X7905896Y-20156841D01*
X7905896Y-20156841D02*
X7972562Y-20013984D01*
X7972562Y-20013984D02*
X7972562Y-20213984D01*
X8153515Y-20213984D02*
X8153515Y-20109222D01*
X8153515Y-20109222D02*
X8143991Y-20090174D01*
X8143991Y-20090174D02*
X8124943Y-20080650D01*
X8124943Y-20080650D02*
X8086848Y-20080650D01*
X8086848Y-20080650D02*
X8067801Y-20090174D01*
X8153515Y-20204460D02*
X8134467Y-20213984D01*
X8134467Y-20213984D02*
X8086848Y-20213984D01*
X8086848Y-20213984D02*
X8067801Y-20204460D01*
X8067801Y-20204460D02*
X8058277Y-20185412D01*
X8058277Y-20185412D02*
X8058277Y-20166365D01*
X8058277Y-20166365D02*
X8067801Y-20147317D01*
X8067801Y-20147317D02*
X8086848Y-20137793D01*
X8086848Y-20137793D02*
X8134467Y-20137793D01*
X8134467Y-20137793D02*
X8153515Y-20128270D01*
X8248753Y-20080650D02*
X8248753Y-20280650D01*
X8248753Y-20090174D02*
X8267801Y-20080650D01*
X8267801Y-20080650D02*
X8305896Y-20080650D01*
X8305896Y-20080650D02*
X8324943Y-20090174D01*
X8324943Y-20090174D02*
X8334467Y-20099698D01*
X8334467Y-20099698D02*
X8343991Y-20118746D01*
X8343991Y-20118746D02*
X8343991Y-20175889D01*
X8343991Y-20175889D02*
X8334467Y-20194936D01*
X8334467Y-20194936D02*
X8324943Y-20204460D01*
X8324943Y-20204460D02*
X8305896Y-20213984D01*
X8305896Y-20213984D02*
X8267801Y-20213984D01*
X8267801Y-20213984D02*
X8248753Y-20204460D01*
X8429705Y-20194936D02*
X8439229Y-20204460D01*
X8439229Y-20204460D02*
X8429705Y-20213984D01*
X8429705Y-20213984D02*
X8420182Y-20204460D01*
X8420182Y-20204460D02*
X8429705Y-20194936D01*
X8429705Y-20194936D02*
X8429705Y-20213984D01*
X8429705Y-20090174D02*
X8439229Y-20099698D01*
X8439229Y-20099698D02*
X8429705Y-20109222D01*
X8429705Y-20109222D02*
X8420182Y-20099698D01*
X8420182Y-20099698D02*
X8429705Y-20090174D01*
X8429705Y-20090174D02*
X8429705Y-20109222D01*
D12*
X6757500Y-20522500D02*
X6797500Y-20562500D01*
X6797500Y-20522500D02*
X6757500Y-20562500D01*
D11*
X7096372Y-20433984D02*
X7115420Y-20433984D01*
X7115420Y-20433984D02*
X7134467Y-20443508D01*
X7134467Y-20443508D02*
X7143991Y-20453031D01*
X7143991Y-20453031D02*
X7153515Y-20472079D01*
X7153515Y-20472079D02*
X7163039Y-20510174D01*
X7163039Y-20510174D02*
X7163039Y-20557793D01*
X7163039Y-20557793D02*
X7153515Y-20595889D01*
X7153515Y-20595889D02*
X7143991Y-20614936D01*
X7143991Y-20614936D02*
X7134467Y-20624460D01*
X7134467Y-20624460D02*
X7115420Y-20633984D01*
X7115420Y-20633984D02*
X7096372Y-20633984D01*
X7096372Y-20633984D02*
X7077324Y-20624460D01*
X7077324Y-20624460D02*
X7067801Y-20614936D01*
X7067801Y-20614936D02*
X7058277Y-20595889D01*
X7058277Y-20595889D02*
X7048753Y-20557793D01*
X7048753Y-20557793D02*
X7048753Y-20510174D01*
X7048753Y-20510174D02*
X7058277Y-20472079D01*
X7058277Y-20472079D02*
X7067801Y-20453031D01*
X7067801Y-20453031D02*
X7077324Y-20443508D01*
X7077324Y-20443508D02*
X7096372Y-20433984D01*
X7248753Y-20614936D02*
X7258277Y-20624460D01*
X7258277Y-20624460D02*
X7248753Y-20633984D01*
X7248753Y-20633984D02*
X7239229Y-20624460D01*
X7239229Y-20624460D02*
X7248753Y-20614936D01*
X7248753Y-20614936D02*
X7248753Y-20633984D01*
X7429705Y-20500650D02*
X7429705Y-20633984D01*
X7382086Y-20424460D02*
X7334467Y-20567317D01*
X7334467Y-20567317D02*
X7458277Y-20567317D01*
X7572562Y-20433984D02*
X7591610Y-20433984D01*
X7591610Y-20433984D02*
X7610658Y-20443508D01*
X7610658Y-20443508D02*
X7620182Y-20453031D01*
X7620182Y-20453031D02*
X7629705Y-20472079D01*
X7629705Y-20472079D02*
X7639229Y-20510174D01*
X7639229Y-20510174D02*
X7639229Y-20557793D01*
X7639229Y-20557793D02*
X7629705Y-20595889D01*
X7629705Y-20595889D02*
X7620182Y-20614936D01*
X7620182Y-20614936D02*
X7610658Y-20624460D01*
X7610658Y-20624460D02*
X7591610Y-20633984D01*
X7591610Y-20633984D02*
X7572562Y-20633984D01*
X7572562Y-20633984D02*
X7553515Y-20624460D01*
X7553515Y-20624460D02*
X7543991Y-20614936D01*
X7543991Y-20614936D02*
X7534467Y-20595889D01*
X7534467Y-20595889D02*
X7524943Y-20557793D01*
X7524943Y-20557793D02*
X7524943Y-20510174D01*
X7524943Y-20510174D02*
X7534467Y-20472079D01*
X7534467Y-20472079D02*
X7543991Y-20453031D01*
X7543991Y-20453031D02*
X7553515Y-20443508D01*
X7553515Y-20443508D02*
X7572562Y-20433984D01*
X7763039Y-20433984D02*
X7782086Y-20433984D01*
X7782086Y-20433984D02*
X7801134Y-20443508D01*
X7801134Y-20443508D02*
X7810658Y-20453031D01*
X7810658Y-20453031D02*
X7820182Y-20472079D01*
X7820182Y-20472079D02*
X7829705Y-20510174D01*
X7829705Y-20510174D02*
X7829705Y-20557793D01*
X7829705Y-20557793D02*
X7820182Y-20595889D01*
X7820182Y-20595889D02*
X7810658Y-20614936D01*
X7810658Y-20614936D02*
X7801134Y-20624460D01*
X7801134Y-20624460D02*
X7782086Y-20633984D01*
X7782086Y-20633984D02*
X7763039Y-20633984D01*
X7763039Y-20633984D02*
X7743991Y-20624460D01*
X7743991Y-20624460D02*
X7734467Y-20614936D01*
X7734467Y-20614936D02*
X7724943Y-20595889D01*
X7724943Y-20595889D02*
X7715420Y-20557793D01*
X7715420Y-20557793D02*
X7715420Y-20510174D01*
X7715420Y-20510174D02*
X7724943Y-20472079D01*
X7724943Y-20472079D02*
X7734467Y-20453031D01*
X7734467Y-20453031D02*
X7743991Y-20443508D01*
X7743991Y-20443508D02*
X7763039Y-20433984D01*
X7915420Y-20633984D02*
X7915420Y-20500650D01*
X7915420Y-20519698D02*
X7924943Y-20510174D01*
X7924943Y-20510174D02*
X7943991Y-20500650D01*
X7943991Y-20500650D02*
X7972563Y-20500650D01*
X7972563Y-20500650D02*
X7991610Y-20510174D01*
X7991610Y-20510174D02*
X8001134Y-20529222D01*
X8001134Y-20529222D02*
X8001134Y-20633984D01*
X8001134Y-20529222D02*
X8010658Y-20510174D01*
X8010658Y-20510174D02*
X8029705Y-20500650D01*
X8029705Y-20500650D02*
X8058277Y-20500650D01*
X8058277Y-20500650D02*
X8077324Y-20510174D01*
X8077324Y-20510174D02*
X8086848Y-20529222D01*
X8086848Y-20529222D02*
X8086848Y-20633984D01*
X8182086Y-20633984D02*
X8182086Y-20500650D01*
X8182086Y-20519698D02*
X8191610Y-20510174D01*
X8191610Y-20510174D02*
X8210658Y-20500650D01*
X8210658Y-20500650D02*
X8239229Y-20500650D01*
X8239229Y-20500650D02*
X8258277Y-20510174D01*
X8258277Y-20510174D02*
X8267801Y-20529222D01*
X8267801Y-20529222D02*
X8267801Y-20633984D01*
X8267801Y-20529222D02*
X8277324Y-20510174D01*
X8277324Y-20510174D02*
X8296372Y-20500650D01*
X8296372Y-20500650D02*
X8324943Y-20500650D01*
X8324943Y-20500650D02*
X8343991Y-20510174D01*
X8343991Y-20510174D02*
X8353515Y-20529222D01*
X8353515Y-20529222D02*
X8353515Y-20633984D01*
X8743991Y-20424460D02*
X8572563Y-20681603D01*
X9001134Y-20433984D02*
X9020182Y-20433984D01*
X9020182Y-20433984D02*
X9039229Y-20443508D01*
X9039229Y-20443508D02*
X9048753Y-20453031D01*
X9048753Y-20453031D02*
X9058277Y-20472079D01*
X9058277Y-20472079D02*
X9067801Y-20510174D01*
X9067801Y-20510174D02*
X9067801Y-20557793D01*
X9067801Y-20557793D02*
X9058277Y-20595889D01*
X9058277Y-20595889D02*
X9048753Y-20614936D01*
X9048753Y-20614936D02*
X9039229Y-20624460D01*
X9039229Y-20624460D02*
X9020182Y-20633984D01*
X9020182Y-20633984D02*
X9001134Y-20633984D01*
X9001134Y-20633984D02*
X8982087Y-20624460D01*
X8982087Y-20624460D02*
X8972563Y-20614936D01*
X8972563Y-20614936D02*
X8963039Y-20595889D01*
X8963039Y-20595889D02*
X8953515Y-20557793D01*
X8953515Y-20557793D02*
X8953515Y-20510174D01*
X8953515Y-20510174D02*
X8963039Y-20472079D01*
X8963039Y-20472079D02*
X8972563Y-20453031D01*
X8972563Y-20453031D02*
X8982087Y-20443508D01*
X8982087Y-20443508D02*
X9001134Y-20433984D01*
X9153515Y-20614936D02*
X9163039Y-20624460D01*
X9163039Y-20624460D02*
X9153515Y-20633984D01*
X9153515Y-20633984D02*
X9143991Y-20624460D01*
X9143991Y-20624460D02*
X9153515Y-20614936D01*
X9153515Y-20614936D02*
X9153515Y-20633984D01*
X9286848Y-20433984D02*
X9305896Y-20433984D01*
X9305896Y-20433984D02*
X9324944Y-20443508D01*
X9324944Y-20443508D02*
X9334468Y-20453031D01*
X9334468Y-20453031D02*
X9343991Y-20472079D01*
X9343991Y-20472079D02*
X9353515Y-20510174D01*
X9353515Y-20510174D02*
X9353515Y-20557793D01*
X9353515Y-20557793D02*
X9343991Y-20595889D01*
X9343991Y-20595889D02*
X9334468Y-20614936D01*
X9334468Y-20614936D02*
X9324944Y-20624460D01*
X9324944Y-20624460D02*
X9305896Y-20633984D01*
X9305896Y-20633984D02*
X9286848Y-20633984D01*
X9286848Y-20633984D02*
X9267801Y-20624460D01*
X9267801Y-20624460D02*
X9258277Y-20614936D01*
X9258277Y-20614936D02*
X9248753Y-20595889D01*
X9248753Y-20595889D02*
X9239229Y-20557793D01*
X9239229Y-20557793D02*
X9239229Y-20510174D01*
X9239229Y-20510174D02*
X9248753Y-20472079D01*
X9248753Y-20472079D02*
X9258277Y-20453031D01*
X9258277Y-20453031D02*
X9267801Y-20443508D01*
X9267801Y-20443508D02*
X9286848Y-20433984D01*
X9543991Y-20633984D02*
X9429706Y-20633984D01*
X9486848Y-20633984D02*
X9486848Y-20433984D01*
X9486848Y-20433984D02*
X9467801Y-20462555D01*
X9467801Y-20462555D02*
X9448753Y-20481603D01*
X9448753Y-20481603D02*
X9429706Y-20491127D01*
X9724944Y-20433984D02*
X9629706Y-20433984D01*
X9629706Y-20433984D02*
X9620182Y-20529222D01*
X9620182Y-20529222D02*
X9629706Y-20519698D01*
X9629706Y-20519698D02*
X9648753Y-20510174D01*
X9648753Y-20510174D02*
X9696372Y-20510174D01*
X9696372Y-20510174D02*
X9715420Y-20519698D01*
X9715420Y-20519698D02*
X9724944Y-20529222D01*
X9724944Y-20529222D02*
X9734468Y-20548270D01*
X9734468Y-20548270D02*
X9734468Y-20595889D01*
X9734468Y-20595889D02*
X9724944Y-20614936D01*
X9724944Y-20614936D02*
X9715420Y-20624460D01*
X9715420Y-20624460D02*
X9696372Y-20633984D01*
X9696372Y-20633984D02*
X9648753Y-20633984D01*
X9648753Y-20633984D02*
X9629706Y-20624460D01*
X9629706Y-20624460D02*
X9620182Y-20614936D01*
X9801134Y-20433984D02*
X9934468Y-20433984D01*
X9934468Y-20433984D02*
X9848753Y-20633984D01*
X10001134Y-20433984D02*
X10001134Y-20472079D01*
X10077325Y-20433984D02*
X10077325Y-20472079D01*
X10372563Y-20710174D02*
X10363039Y-20700650D01*
X10363039Y-20700650D02*
X10343991Y-20672079D01*
X10343991Y-20672079D02*
X10334468Y-20653031D01*
X10334468Y-20653031D02*
X10324944Y-20624460D01*
X10324944Y-20624460D02*
X10315420Y-20576841D01*
X10315420Y-20576841D02*
X10315420Y-20538746D01*
X10315420Y-20538746D02*
X10324944Y-20491127D01*
X10324944Y-20491127D02*
X10334468Y-20462555D01*
X10334468Y-20462555D02*
X10343991Y-20443508D01*
X10343991Y-20443508D02*
X10363039Y-20414936D01*
X10363039Y-20414936D02*
X10372563Y-20405412D01*
X10553515Y-20633984D02*
X10439230Y-20633984D01*
X10496372Y-20633984D02*
X10496372Y-20433984D01*
X10496372Y-20433984D02*
X10477325Y-20462555D01*
X10477325Y-20462555D02*
X10458277Y-20481603D01*
X10458277Y-20481603D02*
X10439230Y-20491127D01*
X10667801Y-20519698D02*
X10648753Y-20510174D01*
X10648753Y-20510174D02*
X10639230Y-20500650D01*
X10639230Y-20500650D02*
X10629706Y-20481603D01*
X10629706Y-20481603D02*
X10629706Y-20472079D01*
X10629706Y-20472079D02*
X10639230Y-20453031D01*
X10639230Y-20453031D02*
X10648753Y-20443508D01*
X10648753Y-20443508D02*
X10667801Y-20433984D01*
X10667801Y-20433984D02*
X10705896Y-20433984D01*
X10705896Y-20433984D02*
X10724944Y-20443508D01*
X10724944Y-20443508D02*
X10734468Y-20453031D01*
X10734468Y-20453031D02*
X10743991Y-20472079D01*
X10743991Y-20472079D02*
X10743991Y-20481603D01*
X10743991Y-20481603D02*
X10734468Y-20500650D01*
X10734468Y-20500650D02*
X10724944Y-20510174D01*
X10724944Y-20510174D02*
X10705896Y-20519698D01*
X10705896Y-20519698D02*
X10667801Y-20519698D01*
X10667801Y-20519698D02*
X10648753Y-20529222D01*
X10648753Y-20529222D02*
X10639230Y-20538746D01*
X10639230Y-20538746D02*
X10629706Y-20557793D01*
X10629706Y-20557793D02*
X10629706Y-20595889D01*
X10629706Y-20595889D02*
X10639230Y-20614936D01*
X10639230Y-20614936D02*
X10648753Y-20624460D01*
X10648753Y-20624460D02*
X10667801Y-20633984D01*
X10667801Y-20633984D02*
X10705896Y-20633984D01*
X10705896Y-20633984D02*
X10724944Y-20624460D01*
X10724944Y-20624460D02*
X10734468Y-20614936D01*
X10734468Y-20614936D02*
X10743991Y-20595889D01*
X10743991Y-20595889D02*
X10743991Y-20557793D01*
X10743991Y-20557793D02*
X10734468Y-20538746D01*
X10734468Y-20538746D02*
X10724944Y-20529222D01*
X10724944Y-20529222D02*
X10705896Y-20519698D01*
X10934468Y-20633984D02*
X10820182Y-20633984D01*
X10877325Y-20633984D02*
X10877325Y-20433984D01*
X10877325Y-20433984D02*
X10858277Y-20462555D01*
X10858277Y-20462555D02*
X10839230Y-20481603D01*
X10839230Y-20481603D02*
X10820182Y-20491127D01*
X11172563Y-20633984D02*
X11172563Y-20433984D01*
X11258277Y-20633984D02*
X11258277Y-20529222D01*
X11258277Y-20529222D02*
X11248753Y-20510174D01*
X11248753Y-20510174D02*
X11229706Y-20500650D01*
X11229706Y-20500650D02*
X11201134Y-20500650D01*
X11201134Y-20500650D02*
X11182087Y-20510174D01*
X11182087Y-20510174D02*
X11172563Y-20519698D01*
X11382087Y-20633984D02*
X11363039Y-20624460D01*
X11363039Y-20624460D02*
X11353515Y-20614936D01*
X11353515Y-20614936D02*
X11343991Y-20595889D01*
X11343991Y-20595889D02*
X11343991Y-20538746D01*
X11343991Y-20538746D02*
X11353515Y-20519698D01*
X11353515Y-20519698D02*
X11363039Y-20510174D01*
X11363039Y-20510174D02*
X11382087Y-20500650D01*
X11382087Y-20500650D02*
X11410658Y-20500650D01*
X11410658Y-20500650D02*
X11429706Y-20510174D01*
X11429706Y-20510174D02*
X11439230Y-20519698D01*
X11439230Y-20519698D02*
X11448753Y-20538746D01*
X11448753Y-20538746D02*
X11448753Y-20595889D01*
X11448753Y-20595889D02*
X11439230Y-20614936D01*
X11439230Y-20614936D02*
X11429706Y-20624460D01*
X11429706Y-20624460D02*
X11410658Y-20633984D01*
X11410658Y-20633984D02*
X11382087Y-20633984D01*
X11563039Y-20633984D02*
X11543991Y-20624460D01*
X11543991Y-20624460D02*
X11534468Y-20605412D01*
X11534468Y-20605412D02*
X11534468Y-20433984D01*
X11715420Y-20624460D02*
X11696372Y-20633984D01*
X11696372Y-20633984D02*
X11658277Y-20633984D01*
X11658277Y-20633984D02*
X11639230Y-20624460D01*
X11639230Y-20624460D02*
X11629706Y-20605412D01*
X11629706Y-20605412D02*
X11629706Y-20529222D01*
X11629706Y-20529222D02*
X11639230Y-20510174D01*
X11639230Y-20510174D02*
X11658277Y-20500650D01*
X11658277Y-20500650D02*
X11696372Y-20500650D01*
X11696372Y-20500650D02*
X11715420Y-20510174D01*
X11715420Y-20510174D02*
X11724944Y-20529222D01*
X11724944Y-20529222D02*
X11724944Y-20548270D01*
X11724944Y-20548270D02*
X11629706Y-20567317D01*
X11801134Y-20624460D02*
X11820182Y-20633984D01*
X11820182Y-20633984D02*
X11858277Y-20633984D01*
X11858277Y-20633984D02*
X11877325Y-20624460D01*
X11877325Y-20624460D02*
X11886849Y-20605412D01*
X11886849Y-20605412D02*
X11886849Y-20595889D01*
X11886849Y-20595889D02*
X11877325Y-20576841D01*
X11877325Y-20576841D02*
X11858277Y-20567317D01*
X11858277Y-20567317D02*
X11829706Y-20567317D01*
X11829706Y-20567317D02*
X11810658Y-20557793D01*
X11810658Y-20557793D02*
X11801134Y-20538746D01*
X11801134Y-20538746D02*
X11801134Y-20529222D01*
X11801134Y-20529222D02*
X11810658Y-20510174D01*
X11810658Y-20510174D02*
X11829706Y-20500650D01*
X11829706Y-20500650D02*
X11858277Y-20500650D01*
X11858277Y-20500650D02*
X11877325Y-20510174D01*
X11953515Y-20710174D02*
X11963039Y-20700650D01*
X11963039Y-20700650D02*
X11982087Y-20672079D01*
X11982087Y-20672079D02*
X11991611Y-20653031D01*
X11991611Y-20653031D02*
X12001134Y-20624460D01*
X12001134Y-20624460D02*
X12010658Y-20576841D01*
X12010658Y-20576841D02*
X12010658Y-20538746D01*
X12010658Y-20538746D02*
X12001134Y-20491127D01*
X12001134Y-20491127D02*
X11991611Y-20462555D01*
X11991611Y-20462555D02*
X11982087Y-20443508D01*
X11982087Y-20443508D02*
X11963039Y-20414936D01*
X11963039Y-20414936D02*
X11953515Y-20405412D01*
M02*
