M48
; DRILL file {KiCad 8.0.4-8.0.4-0~ubuntu22.04.1} date 2024-08-25T13:27:29+0100
; FORMAT={-:-/ absolute / metric / decimal}
; #@! TF.CreationDate,2024-08-25T13:27:29+01:00
; #@! TF.GenerationSoftware,Kicad,Pcbnew,8.0.4-8.0.4-0~ubuntu22.04.1
; #@! TF.FileFunction,Plated,1,2,PTH
FMAT,2
METRIC
; #@! TA.AperFunction,Plated,PTH,ViaDrill
T1C0.400
%
G90
G05
T1
X69.875Y-179.6
X70.4Y-118.6
X70.6Y-195.7
X70.7Y-158.7
X72.3Y-138.7
X72.7Y-157.4
X73.5Y-176.475
X75.7Y-178.0
X86.4Y-94.7
X86.6Y-101.7
X88.8Y-158.6
X89.1Y-179.3
X91.3Y-118.8
X95.9Y-126.7
X101.1Y-137.9
X102.4Y-144.2
X103.0Y-176.475
X105.0Y-94.9
X105.0Y-101.7
X106.1Y-196.9
X107.0Y-193.4
X108.1Y-179.1
X108.4Y-195.7
X109.0Y-102.0
X110.3Y-137.8
X114.7Y-139.2
X114.7Y-158.5
X114.8Y-120.3
X117.3Y-121.4
X119.1Y-157.9
X119.8Y-196.5
X122.5Y-154.9
X124.2Y-95.0
X124.3Y-101.0
X125.5Y-175.775
X127.0Y-191.5
X127.0Y-196.6
X142.3Y-118.4
X143.0Y-139.5
X143.7Y-94.7
X143.7Y-101.3
X147.0Y-179.5
X149.6Y-175.8
X149.8Y-159.5
X156.6Y-119.0
X156.6Y-121.6
X160.9Y-137.4
X160.9Y-140.9
X161.4Y-175.6
X161.6Y-101.3
X161.8Y-94.7
X175.3Y-138.4
X177.7Y-119.3
X177.7Y-121.3
X179.4Y-142.7
X179.6Y-159.0
X180.9Y-101.2
X181.1Y-94.3
X184.5Y-158.8
X187.6Y-158.8
X198.4Y-159.2
X199.1Y-142.7
X199.2Y-93.8
X199.6Y-100.4
X202.3Y-121.2
X203.4Y-118.8
X204.2Y-158.8
X206.8Y-158.9
X210.6Y-139.8
X216.7Y-154.8
X217.5Y-151.9
X218.0Y-196.6
X220.0Y-175.4
X220.4Y-137.9
X220.5Y-121.5
X220.7Y-116.3
X222.8Y-139.2
X225.3Y-99.3
X225.5Y-119.4
X228.9Y-140.3
X230.0Y-158.9
X230.5Y-135.3
X232.3Y-120.4
X237.8Y-121.2
X239.2Y-117.9
X240.0Y-100.6
X241.3Y-140.325
X241.3Y-194.975
X242.0Y-138.3
X242.1Y-101.5
X246.4Y-173.8
X246.5Y-195.7
X246.9Y-156.6
X255.6Y-141.7
X257.4Y-137.5
X260.3Y-102.7
X261.9Y-96.9
X265.1Y-176.1
X268.5Y-176.375
X270.2Y-118.3
X270.3Y-122.0
X274.1Y-155.4
X274.3Y-119.6
X276.1Y-120.8
X277.1Y-178.1
X277.5Y-137.5
X277.7Y-91.52
X277.8Y-157.075
X278.1Y-116.9
X279.3Y-176.3
X279.7Y-194.3
X280.25Y-91.48
X280.26Y-95.5
X282.74Y-96.6
X282.804Y-91.46
X285.31Y-91.49
X285.4Y-118.8
X286.8Y-197.55
X287.6Y-176.0
X287.88Y-91.42
X287.92Y-101.44
X288.1Y-125.6
X288.8Y-135.1
X289.8Y-158.8
X290.424Y-91.414
X290.47Y-96.9
X292.4Y-138.425
X292.4Y-155.0
X292.91Y-98.575
X292.95Y-91.41
X292.96Y-100.39
X295.1Y-118.7
X295.2Y-121.1
X295.46Y-97.8
X295.504Y-91.426
X296.9Y-156.9
X297.0Y-196.825
X297.6Y-138.6
X297.7Y-117.7
X297.9Y-178.8
X300.7Y-101.6
X301.4Y-96.9
X303.2Y-177.0
X303.3Y-157.0
X304.1Y-162.2
X304.3Y-176.3
X304.526Y-91.454
X306.07Y-96.3
X307.076Y-91.414
X307.8Y-123.2
X308.064Y-99.3
X309.5Y-119.1
X309.63Y-91.394
X312.1Y-145.8
X312.17Y-91.391
X314.735Y-91.325
X314.8Y-100.1
X316.2Y-176.6
X316.8Y-158.6
X317.246Y-119.888
X317.25Y-91.348
X317.7Y-191.6
X319.532Y-119.7
X319.776Y-91.344
X319.8Y-196.1
X322.33Y-91.36
X323.3Y-157.8
X324.7Y-137.4
X325.3Y-158.5
X326.8Y-121.1
X328.6Y-137.7
X330.1Y-142.0
X334.9Y-100.0
X334.9Y-104.6
X335.4Y-118.8
X336.4Y-101.9
X336.5Y-179.9
X336.6Y-99.0
X336.7Y-161.0
X338.1Y-102.0
X338.2Y-98.5
M30
