G04 #@! TF.GenerationSoftware,KiCad,Pcbnew,8.0.4-8.0.4-0~ubuntu22.04.1*
G04 #@! TF.CreationDate,2024-08-25T13:27:25+01:00*
G04 #@! TF.ProjectId,membrane1,6d656d62-7261-46e6-9531-2e6b69636164,V1.1*
G04 #@! TF.SameCoordinates,Original*
G04 #@! TF.FileFunction,Legend,Bot*
G04 #@! TF.FilePolarity,Positive*
%FSLAX46Y46*%
G04 Gerber Fmt 4.6, Leading zero omitted, Abs format (unit mm)*
G04 Created by KiCad (PCBNEW 8.0.4-8.0.4-0~ubuntu22.04.1) date 2024-08-25 13:27:25*
%MOMM*%
%LPD*%
G01*
G04 APERTURE LIST*
G04 Aperture macros list*
%AMRoundRect*
0 Rectangle with rounded corners*
0 $1 Rounding radius*
0 $2 $3 $4 $5 $6 $7 $8 $9 X,Y pos of 4 corners*
0 Add a 4 corners polygon primitive as box body*
4,1,4,$2,$3,$4,$5,$6,$7,$8,$9,$2,$3,0*
0 Add four circle primitives for the rounded corners*
1,1,$1+$1,$2,$3*
1,1,$1+$1,$4,$5*
1,1,$1+$1,$6,$7*
1,1,$1+$1,$8,$9*
0 Add four rect primitives between the rounded corners*
20,1,$1+$1,$2,$3,$4,$5,0*
20,1,$1+$1,$4,$5,$6,$7,0*
20,1,$1+$1,$6,$7,$8,$9,0*
20,1,$1+$1,$8,$9,$2,$3,0*%
G04 Aperture macros list end*
%ADD10C,0.150000*%
%ADD11C,0.120000*%
%ADD12RoundRect,0.051000X-0.450000X1.000000X-0.450000X-1.000000X0.450000X-1.000000X0.450000X1.000000X0*%
G04 APERTURE END LIST*
D10*
X280371904Y-73287200D02*
X280229047Y-73334819D01*
X280229047Y-73334819D02*
X279990952Y-73334819D01*
X279990952Y-73334819D02*
X279895714Y-73287200D01*
X279895714Y-73287200D02*
X279848095Y-73239580D01*
X279848095Y-73239580D02*
X279800476Y-73144342D01*
X279800476Y-73144342D02*
X279800476Y-73049104D01*
X279800476Y-73049104D02*
X279848095Y-72953866D01*
X279848095Y-72953866D02*
X279895714Y-72906247D01*
X279895714Y-72906247D02*
X279990952Y-72858628D01*
X279990952Y-72858628D02*
X280181428Y-72811009D01*
X280181428Y-72811009D02*
X280276666Y-72763390D01*
X280276666Y-72763390D02*
X280324285Y-72715771D01*
X280324285Y-72715771D02*
X280371904Y-72620533D01*
X280371904Y-72620533D02*
X280371904Y-72525295D01*
X280371904Y-72525295D02*
X280324285Y-72430057D01*
X280324285Y-72430057D02*
X280276666Y-72382438D01*
X280276666Y-72382438D02*
X280181428Y-72334819D01*
X280181428Y-72334819D02*
X279943333Y-72334819D01*
X279943333Y-72334819D02*
X279800476Y-72382438D01*
X279371904Y-73334819D02*
X279371904Y-72334819D01*
X278800476Y-73334819D02*
X279229047Y-72763390D01*
X278800476Y-72334819D02*
X279371904Y-72906247D01*
X277943333Y-72334819D02*
X278133809Y-72334819D01*
X278133809Y-72334819D02*
X278229047Y-72382438D01*
X278229047Y-72382438D02*
X278276666Y-72430057D01*
X278276666Y-72430057D02*
X278371904Y-72572914D01*
X278371904Y-72572914D02*
X278419523Y-72763390D01*
X278419523Y-72763390D02*
X278419523Y-73144342D01*
X278419523Y-73144342D02*
X278371904Y-73239580D01*
X278371904Y-73239580D02*
X278324285Y-73287200D01*
X278324285Y-73287200D02*
X278229047Y-73334819D01*
X278229047Y-73334819D02*
X278038571Y-73334819D01*
X278038571Y-73334819D02*
X277943333Y-73287200D01*
X277943333Y-73287200D02*
X277895714Y-73239580D01*
X277895714Y-73239580D02*
X277848095Y-73144342D01*
X277848095Y-73144342D02*
X277848095Y-72906247D01*
X277848095Y-72906247D02*
X277895714Y-72811009D01*
X277895714Y-72811009D02*
X277943333Y-72763390D01*
X277943333Y-72763390D02*
X278038571Y-72715771D01*
X278038571Y-72715771D02*
X278229047Y-72715771D01*
X278229047Y-72715771D02*
X278324285Y-72763390D01*
X278324285Y-72763390D02*
X278371904Y-72811009D01*
X278371904Y-72811009D02*
X278419523Y-72906247D01*
X307103904Y-73155200D02*
X306961047Y-73202819D01*
X306961047Y-73202819D02*
X306722952Y-73202819D01*
X306722952Y-73202819D02*
X306627714Y-73155200D01*
X306627714Y-73155200D02*
X306580095Y-73107580D01*
X306580095Y-73107580D02*
X306532476Y-73012342D01*
X306532476Y-73012342D02*
X306532476Y-72917104D01*
X306532476Y-72917104D02*
X306580095Y-72821866D01*
X306580095Y-72821866D02*
X306627714Y-72774247D01*
X306627714Y-72774247D02*
X306722952Y-72726628D01*
X306722952Y-72726628D02*
X306913428Y-72679009D01*
X306913428Y-72679009D02*
X307008666Y-72631390D01*
X307008666Y-72631390D02*
X307056285Y-72583771D01*
X307056285Y-72583771D02*
X307103904Y-72488533D01*
X307103904Y-72488533D02*
X307103904Y-72393295D01*
X307103904Y-72393295D02*
X307056285Y-72298057D01*
X307056285Y-72298057D02*
X307008666Y-72250438D01*
X307008666Y-72250438D02*
X306913428Y-72202819D01*
X306913428Y-72202819D02*
X306675333Y-72202819D01*
X306675333Y-72202819D02*
X306532476Y-72250438D01*
X306103904Y-73202819D02*
X306103904Y-72202819D01*
X305532476Y-73202819D02*
X305961047Y-72631390D01*
X305532476Y-72202819D02*
X306103904Y-72774247D01*
X305199142Y-72202819D02*
X304532476Y-72202819D01*
X304532476Y-72202819D02*
X304961047Y-73202819D01*
D11*
X278090000Y-78150000D02*
X278090000Y-75530000D01*
X278740000Y-75530000D02*
X278090000Y-75530000D01*
X278740000Y-75530000D02*
X278740000Y-74300000D01*
X280740000Y-78150000D02*
X278090000Y-78150000D01*
X282740000Y-75530000D02*
X280160000Y-75530000D01*
X284740000Y-78150000D02*
X282160000Y-78150000D01*
X286740000Y-75530000D02*
X284160000Y-75530000D01*
X288740000Y-78150000D02*
X286160000Y-78150000D01*
X290740000Y-75530000D02*
X288160000Y-75530000D01*
X292740000Y-78150000D02*
X290160000Y-78150000D01*
X294810000Y-75530000D02*
X292160000Y-75530000D01*
X294810000Y-78150000D02*
X294160000Y-78150000D01*
X294810000Y-78150000D02*
X294810000Y-75530000D01*
X304822000Y-78018000D02*
X304822000Y-75398000D01*
X305472000Y-75398000D02*
X304822000Y-75398000D01*
X305472000Y-75398000D02*
X305472000Y-74168000D01*
X307472000Y-78018000D02*
X304822000Y-78018000D01*
X309472000Y-75398000D02*
X306892000Y-75398000D01*
X311472000Y-78018000D02*
X308892000Y-78018000D01*
X313472000Y-75398000D02*
X310892000Y-75398000D01*
X315472000Y-78018000D02*
X312892000Y-78018000D01*
X317472000Y-75398000D02*
X314892000Y-75398000D01*
X319472000Y-78018000D02*
X316892000Y-78018000D01*
X321542000Y-75398000D02*
X318892000Y-75398000D01*
X321542000Y-78018000D02*
X320892000Y-78018000D01*
X321542000Y-78018000D02*
X321542000Y-75398000D01*
%LPC*%
D12*
X279450000Y-75240000D03*
X281450000Y-78440000D03*
X283450000Y-75240000D03*
X285450000Y-78440000D03*
X287450000Y-75240000D03*
X289450000Y-78440000D03*
X291450000Y-75240000D03*
X293450000Y-78440000D03*
X306182000Y-75108000D03*
X308182000Y-78308000D03*
X310182000Y-75108000D03*
X312182000Y-78308000D03*
X314182000Y-75108000D03*
X316182000Y-78308000D03*
X318182000Y-75108000D03*
X320182000Y-78308000D03*
%LPD*%
M02*
