%TF.GenerationSoftware,KiCad,Pcbnew,8.0.4-8.0.4-0~ubuntu22.04.1*%
%TF.CreationDate,2024-08-25T13:27:29+01:00*%
%TF.ProjectId,membrane1,6d656d62-7261-46e6-9531-2e6b69636164,V1.1*%
%TF.SameCoordinates,Original*%
%TF.FileFunction,Drillmap*%
%TF.FilePolarity,Positive*%
%FSLAX45Y45*%
G04 Gerber Fmt 4.5, Leading zero omitted, Abs format (unit mm)*
G04 Created by KiCad (PCBNEW 8.0.4-8.0.4-0~ubuntu22.04.1) date 2024-08-25 13:27:29*
%MOMM*%
%LPD*%
G01*
G04 APERTURE LIST*
%ADD10C,0.050000*%
%ADD11C,0.200000*%
G04 APERTURE END LIST*
D10*
X6800000Y-8700000D02*
X6800000Y-19900000D01*
X6800000Y-19900000D02*
X35600000Y-19900000D01*
X32900000Y-8700000D02*
X35600000Y-8700000D01*
X26100000Y-8700000D02*
X6800000Y-8700000D01*
X27511000Y-8820000D02*
G75*
G02*
X27100000Y-8820000I-205500J0D01*
G01*
X26100000Y-8700000D02*
X26700000Y-8700000D01*
X27100000Y-8700000D02*
X26700000Y-8700000D01*
X27100000Y-8810000D02*
X27100000Y-8820000D01*
X32900000Y-8700000D02*
X32900000Y-8800000D01*
X30209000Y-2499000D02*
X32500000Y-2500000D01*
X30209000Y-8819980D02*
X30209000Y-2499000D01*
X29811000Y-3820000D02*
X27511000Y-3820000D01*
X12360000Y-14000000D02*
G75*
G02*
X11960000Y-14000000I-200000J0D01*
G01*
X11960000Y-14000000D02*
G75*
G02*
X12360000Y-14000000I200000J0D01*
G01*
X30209000Y-8819980D02*
G75*
G02*
X29811000Y-8819980I-199000J-5D01*
G01*
X31360000Y-14000000D02*
G75*
G02*
X30960000Y-14000000I-200000J0D01*
G01*
X30960000Y-14000000D02*
G75*
G02*
X31360000Y-14000000I200000J0D01*
G01*
X32500000Y-2500000D02*
X32500000Y-8800000D01*
X21860000Y-14000000D02*
G75*
G02*
X21460000Y-14000000I-200000J0D01*
G01*
X21460000Y-14000000D02*
G75*
G02*
X21860000Y-14000000I200000J0D01*
G01*
X35600000Y-19900000D02*
X35600000Y-8700000D01*
X29811000Y-3820000D02*
X29811000Y-8819980D01*
X27100000Y-8810000D02*
X27100000Y-8700000D01*
X32900000Y-8800000D02*
G75*
G02*
X32500000Y-8800000I-200000J0D01*
G01*
X27511000Y-8820000D02*
X27511000Y-3820000D01*
D11*
X7058277Y-20213984D02*
X7058277Y-20013984D01*
X7058277Y-20013984D02*
X7105896Y-20013984D01*
X7105896Y-20013984D02*
X7134467Y-20023508D01*
X7134467Y-20023508D02*
X7153515Y-20042555D01*
X7153515Y-20042555D02*
X7163039Y-20061603D01*
X7163039Y-20061603D02*
X7172562Y-20099698D01*
X7172562Y-20099698D02*
X7172562Y-20128270D01*
X7172562Y-20128270D02*
X7163039Y-20166365D01*
X7163039Y-20166365D02*
X7153515Y-20185412D01*
X7153515Y-20185412D02*
X7134467Y-20204460D01*
X7134467Y-20204460D02*
X7105896Y-20213984D01*
X7105896Y-20213984D02*
X7058277Y-20213984D01*
X7258277Y-20213984D02*
X7258277Y-20080650D01*
X7258277Y-20118746D02*
X7267801Y-20099698D01*
X7267801Y-20099698D02*
X7277324Y-20090174D01*
X7277324Y-20090174D02*
X7296372Y-20080650D01*
X7296372Y-20080650D02*
X7315420Y-20080650D01*
X7382086Y-20213984D02*
X7382086Y-20080650D01*
X7382086Y-20013984D02*
X7372562Y-20023508D01*
X7372562Y-20023508D02*
X7382086Y-20033031D01*
X7382086Y-20033031D02*
X7391610Y-20023508D01*
X7391610Y-20023508D02*
X7382086Y-20013984D01*
X7382086Y-20013984D02*
X7382086Y-20033031D01*
X7505896Y-20213984D02*
X7486848Y-20204460D01*
X7486848Y-20204460D02*
X7477324Y-20185412D01*
X7477324Y-20185412D02*
X7477324Y-20013984D01*
X7610658Y-20213984D02*
X7591610Y-20204460D01*
X7591610Y-20204460D02*
X7582086Y-20185412D01*
X7582086Y-20185412D02*
X7582086Y-20013984D01*
X7839229Y-20213984D02*
X7839229Y-20013984D01*
X7839229Y-20013984D02*
X7905896Y-20156841D01*
X7905896Y-20156841D02*
X7972562Y-20013984D01*
X7972562Y-20013984D02*
X7972562Y-20213984D01*
X8153515Y-20213984D02*
X8153515Y-20109222D01*
X8153515Y-20109222D02*
X8143991Y-20090174D01*
X8143991Y-20090174D02*
X8124943Y-20080650D01*
X8124943Y-20080650D02*
X8086848Y-20080650D01*
X8086848Y-20080650D02*
X8067801Y-20090174D01*
X8153515Y-20204460D02*
X8134467Y-20213984D01*
X8134467Y-20213984D02*
X8086848Y-20213984D01*
X8086848Y-20213984D02*
X8067801Y-20204460D01*
X8067801Y-20204460D02*
X8058277Y-20185412D01*
X8058277Y-20185412D02*
X8058277Y-20166365D01*
X8058277Y-20166365D02*
X8067801Y-20147317D01*
X8067801Y-20147317D02*
X8086848Y-20137793D01*
X8086848Y-20137793D02*
X8134467Y-20137793D01*
X8134467Y-20137793D02*
X8153515Y-20128270D01*
X8248753Y-20080650D02*
X8248753Y-20280650D01*
X8248753Y-20090174D02*
X8267801Y-20080650D01*
X8267801Y-20080650D02*
X8305896Y-20080650D01*
X8305896Y-20080650D02*
X8324943Y-20090174D01*
X8324943Y-20090174D02*
X8334467Y-20099698D01*
X8334467Y-20099698D02*
X8343991Y-20118746D01*
X8343991Y-20118746D02*
X8343991Y-20175889D01*
X8343991Y-20175889D02*
X8334467Y-20194936D01*
X8334467Y-20194936D02*
X8324943Y-20204460D01*
X8324943Y-20204460D02*
X8305896Y-20213984D01*
X8305896Y-20213984D02*
X8267801Y-20213984D01*
X8267801Y-20213984D02*
X8248753Y-20204460D01*
X8429705Y-20194936D02*
X8439229Y-20204460D01*
X8439229Y-20204460D02*
X8429705Y-20213984D01*
X8429705Y-20213984D02*
X8420182Y-20204460D01*
X8420182Y-20204460D02*
X8429705Y-20194936D01*
X8429705Y-20194936D02*
X8429705Y-20213984D01*
X8429705Y-20090174D02*
X8439229Y-20099698D01*
X8439229Y-20099698D02*
X8429705Y-20109222D01*
X8429705Y-20109222D02*
X8420182Y-20099698D01*
X8420182Y-20099698D02*
X8429705Y-20090174D01*
X8429705Y-20090174D02*
X8429705Y-20109222D01*
M02*
