G04 #@! TF.GenerationSoftware,KiCad,Pcbnew,8.0.4-8.0.4-0~ubuntu22.04.1*
G04 #@! TF.CreationDate,2024-08-25T13:27:24+01:00*
G04 #@! TF.ProjectId,membrane1,6d656d62-7261-46e6-9531-2e6b69636164,V1.1*
G04 #@! TF.SameCoordinates,Original*
G04 #@! TF.FileFunction,Copper,L1,Top*
G04 #@! TF.FilePolarity,Positive*
%FSLAX46Y46*%
G04 Gerber Fmt 4.6, Leading zero omitted, Abs format (unit mm)*
G04 Created by KiCad (PCBNEW 8.0.4-8.0.4-0~ubuntu22.04.1) date 2024-08-25 13:27:24*
%MOMM*%
%LPD*%
G01*
G04 APERTURE LIST*
G04 Aperture macros list*
%AMFreePoly0*
4,1,111,-6.282286,0.717705,-6.146452,0.661441,-6.024205,0.579758,-5.920242,0.475795,-5.838559,0.353548,-5.782295,0.217714,-5.778771,0.200000,6.000000,0.200000,6.000000,-0.200000,-5.750000,-0.200000,-5.750000,-1.750000,5.750000,-1.750000,5.798773,-1.754804,5.888893,-1.792133,5.957867,-1.861107,5.995196,-1.951227,5.995196,-2.048773,5.957867,-2.138893,5.888893,-2.207867,5.798773,-2.245196,
5.750000,-2.250000,-5.750000,-2.250000,-5.750000,-3.750000,5.750000,-3.750000,5.798773,-3.754804,5.888893,-3.792133,5.957867,-3.861107,5.995196,-3.951227,5.995196,-4.048773,5.957867,-4.138893,5.888893,-4.207867,5.798773,-4.245196,5.750000,-4.250000,-5.750000,-4.250000,-5.750000,-5.750000,5.750000,-5.750000,5.798773,-5.754804,5.888893,-5.792133,5.957867,-5.861107,5.995196,-5.951227,
5.995196,-6.048773,5.957867,-6.138893,5.888893,-6.207867,5.798773,-6.245196,5.750000,-6.250000,-5.750000,-6.250000,-5.750000,-7.750000,5.750000,-7.750000,5.798773,-7.754804,5.888893,-7.792133,5.957867,-7.861107,5.995196,-7.951227,5.995196,-8.048773,5.957867,-8.138893,5.888893,-8.207867,5.798773,-8.245196,5.750000,-8.250000,-5.750000,-8.250000,-5.750000,-9.750000,5.750000,-9.750000,
5.798773,-9.754804,5.888893,-9.792133,5.957867,-9.861107,5.995196,-9.951227,5.995196,-10.048773,5.957867,-10.138893,5.888893,-10.207867,5.798773,-10.245196,5.750000,-10.250000,-5.750000,-10.250000,-5.750000,-11.750000,5.750000,-11.750000,5.798773,-11.754804,5.888893,-11.792133,5.957867,-11.861107,5.995196,-11.951227,5.995196,-12.048773,5.957867,-12.138893,5.888893,-12.207867,5.798773,-12.245196,
5.750000,-12.250000,-5.750000,-12.250000,-5.750000,-13.500000,-5.753611,-13.573513,-5.782295,-13.717714,-5.838559,-13.853548,-5.920242,-13.975795,-6.024205,-14.079758,-6.146452,-14.161441,-6.282286,-14.217705,-6.426487,-14.246389,-6.573513,-14.246389,-6.717714,-14.217705,-6.853548,-14.161441,-6.975795,-14.079758,-7.079758,-13.975795,-7.161441,-13.853548,-7.217705,-13.717714,-7.246389,-13.573513,-7.250000,-13.500000,
-7.250000,0.000000,-7.246389,0.073513,-7.217705,0.217714,-7.161441,0.353548,-7.079758,0.475795,-6.975795,0.579758,-6.853548,0.661441,-6.717714,0.717705,-6.573513,0.746389,-6.426487,0.746389,-6.282286,0.717705,-6.282286,0.717705,$1*%
%AMFreePoly1*
4,1,112,6.717714,1.967705,6.853548,1.911441,6.975795,1.829758,7.079758,1.725795,7.161441,1.603548,7.217705,1.467714,7.246389,1.323513,7.250000,1.250000,7.250000,-12.250000,7.246389,-12.323513,7.217705,-12.467714,7.161441,-12.603548,7.079758,-12.725795,6.975795,-12.829758,6.853548,-12.911441,6.717714,-12.967705,6.573513,-12.996389,6.426487,-12.996389,6.282286,-12.967705,6.146452,-12.911441,
6.024205,-12.829758,5.920242,-12.725795,5.838559,-12.603548,5.782295,-12.467714,5.753611,-12.323513,5.750000,-12.250000,-5.750000,-12.250000,-5.798773,-12.245196,-5.888893,-12.207867,-5.957867,-12.138893,-5.995196,-12.048773,-5.995196,-11.951227,-5.957867,-11.861107,-5.888893,-11.792133,-5.798773,-11.754804,-5.750000,-11.750000,5.750000,-11.750000,5.750000,-10.250000,-5.750000,-10.250000,-5.798773,-10.245196,
-5.888893,-10.207867,-5.957867,-10.138893,-5.995196,-10.048773,-5.995196,-9.951227,-5.957867,-9.861107,-5.888893,-9.792133,-5.798773,-9.754804,-5.750000,-9.750000,5.750000,-9.750000,5.750000,-8.250000,-5.750000,-8.250000,-5.798773,-8.245196,-5.888893,-8.207867,-5.957867,-8.138893,-5.995196,-8.048773,-5.995196,-7.951227,-5.957867,-7.861107,-5.888893,-7.792133,-5.798773,-7.754804,-5.750000,-7.750000,
5.750000,-7.750000,5.750000,-6.250000,-5.750000,-6.250000,-5.798773,-6.245196,-5.888893,-6.207867,-5.957867,-6.138893,-5.995196,-6.048773,-5.995196,-5.951227,-5.957867,-5.861107,-5.888893,-5.792133,-5.798773,-5.754804,-5.750000,-5.750000,5.750000,-5.750000,5.750000,-4.250000,-5.750000,-4.250000,-5.798773,-4.245196,-5.888893,-4.207867,-5.957867,-4.138893,-5.995196,-4.048773,-5.995196,-3.951227,
-5.957867,-3.861107,-5.888893,-3.792133,-5.798773,-3.754804,-5.750000,-3.750000,5.750000,-3.750000,5.750000,-2.250000,-5.750000,-2.250000,-5.798773,-2.245196,-5.888893,-2.207867,-5.957867,-2.138893,-5.995196,-2.048773,-5.995196,-1.951227,-5.957867,-1.861107,-5.888893,-1.792133,-5.798773,-1.754804,-5.750000,-1.750000,5.750000,-1.750000,5.750000,-0.200000,-6.000000,-0.200000,-6.000000,0.200000,
5.750000,0.200000,5.750000,1.250000,5.753611,1.323513,5.782295,1.467714,5.838559,1.603548,5.920242,1.725795,6.024205,1.829758,6.146452,1.911441,6.282286,1.967705,6.426487,1.996389,6.573513,1.996389,6.717714,1.967705,6.717714,1.967705,$1*%
%AMFreePoly2*
4,1,794,6.717714,126.967705,6.853548,126.911441,6.975795,126.829758,7.079758,126.725795,7.161441,126.603548,7.217705,126.467714,7.246389,126.323513,7.250000,126.250000,7.250000,0.000000,7.246389,-0.073513,7.217705,-0.217714,7.161441,-0.353548,7.079758,-0.475795,6.975795,-0.579758,6.853548,-0.661441,6.717714,-0.717705,6.573513,-0.746389,6.426487,-0.746389,6.282286,-0.717705,6.146452,-0.661441,
6.024205,-0.579758,5.920242,-0.475795,5.838559,-0.353548,5.782295,-0.217714,5.778771,-0.200000,-6.000000,-0.200000,-6.000000,0.200000,5.750000,0.200000,5.750000,1.800000,-5.750000,1.800000,-5.789018,1.803843,-5.861114,1.833706,-5.916294,1.888886,-5.946157,1.960982,-5.946157,2.039018,-5.916294,2.111114,-5.861114,2.166294,-5.789018,2.196157,-5.750000,2.200000,5.750000,2.200000,
5.750000,3.750000,-5.750000,3.750000,-5.798773,3.754804,-5.888893,3.792133,-5.957867,3.861107,-5.995196,3.951227,-5.995196,4.048773,-5.957867,4.138893,-5.888893,4.207867,-5.798773,4.245196,-5.750000,4.250000,5.750000,4.250000,5.750000,5.750000,-5.750000,5.750000,-5.798773,5.754804,-5.888893,5.792133,-5.957867,5.861107,-5.995196,5.951227,-5.995196,6.048773,-5.957867,6.138893,
-5.888893,6.207867,-5.798773,6.245196,-5.750000,6.250000,5.750000,6.250000,5.750000,7.750000,-5.750000,7.750000,-5.798773,7.754804,-5.888893,7.792133,-5.957867,7.861107,-5.995196,7.951227,-5.995196,8.048773,-5.957867,8.138893,-5.888893,8.207867,-5.798773,8.245196,-5.750000,8.250000,5.750000,8.250000,5.750000,9.750000,-5.750000,9.750000,-5.798773,9.754804,-5.888893,9.792133,
-5.957867,9.861107,-5.995196,9.951227,-5.995196,10.048773,-5.957867,10.138893,-5.888893,10.207867,-5.798773,10.245196,-5.750000,10.250000,5.750000,10.250000,5.750000,11.750000,-5.750000,11.750000,-5.798773,11.754804,-5.888893,11.792133,-5.957867,11.861107,-5.995196,11.951227,-5.995196,12.048773,-5.957867,12.138893,-5.888893,12.207867,-5.798773,12.245196,-5.750000,12.250000,5.750000,12.250000,
5.750000,13.800000,-5.750000,13.800000,-5.789018,13.803843,-5.861114,13.833706,-5.916294,13.888886,-5.946157,13.960982,-5.946157,14.039018,-5.916294,14.111114,-5.861114,14.166294,-5.789018,14.196157,-5.750000,14.200000,5.750000,14.200000,5.750000,15.750000,-5.750000,15.750000,-5.798773,15.754804,-5.888893,15.792133,-5.957867,15.861107,-5.995196,15.951227,-5.995196,16.048773,-5.957867,16.138893,
-5.888893,16.207867,-5.798773,16.245196,-5.750000,16.250000,5.750000,16.250000,5.750000,17.750000,-5.750000,17.750000,-5.798773,17.754804,-5.888893,17.792133,-5.957867,17.861107,-5.995196,17.951227,-5.995196,18.048773,-5.957867,18.138893,-5.888893,18.207867,-5.798773,18.245196,-5.750000,18.250000,5.750000,18.250000,5.750000,19.750000,-5.750000,19.750000,-5.798773,19.754804,-5.888893,19.792133,
-5.957867,19.861107,-5.995196,19.951227,-5.995196,20.048773,-5.957867,20.138893,-5.888893,20.207867,-5.798773,20.245196,-5.750000,20.250000,5.750000,20.250000,5.750000,21.750000,-5.750000,21.750000,-5.798773,21.754804,-5.888893,21.792133,-5.957867,21.861107,-5.995196,21.951227,-5.995196,22.048773,-5.957867,22.138893,-5.888893,22.207867,-5.798773,22.245196,-5.750000,22.250000,5.750000,22.250000,
5.750000,23.750000,-5.750000,23.750000,-5.798773,23.754804,-5.888893,23.792133,-5.957867,23.861107,-5.995196,23.951227,-5.995196,24.048773,-5.957867,24.138893,-5.888893,24.207867,-5.798773,24.245196,-5.750000,24.250000,5.750000,24.250000,5.750000,25.800000,-5.750000,25.800000,-5.789018,25.803843,-5.861114,25.833706,-5.916294,25.888886,-5.946157,25.960982,-5.946157,26.039018,-5.916294,26.111114,
-5.861114,26.166294,-5.789018,26.196157,-5.750000,26.200000,5.750000,26.200000,5.750000,27.750000,-5.750000,27.750000,-5.798773,27.754804,-5.888893,27.792133,-5.957867,27.861107,-5.995196,27.951227,-5.995196,28.048773,-5.957867,28.138893,-5.888893,28.207867,-5.798773,28.245196,-5.750000,28.250000,5.750000,28.250000,5.750000,29.750000,-5.750000,29.750000,-5.798773,29.754804,-5.888893,29.792133,
-5.957867,29.861107,-5.995196,29.951227,-5.995196,30.048773,-5.957867,30.138893,-5.888893,30.207867,-5.798773,30.245196,-5.750000,30.250000,5.750000,30.250000,5.750000,31.750000,-5.750000,31.750000,-5.798773,31.754804,-5.888893,31.792133,-5.957867,31.861107,-5.995196,31.951227,-5.995196,32.048773,-5.957867,32.138893,-5.888893,32.207867,-5.798773,32.245196,-5.750000,32.250000,5.750000,32.250000,
5.750000,33.750000,-5.750000,33.750000,-5.798773,33.754804,-5.888893,33.792133,-5.957867,33.861107,-5.995196,33.951227,-5.995196,34.048773,-5.957867,34.138893,-5.888893,34.207867,-5.798773,34.245196,-5.750000,34.250000,5.750000,34.250000,5.750000,35.750000,-5.750000,35.750000,-5.798773,35.754804,-5.888893,35.792133,-5.957867,35.861107,-5.995196,35.951227,-5.995196,36.048773,-5.957867,36.138893,
-5.888893,36.207867,-5.798773,36.245196,-5.750000,36.250000,5.750000,36.250000,5.750000,37.800000,-5.750000,37.800000,-5.789018,37.803843,-5.861114,37.833706,-5.916294,37.888886,-5.946157,37.960982,-5.946157,38.039018,-5.916294,38.111114,-5.861114,38.166294,-5.789018,38.196157,-5.750000,38.200000,5.750000,38.200000,5.750000,39.750000,-5.750000,39.750000,-5.798773,39.754804,-5.888893,39.792133,
-5.957867,39.861107,-5.995196,39.951227,-5.995196,40.048773,-5.957867,40.138893,-5.888893,40.207867,-5.798773,40.245196,-5.750000,40.250000,5.750000,40.250000,5.750000,41.750000,-5.750000,41.750000,-5.798773,41.754804,-5.888893,41.792133,-5.957867,41.861107,-5.995196,41.951227,-5.995196,42.048773,-5.957867,42.138893,-5.888893,42.207867,-5.798773,42.245196,-5.750000,42.250000,5.750000,42.250000,
5.750000,43.750000,-5.750000,43.750000,-5.798773,43.754804,-5.888893,43.792133,-5.957867,43.861107,-5.995196,43.951227,-5.995196,44.048773,-5.957867,44.138893,-5.888893,44.207867,-5.798773,44.245196,-5.750000,44.250000,5.750000,44.250000,5.750000,45.750000,-5.750000,45.750000,-5.798773,45.754804,-5.888893,45.792133,-5.957867,45.861107,-5.995196,45.951227,-5.995196,46.048773,-5.957867,46.138893,
-5.888893,46.207867,-5.798773,46.245196,-5.750000,46.250000,5.750000,46.250000,5.750000,47.750000,-5.750000,47.750000,-5.798773,47.754804,-5.888893,47.792133,-5.957867,47.861107,-5.995196,47.951227,-5.995196,48.048773,-5.957867,48.138893,-5.888893,48.207867,-5.798773,48.245196,-5.750000,48.250000,5.750000,48.250000,5.750000,49.800000,-5.750000,49.800000,-5.789018,49.803843,-5.861114,49.833706,
-5.916294,49.888886,-5.946157,49.960982,-5.946157,50.039018,-5.916294,50.111114,-5.861114,50.166294,-5.789018,50.196157,-5.750000,50.200000,5.750000,50.200000,5.750000,51.750000,-5.750000,51.750000,-5.798773,51.754804,-5.888893,51.792133,-5.957867,51.861107,-5.995196,51.951227,-5.995196,52.048773,-5.957867,52.138893,-5.888893,52.207867,-5.798773,52.245196,-5.750000,52.250000,5.750000,52.250000,
5.750000,53.750000,-5.750000,53.750000,-5.798773,53.754804,-5.888893,53.792133,-5.957867,53.861107,-5.995196,53.951227,-5.995196,54.048773,-5.957867,54.138893,-5.888893,54.207867,-5.798773,54.245196,-5.750000,54.250000,5.750000,54.250000,5.750000,55.750000,-5.750000,55.750000,-5.798773,55.754804,-5.888893,55.792133,-5.957867,55.861107,-5.995196,55.951227,-5.995196,56.048773,-5.957867,56.138893,
-5.888893,56.207867,-5.798773,56.245196,-5.750000,56.250000,5.750000,56.250000,5.750000,57.750000,-5.750000,57.750000,-5.798773,57.754804,-5.888893,57.792133,-5.957867,57.861107,-5.995196,57.951227,-5.995196,58.048773,-5.957867,58.138893,-5.888893,58.207867,-5.798773,58.245196,-5.750000,58.250000,5.750000,58.250000,5.750000,59.750000,-5.750000,59.750000,-5.798773,59.754804,-5.888893,59.792133,
-5.957867,59.861107,-5.995196,59.951227,-5.995196,60.048773,-5.957867,60.138893,-5.888893,60.207867,-5.798773,60.245196,-5.750000,60.250000,5.750000,60.250000,5.750000,61.800000,-5.750000,61.800000,-5.789018,61.803843,-5.861114,61.833706,-5.916294,61.888886,-5.946157,61.960982,-5.946157,62.039018,-5.916294,62.111114,-5.861114,62.166294,-5.789018,62.196157,-5.750000,62.200000,5.750000,62.200000,
5.750000,63.750000,-5.750000,63.750000,-5.798773,63.754804,-5.888893,63.792133,-5.957867,63.861107,-5.995196,63.951227,-5.995196,64.048773,-5.957867,64.138893,-5.888893,64.207867,-5.798773,64.245196,-5.750000,64.250000,5.750000,64.250000,5.750000,65.750000,-5.750000,65.750000,-5.798773,65.754804,-5.888893,65.792133,-5.957867,65.861107,-5.995196,65.951227,-5.995196,66.048773,-5.957867,66.138893,
-5.888893,66.207867,-5.798773,66.245196,-5.750000,66.250000,5.750000,66.250000,5.750000,67.750000,-5.750000,67.750000,-5.798773,67.754804,-5.888893,67.792133,-5.957867,67.861107,-5.995196,67.951227,-5.995196,68.048773,-5.957867,68.138893,-5.888893,68.207867,-5.798773,68.245196,-5.750000,68.250000,5.750000,68.250000,5.750000,69.750000,-5.750000,69.750000,-5.798773,69.754804,-5.888893,69.792133,
-5.957867,69.861107,-5.995196,69.951227,-5.995196,70.048773,-5.957867,70.138893,-5.888893,70.207867,-5.798773,70.245196,-5.750000,70.250000,5.750000,70.250000,5.750000,71.750000,-5.750000,71.750000,-5.798773,71.754804,-5.888893,71.792133,-5.957867,71.861107,-5.995196,71.951227,-5.995196,72.048773,-5.957867,72.138893,-5.888893,72.207867,-5.798773,72.245196,-5.750000,72.250000,5.750000,72.250000,
5.750000,73.800000,-5.750000,73.800000,-5.789018,73.803843,-5.861114,73.833706,-5.916294,73.888886,-5.946157,73.960982,-5.946157,74.039018,-5.916294,74.111114,-5.861114,74.166294,-5.789018,74.196157,-5.750000,74.200000,5.750000,74.200000,5.750000,75.750000,-5.750000,75.750000,-5.798773,75.754804,-5.888893,75.792133,-5.957867,75.861107,-5.995196,75.951227,-5.995196,76.048773,-5.957867,76.138893,
-5.888893,76.207867,-5.798773,76.245196,-5.750000,76.250000,5.750000,76.250000,5.750000,77.750000,-5.750000,77.750000,-5.798773,77.754804,-5.888893,77.792133,-5.957867,77.861107,-5.995196,77.951227,-5.995196,78.048773,-5.957867,78.138893,-5.888893,78.207867,-5.798773,78.245196,-5.750000,78.250000,5.750000,78.250000,5.750000,79.750000,-5.750000,79.750000,-5.798773,79.754804,-5.888893,79.792133,
-5.957867,79.861107,-5.995196,79.951227,-5.995196,80.048773,-5.957867,80.138893,-5.888893,80.207867,-5.798773,80.245196,-5.750000,80.250000,5.750000,80.250000,5.750000,81.750000,-5.750000,81.750000,-5.798773,81.754804,-5.888893,81.792133,-5.957867,81.861107,-5.995196,81.951227,-5.995196,82.048773,-5.957867,82.138893,-5.888893,82.207867,-5.798773,82.245196,-5.750000,82.250000,5.750000,82.250000,
5.750000,83.750000,-5.750000,83.750000,-5.798773,83.754804,-5.888893,83.792133,-5.957867,83.861107,-5.995196,83.951227,-5.995196,84.048773,-5.957867,84.138893,-5.888893,84.207867,-5.798773,84.245196,-5.750000,84.250000,5.750000,84.250000,5.750000,85.800000,-5.750000,85.800000,-5.789018,85.803843,-5.861114,85.833706,-5.916294,85.888886,-5.946157,85.960982,-5.946157,86.039018,-5.916294,86.111114,
-5.861114,86.166294,-5.789018,86.196157,-5.750000,86.200000,5.750000,86.200000,5.750000,87.750000,-5.750000,87.750000,-5.798773,87.754804,-5.888893,87.792133,-5.957867,87.861107,-5.995196,87.951227,-5.995196,88.048773,-5.957867,88.138893,-5.888893,88.207867,-5.798773,88.245196,-5.750000,88.250000,5.750000,88.250000,5.750000,89.750000,-5.750000,89.750000,-5.798773,89.754804,-5.888893,89.792133,
-5.957867,89.861107,-5.995196,89.951227,-5.995196,90.048773,-5.957867,90.138893,-5.888893,90.207867,-5.798773,90.245196,-5.750000,90.250000,5.750000,90.250000,5.750000,91.750000,-5.750000,91.750000,-5.798773,91.754804,-5.888893,91.792133,-5.957867,91.861107,-5.995196,91.951227,-5.995196,92.048773,-5.957867,92.138893,-5.888893,92.207867,-5.798773,92.245196,-5.750000,92.250000,5.750000,92.250000,
5.750000,93.750000,-5.750000,93.750000,-5.798773,93.754804,-5.888893,93.792133,-5.957867,93.861107,-5.995196,93.951227,-5.995196,94.048773,-5.957867,94.138893,-5.888893,94.207867,-5.798773,94.245196,-5.750000,94.250000,5.750000,94.250000,5.750000,95.750000,-5.750000,95.750000,-5.798773,95.754804,-5.888893,95.792133,-5.957867,95.861107,-5.995196,95.951227,-5.995196,96.048773,-5.957867,96.138893,
-5.888893,96.207867,-5.798773,96.245196,-5.750000,96.250000,5.750000,96.250000,5.750000,97.800000,-5.750000,97.800000,-5.789018,97.803843,-5.861114,97.833706,-5.916294,97.888886,-5.946157,97.960982,-5.946157,98.039018,-5.916294,98.111114,-5.861114,98.166294,-5.789018,98.196157,-5.750000,98.200000,5.750000,98.200000,5.750000,99.750000,-5.750000,99.750000,-5.798773,99.754804,-5.888893,99.792133,
-5.957867,99.861107,-5.995196,99.951227,-5.995196,100.048773,-5.957867,100.138893,-5.888893,100.207867,-5.798773,100.245196,-5.750000,100.250000,5.750000,100.250000,5.750000,101.750000,-5.750000,101.750000,-5.798773,101.754804,-5.888893,101.792133,-5.957867,101.861107,-5.995196,101.951227,-5.995196,102.048773,-5.957867,102.138893,-5.888893,102.207867,-5.798773,102.245196,-5.750000,102.250000,5.750000,102.250000,
5.750000,103.750000,-5.750000,103.750000,-5.798773,103.754804,-5.888893,103.792133,-5.957867,103.861107,-5.995196,103.951227,-5.995196,104.048773,-5.957867,104.138893,-5.888893,104.207867,-5.798773,104.245196,-5.750000,104.250000,5.750000,104.250000,5.750000,105.750000,-5.750000,105.750000,-5.798773,105.754804,-5.888893,105.792133,-5.957867,105.861107,-5.995196,105.951227,-5.995196,106.048773,-5.957867,106.138893,
-5.888893,106.207867,-5.798773,106.245196,-5.750000,106.250000,5.750000,106.250000,5.750000,107.750000,-5.750000,107.750000,-5.798773,107.754804,-5.888893,107.792133,-5.957867,107.861107,-5.995196,107.951227,-5.995196,108.048773,-5.957867,108.138893,-5.888893,108.207867,-5.798773,108.245196,-5.750000,108.250000,5.750000,108.250000,5.750000,109.800000,-5.750000,109.800000,-5.789018,109.803843,-5.861114,109.833706,
-5.916294,109.888886,-5.946157,109.960982,-5.946157,110.039018,-5.916294,110.111114,-5.861114,110.166294,-5.789018,110.196157,-5.750000,110.200000,5.750000,110.200000,5.750000,111.750000,-5.750000,111.750000,-5.798773,111.754804,-5.888893,111.792133,-5.957867,111.861107,-5.995196,111.951227,-5.995196,112.048773,-5.957867,112.138893,-5.888893,112.207867,-5.798773,112.245196,-5.750000,112.250000,5.750000,112.250000,
5.750000,113.750000,-5.750000,113.750000,-5.798773,113.754804,-5.888893,113.792133,-5.957867,113.861107,-5.995196,113.951227,-5.995196,114.048773,-5.957867,114.138893,-5.888893,114.207867,-5.798773,114.245196,-5.750000,114.250000,5.750000,114.250000,5.750000,115.750000,-5.750000,115.750000,-5.798773,115.754804,-5.888893,115.792133,-5.957867,115.861107,-5.995196,115.951227,-5.995196,116.048773,-5.957867,116.138893,
-5.888893,116.207867,-5.798773,116.245196,-5.750000,116.250000,5.750000,116.250000,5.750000,117.750000,-5.750000,117.750000,-5.798773,117.754804,-5.888893,117.792133,-5.957867,117.861107,-5.995196,117.951227,-5.995196,118.048773,-5.957867,118.138893,-5.888893,118.207867,-5.798773,118.245196,-5.750000,118.250000,5.750000,118.250000,5.750000,119.750000,-5.750000,119.750000,-5.798773,119.754804,-5.888893,119.792133,
-5.957867,119.861107,-5.995196,119.951227,-5.995196,120.048773,-5.957867,120.138893,-5.888893,120.207867,-5.798773,120.245196,-5.750000,120.250000,5.750000,120.250000,5.750000,121.800000,-5.750000,121.800000,-5.789018,121.803843,-5.861114,121.833706,-5.916294,121.888886,-5.946157,121.960982,-5.946157,122.039018,-5.916294,122.111114,-5.861114,122.166294,-5.789018,122.196157,-5.750000,122.200000,5.750000,122.200000,
5.750000,123.750000,-5.750000,123.750000,-5.798773,123.754804,-5.888893,123.792133,-5.957867,123.861107,-5.995196,123.951227,-5.995196,124.048773,-5.957867,124.138893,-5.888893,124.207867,-5.798773,124.245196,-5.750000,124.250000,5.750000,124.250000,5.750000,125.750000,-5.750000,125.750000,-5.798773,125.754804,-5.888893,125.792133,-5.957867,125.861107,-5.995196,125.951227,-5.995196,126.048773,-5.957867,126.138893,
-5.888893,126.207867,-5.798773,126.245196,-5.750000,126.250000,5.750000,126.250000,5.753611,126.323513,5.782295,126.467714,5.838559,126.603548,5.920242,126.725795,6.024205,126.829758,6.146452,126.911441,6.282286,126.967705,6.426487,126.996389,6.573513,126.996389,6.717714,126.967705,6.717714,126.967705,$1*%
%AMFreePoly3*
4,1,785,-6.532286,125.967705,-6.396452,125.911441,-6.274205,125.829758,-6.170242,125.725795,-6.088559,125.603548,-6.032295,125.467714,-6.003611,125.323513,-6.000000,125.250000,-6.000000,124.250000,5.500000,124.250000,5.548773,124.245196,5.638893,124.207867,5.707867,124.138893,5.745196,124.048773,5.745196,123.951227,5.707867,123.861107,5.638893,123.792133,5.548773,123.754804,5.500000,123.750000,-6.000000,123.750000,
-6.000000,122.250000,5.500000,122.250000,5.548773,122.245196,5.638893,122.207867,5.707867,122.138893,5.745196,122.048773,5.745196,121.951227,5.707867,121.861107,5.638893,121.792133,5.548773,121.754804,5.500000,121.750000,-6.000000,121.750000,-6.000000,120.250000,5.500000,120.250000,5.548773,120.245196,5.638893,120.207867,5.707867,120.138893,5.745196,120.048773,5.745196,119.951227,5.707867,119.861107,
5.638893,119.792133,5.548773,119.754804,5.500000,119.750000,-6.000000,119.750000,-6.000000,118.250000,5.500000,118.250000,5.548773,118.245196,5.638893,118.207867,5.707867,118.138893,5.745196,118.048773,5.745196,117.951227,5.707867,117.861107,5.638893,117.792133,5.548773,117.754804,5.500000,117.750000,-6.000000,117.750000,-6.000000,116.250000,5.500000,116.250000,5.548773,116.245196,5.638893,116.207867,
5.707867,116.138893,5.745196,116.048773,5.745196,115.951227,5.707867,115.861107,5.638893,115.792133,5.548773,115.754804,5.500000,115.750000,-6.000000,115.750000,-6.000000,114.250000,5.500000,114.250000,5.548773,114.245196,5.638893,114.207867,5.707867,114.138893,5.745196,114.048773,5.745196,113.951227,5.707867,113.861107,5.638893,113.792133,5.548773,113.754804,5.500000,113.750000,-6.000000,113.750000,
-6.000000,112.250000,5.500000,112.250000,5.548773,112.245196,5.638893,112.207867,5.707867,112.138893,5.745196,112.048773,5.745196,111.951227,5.707867,111.861107,5.638893,111.792133,5.548773,111.754804,5.500000,111.750000,-6.000000,111.750000,-6.000000,110.250000,5.500000,110.250000,5.548773,110.245196,5.638893,110.207867,5.707867,110.138893,5.745196,110.048773,5.745196,109.951227,5.707867,109.861107,
5.638893,109.792133,5.548773,109.754804,5.500000,109.750000,-6.000000,109.750000,-6.000000,108.250000,5.500000,108.250000,5.548773,108.245196,5.638893,108.207867,5.707867,108.138893,5.745196,108.048773,5.745196,107.951227,5.707867,107.861107,5.638893,107.792133,5.548773,107.754804,5.500000,107.750000,-6.000000,107.750000,-6.000000,106.250000,5.500000,106.250000,5.548773,106.245196,5.638893,106.207867,
5.707867,106.138893,5.745196,106.048773,5.745196,105.951227,5.707867,105.861107,5.638893,105.792133,5.548773,105.754804,5.500000,105.750000,-6.000000,105.750000,-6.000000,104.250000,5.500000,104.250000,5.548773,104.245196,5.638893,104.207867,5.707867,104.138893,5.745196,104.048773,5.745196,103.951227,5.707867,103.861107,5.638893,103.792133,5.548773,103.754804,5.500000,103.750000,-6.000000,103.750000,
-6.000000,102.250000,5.500000,102.250000,5.548773,102.245196,5.638893,102.207867,5.707867,102.138893,5.745196,102.048773,5.745196,101.951227,5.707867,101.861107,5.638893,101.792133,5.548773,101.754804,5.500000,101.750000,-6.000000,101.750000,-6.000000,100.250000,5.500000,100.250000,5.548773,100.245196,5.638893,100.207867,5.707867,100.138893,5.745196,100.048773,5.745196,99.951227,5.707867,99.861107,
5.638893,99.792133,5.548773,99.754804,5.500000,99.750000,-6.000000,99.750000,-6.000000,98.250000,5.500000,98.250000,5.548773,98.245196,5.638893,98.207867,5.707867,98.138893,5.745196,98.048773,5.745196,97.951227,5.707867,97.861107,5.638893,97.792133,5.548773,97.754804,5.500000,97.750000,-6.000000,97.750000,-6.000000,96.250000,5.500000,96.250000,5.548773,96.245196,5.638893,96.207867,
5.707867,96.138893,5.745196,96.048773,5.745196,95.951227,5.707867,95.861107,5.638893,95.792133,5.548773,95.754804,5.500000,95.750000,-6.000000,95.750000,-6.000000,94.250000,5.500000,94.250000,5.548773,94.245196,5.638893,94.207867,5.707867,94.138893,5.745196,94.048773,5.745196,93.951227,5.707867,93.861107,5.638893,93.792133,5.548773,93.754804,5.500000,93.750000,-6.000000,93.750000,
-6.000000,92.250000,5.500000,92.250000,5.548773,92.245196,5.638893,92.207867,5.707867,92.138893,5.745196,92.048773,5.745196,91.951227,5.707867,91.861107,5.638893,91.792133,5.548773,91.754804,5.500000,91.750000,-6.000000,91.750000,-6.000000,90.250000,5.500000,90.250000,5.548773,90.245196,5.638893,90.207867,5.707867,90.138893,5.745196,90.048773,5.745196,89.951227,5.707867,89.861107,
5.638893,89.792133,5.548773,89.754804,5.500000,89.750000,-6.000000,89.750000,-6.000000,88.250000,5.500000,88.250000,5.548773,88.245196,5.638893,88.207867,5.707867,88.138893,5.745196,88.048773,5.745196,87.951227,5.707867,87.861107,5.638893,87.792133,5.548773,87.754804,5.500000,87.750000,-6.000000,87.750000,-6.000000,86.250000,5.500000,86.250000,5.548773,86.245196,5.638893,86.207867,
5.707867,86.138893,5.745196,86.048773,5.745196,85.951227,5.707867,85.861107,5.638893,85.792133,5.548773,85.754804,5.500000,85.750000,-6.000000,85.750000,-6.000000,84.250000,5.500000,84.250000,5.548773,84.245196,5.638893,84.207867,5.707867,84.138893,5.745196,84.048773,5.745196,83.951227,5.707867,83.861107,5.638893,83.792133,5.548773,83.754804,5.500000,83.750000,-6.000000,83.750000,
-6.000000,82.250000,5.500000,82.250000,5.548773,82.245196,5.638893,82.207867,5.707867,82.138893,5.745196,82.048773,5.745196,81.951227,5.707867,81.861107,5.638893,81.792133,5.548773,81.754804,5.500000,81.750000,-6.000000,81.750000,-6.000000,80.250000,5.500000,80.250000,5.548773,80.245196,5.638893,80.207867,5.707867,80.138893,5.745196,80.048773,5.745196,79.951227,5.707867,79.861107,
5.638893,79.792133,5.548773,79.754804,5.500000,79.750000,-6.000000,79.750000,-6.000000,78.250000,5.500000,78.250000,5.548773,78.245196,5.638893,78.207867,5.707867,78.138893,5.745196,78.048773,5.745196,77.951227,5.707867,77.861107,5.638893,77.792133,5.548773,77.754804,5.500000,77.750000,-6.000000,77.750000,-6.000000,76.250000,5.500000,76.250000,5.548773,76.245196,5.638893,76.207867,
5.707867,76.138893,5.745196,76.048773,5.745196,75.951227,5.707867,75.861107,5.638893,75.792133,5.548773,75.754804,5.500000,75.750000,-6.000000,75.750000,-6.000000,74.250000,5.500000,74.250000,5.548773,74.245196,5.638893,74.207867,5.707867,74.138893,5.745196,74.048773,5.745196,73.951227,5.707867,73.861107,5.638893,73.792133,5.548773,73.754804,5.500000,73.750000,-6.000000,73.750000,
-6.000000,72.250000,5.500000,72.250000,5.548773,72.245196,5.638893,72.207867,5.707867,72.138893,5.745196,72.048773,5.745196,71.951227,5.707867,71.861107,5.638893,71.792133,5.548773,71.754804,5.500000,71.750000,-6.000000,71.750000,-6.000000,70.250000,5.500000,70.250000,5.548773,70.245196,5.638893,70.207867,5.707867,70.138893,5.745196,70.048773,5.745196,69.951227,5.707867,69.861107,
5.638893,69.792133,5.548773,69.754804,5.500000,69.750000,-6.000000,69.750000,-6.000000,68.250000,5.500000,68.250000,5.548773,68.245196,5.638893,68.207867,5.707867,68.138893,5.745196,68.048773,5.745196,67.951227,5.707867,67.861107,5.638893,67.792133,5.548773,67.754804,5.500000,67.750000,-6.000000,67.750000,-6.000000,66.250000,5.500000,66.250000,5.548773,66.245196,5.638893,66.207867,
5.707867,66.138893,5.745196,66.048773,5.745196,65.951227,5.707867,65.861107,5.638893,65.792133,5.548773,65.754804,5.500000,65.750000,-6.000000,65.750000,-6.000000,64.250000,5.500000,64.250000,5.548773,64.245196,5.638893,64.207867,5.707867,64.138893,5.745196,64.048773,5.745196,63.951227,5.707867,63.861107,5.638893,63.792133,5.548773,63.754804,5.500000,63.750000,-6.000000,63.750000,
-6.000000,62.250000,5.500000,62.250000,5.548773,62.245196,5.638893,62.207867,5.707867,62.138893,5.745196,62.048773,5.745196,61.951227,5.707867,61.861107,5.638893,61.792133,5.548773,61.754804,5.500000,61.750000,-6.000000,61.750000,-6.000000,60.250000,5.500000,60.250000,5.548773,60.245196,5.638893,60.207867,5.707867,60.138893,5.745196,60.048773,5.745196,59.951227,5.707867,59.861107,
5.638893,59.792133,5.548773,59.754804,5.500000,59.750000,-6.000000,59.750000,-6.000000,58.250000,5.500000,58.250000,5.548773,58.245196,5.638893,58.207867,5.707867,58.138893,5.745196,58.048773,5.745196,57.951227,5.707867,57.861107,5.638893,57.792133,5.548773,57.754804,5.500000,57.750000,-6.000000,57.750000,-6.000000,56.250000,5.500000,56.250000,5.548773,56.245196,5.638893,56.207867,
5.707867,56.138893,5.745196,56.048773,5.745196,55.951227,5.707867,55.861107,5.638893,55.792133,5.548773,55.754804,5.500000,55.750000,-6.000000,55.750000,-6.000000,54.250000,5.500000,54.250000,5.548773,54.245196,5.638893,54.207867,5.707867,54.138893,5.745196,54.048773,5.745196,53.951227,5.707867,53.861107,5.638893,53.792133,5.548773,53.754804,5.500000,53.750000,-6.000000,53.750000,
-6.000000,52.250000,5.500000,52.250000,5.548773,52.245196,5.638893,52.207867,5.707867,52.138893,5.745196,52.048773,5.745196,51.951227,5.707867,51.861107,5.638893,51.792133,5.548773,51.754804,5.500000,51.750000,-6.000000,51.750000,-6.000000,50.250000,5.500000,50.250000,5.548773,50.245196,5.638893,50.207867,5.707867,50.138893,5.745196,50.048773,5.745196,49.951227,5.707867,49.861107,
5.638893,49.792133,5.548773,49.754804,5.500000,49.750000,-6.000000,49.750000,-6.000000,48.250000,5.500000,48.250000,5.548773,48.245196,5.638893,48.207867,5.707867,48.138893,5.745196,48.048773,5.745196,47.951227,5.707867,47.861107,5.638893,47.792133,5.548773,47.754804,5.500000,47.750000,-6.000000,47.750000,-6.000000,46.250000,5.500000,46.250000,5.548773,46.245196,5.638893,46.207867,
5.707867,46.138893,5.745196,46.048773,5.745196,45.951227,5.707867,45.861107,5.638893,45.792133,5.548773,45.754804,5.500000,45.750000,-6.000000,45.750000,-6.000000,44.250000,5.500000,44.250000,5.548773,44.245196,5.638893,44.207867,5.707867,44.138893,5.745196,44.048773,5.745196,43.951227,5.707867,43.861107,5.638893,43.792133,5.548773,43.754804,5.500000,43.750000,-6.000000,43.750000,
-6.000000,42.250000,5.500000,42.250000,5.548773,42.245196,5.638893,42.207867,5.707867,42.138893,5.745196,42.048773,5.745196,41.951227,5.707867,41.861107,5.638893,41.792133,5.548773,41.754804,5.500000,41.750000,-6.000000,41.750000,-6.000000,40.250000,5.500000,40.250000,5.548773,40.245196,5.638893,40.207867,5.707867,40.138893,5.745196,40.048773,5.745196,39.951227,5.707867,39.861107,
5.638893,39.792133,5.548773,39.754804,5.500000,39.750000,-6.000000,39.750000,-6.000000,38.250000,5.500000,38.250000,5.548773,38.245196,5.638893,38.207867,5.707867,38.138893,5.745196,38.048773,5.745196,37.951227,5.707867,37.861107,5.638893,37.792133,5.548773,37.754804,5.500000,37.750000,-6.000000,37.750000,-6.000000,36.250000,5.500000,36.250000,5.548773,36.245196,5.638893,36.207867,
5.707867,36.138893,5.745196,36.048773,5.745196,35.951227,5.707867,35.861107,5.638893,35.792133,5.548773,35.754804,5.500000,35.750000,-6.000000,35.750000,-6.000000,34.250000,5.500000,34.250000,5.548773,34.245196,5.638893,34.207867,5.707867,34.138893,5.745196,34.048773,5.745196,33.951227,5.707867,33.861107,5.638893,33.792133,5.548773,33.754804,5.500000,33.750000,-6.000000,33.750000,
-6.000000,32.250000,5.500000,32.250000,5.548773,32.245196,5.638893,32.207867,5.707867,32.138893,5.745196,32.048773,5.745196,31.951227,5.707867,31.861107,5.638893,31.792133,5.548773,31.754804,5.500000,31.750000,-6.000000,31.750000,-6.000000,30.250000,5.500000,30.250000,5.548773,30.245196,5.638893,30.207867,5.707867,30.138893,5.745196,30.048773,5.745196,29.951227,5.707867,29.861107,
5.638893,29.792133,5.548773,29.754804,5.500000,29.750000,-6.000000,29.750000,-6.000000,28.250000,5.500000,28.250000,5.548773,28.245196,5.638893,28.207867,5.707867,28.138893,5.745196,28.048773,5.745196,27.951227,5.707867,27.861107,5.638893,27.792133,5.548773,27.754804,5.500000,27.750000,-6.000000,27.750000,-6.000000,26.250000,5.500000,26.250000,5.548773,26.245196,5.638893,26.207867,
5.707867,26.138893,5.745196,26.048773,5.745196,25.951227,5.707867,25.861107,5.638893,25.792133,5.548773,25.754804,5.500000,25.750000,-6.000000,25.750000,-6.000000,24.250000,5.500000,24.250000,5.548773,24.245196,5.638893,24.207867,5.707867,24.138893,5.745196,24.048773,5.745196,23.951227,5.707867,23.861107,5.638893,23.792133,5.548773,23.754804,5.500000,23.750000,-6.000000,23.750000,
-6.000000,22.250000,5.500000,22.250000,5.548773,22.245196,5.638893,22.207867,5.707867,22.138893,5.745196,22.048773,5.745196,21.951227,5.707867,21.861107,5.638893,21.792133,5.548773,21.754804,5.500000,21.750000,-6.000000,21.750000,-6.000000,20.250000,5.500000,20.250000,5.548773,20.245196,5.638893,20.207867,5.707867,20.138893,5.745196,20.048773,5.745196,19.951227,5.707867,19.861107,
5.638893,19.792133,5.548773,19.754804,5.500000,19.750000,-6.000000,19.750000,-6.000000,18.250000,5.500000,18.250000,5.548773,18.245196,5.638893,18.207867,5.707867,18.138893,5.745196,18.048773,5.745196,17.951227,5.707867,17.861107,5.638893,17.792133,5.548773,17.754804,5.500000,17.750000,-6.000000,17.750000,-6.000000,16.250000,5.500000,16.250000,5.548773,16.245196,5.638893,16.207867,
5.707867,16.138893,5.745196,16.048773,5.745196,15.951227,5.707867,15.861107,5.638893,15.792133,5.548773,15.754804,5.500000,15.750000,-6.000000,15.750000,-6.000000,14.250000,5.500000,14.250000,5.548773,14.245196,5.638893,14.207867,5.707867,14.138893,5.745196,14.048773,5.745196,13.951227,5.707867,13.861107,5.638893,13.792133,5.548773,13.754804,5.500000,13.750000,-6.000000,13.750000,
-6.000000,12.250000,5.500000,12.250000,5.548773,12.245196,5.638893,12.207867,5.707867,12.138893,5.745196,12.048773,5.745196,11.951227,5.707867,11.861107,5.638893,11.792133,5.548773,11.754804,5.500000,11.750000,-6.000000,11.750000,-6.000000,10.250000,5.500000,10.250000,5.548773,10.245196,5.638893,10.207867,5.707867,10.138893,5.745196,10.048773,5.745196,9.951227,5.707867,9.861107,
5.638893,9.792133,5.548773,9.754804,5.500000,9.750000,-6.000000,9.750000,-6.000000,8.250000,5.500000,8.250000,5.548773,8.245196,5.638893,8.207867,5.707867,8.138893,5.745196,8.048773,5.745196,7.951227,5.707867,7.861107,5.638893,7.792133,5.548773,7.754804,5.500000,7.750000,-6.000000,7.750000,-6.000000,6.250000,5.500000,6.250000,5.548773,6.245196,5.638893,6.207867,
5.707867,6.138893,5.745196,6.048773,5.745196,5.951227,5.707867,5.861107,5.638893,5.792133,5.548773,5.754804,5.500000,5.750000,-6.000000,5.750000,-6.000000,4.250000,5.500000,4.250000,5.548773,4.245196,5.638893,4.207867,5.707867,4.138893,5.745196,4.048773,5.745196,3.951227,5.707867,3.861107,5.638893,3.792133,5.548773,3.754804,5.500000,3.750000,-6.000000,3.750000,
-6.000000,2.250000,5.500000,2.250000,5.548773,2.245196,5.638893,2.207867,5.707867,2.138893,5.745196,2.048773,5.745196,1.951227,5.707867,1.861107,5.638893,1.792133,5.548773,1.754804,5.500000,1.750000,-6.000000,1.750000,-6.000000,0.200000,6.000000,0.200000,6.000000,-0.200000,-6.000000,-0.200000,-6.000000,-1.250000,-6.003611,-1.323513,-6.032295,-1.467714,-6.088559,-1.603548,
-6.170242,-1.725795,-6.274205,-1.829758,-6.396452,-1.911441,-6.532286,-1.967705,-6.676487,-1.996389,-6.823513,-1.996389,-6.967714,-1.967705,-7.103548,-1.911441,-7.225795,-1.829758,-7.329758,-1.725795,-7.411441,-1.603548,-7.467705,-1.467714,-7.496389,-1.323513,-7.500000,-1.250000,-7.500000,125.250000,-7.496389,125.323513,-7.467705,125.467714,-7.411441,125.603548,-7.329758,125.725795,-7.225795,125.829758,
-7.103548,125.911441,-6.967714,125.967705,-6.823513,125.996389,-6.676487,125.996389,-6.532286,125.967705,-6.532286,125.967705,$1*%
%AMFreePoly4*
4,1,221,8.717714,19.967705,8.853548,19.911441,8.975795,19.829758,9.079758,19.725795,9.161441,19.603548,9.217705,19.467714,9.246389,19.323513,9.250000,19.250000,9.250000,-13.250000,9.246389,-13.323513,9.217705,-13.467714,9.161441,-13.603548,9.079758,-13.725795,8.975795,-13.829758,8.853548,-13.911441,8.717714,-13.967705,8.573513,-13.996389,8.426487,-13.996389,8.282286,-13.967705,8.146452,-13.911441,
8.024205,-13.829758,7.920242,-13.725795,7.838559,-13.603548,7.782295,-13.467714,7.753611,-13.323513,7.750000,-13.250000,7.750000,-12.250000,-8.750000,-12.250000,-8.798773,-12.245196,-8.888893,-12.207867,-8.957867,-12.138893,-8.995196,-12.048773,-8.995196,-11.951227,-8.957867,-11.861107,-8.888893,-11.792133,-8.798773,-11.754804,-8.750000,-11.750000,7.750000,-11.750000,7.750000,-10.250000,-8.750000,-10.250000,
-8.798773,-10.245196,-8.888893,-10.207867,-8.957867,-10.138893,-8.995196,-10.048773,-8.995196,-9.951227,-8.957867,-9.861107,-8.888893,-9.792133,-8.798773,-9.754804,-8.750000,-9.750000,7.750000,-9.750000,7.750000,-8.250000,-8.750000,-8.250000,-8.798773,-8.245196,-8.888893,-8.207867,-8.957867,-8.138893,-8.995196,-8.048773,-8.995196,-7.951227,-8.957867,-7.861107,-8.888893,-7.792133,-8.798773,-7.754804,
-8.750000,-7.750000,7.750000,-7.750000,7.750000,-6.250000,-8.750000,-6.250000,-8.798773,-6.245196,-8.888893,-6.207867,-8.957867,-6.138893,-8.995196,-6.048773,-8.995196,-5.951227,-8.957867,-5.861107,-8.888893,-5.792133,-8.798773,-5.754804,-8.750000,-5.750000,7.750000,-5.750000,7.750000,-4.250000,-8.750000,-4.250000,-8.798773,-4.245196,-8.888893,-4.207867,-8.957867,-4.138893,-8.995196,-4.048773,
-8.995196,-3.951227,-8.957867,-3.861107,-8.888893,-3.792133,-8.798773,-3.754804,-8.750000,-3.750000,7.750000,-3.750000,7.750000,-2.200000,-8.750000,-2.200000,-8.789018,-2.196157,-8.861114,-2.166294,-8.916294,-2.111114,-8.946157,-2.039018,-8.946157,-1.960982,-8.916294,-1.888886,-8.861114,-1.833706,-8.789018,-1.803843,-8.750000,-1.800000,7.750000,-1.800000,7.750000,-0.200000,-9.000000,-0.200000,
-9.000000,0.200000,7.750000,0.200000,7.750000,1.750000,-8.750000,1.750000,-8.798773,1.754804,-8.888893,1.792133,-8.957867,1.861107,-8.995196,1.951227,-8.995196,2.048773,-8.957867,2.138893,-8.888893,2.207867,-8.798773,2.245196,-8.750000,2.250000,7.750000,2.250000,7.750000,3.750000,-8.750000,3.750000,-8.798773,3.754804,-8.888893,3.792133,-8.957867,3.861107,-8.995196,3.951227,
-8.995196,4.048773,-8.957867,4.138893,-8.888893,4.207867,-8.798773,4.245196,-8.750000,4.250000,7.750000,4.250000,7.750000,5.750000,-8.750000,5.750000,-8.798773,5.754804,-8.888893,5.792133,-8.957867,5.861107,-8.995196,5.951227,-8.995196,6.048773,-8.957867,6.138893,-8.888893,6.207867,-8.798773,6.245196,-8.750000,6.250000,7.750000,6.250000,7.750000,7.750000,-13.500000,7.750000,
-13.548773,7.754804,-13.638893,7.792133,-13.707867,7.861107,-13.745196,7.951227,-13.745196,8.048773,-13.707867,8.138893,-13.638893,8.207867,-13.548773,8.245196,-13.500000,8.250000,7.750000,8.250000,7.750000,9.750000,-13.500000,9.750000,-13.548773,9.754804,-13.638893,9.792133,-13.707867,9.861107,-13.745196,9.951227,-13.745196,10.048773,-13.707867,10.138893,-13.638893,10.207867,-13.548773,10.245196,
-13.500000,10.250000,7.750000,10.250000,7.750000,11.750000,-13.500000,11.750000,-13.548773,11.754804,-13.638893,11.792133,-13.707867,11.861107,-13.745196,11.951227,-13.745196,12.048773,-13.707867,12.138893,-13.638893,12.207867,-13.548773,12.245196,-13.500000,12.250000,7.750000,12.250000,7.750000,13.750000,-13.500000,13.750000,-13.548773,13.754804,-13.638893,13.792133,-13.707867,13.861107,-13.745196,13.951227,
-13.745196,14.048773,-13.707867,14.138893,-13.638893,14.207867,-13.548773,14.245196,-13.500000,14.250000,7.750000,14.250000,7.750000,15.750000,-13.500000,15.750000,-13.548773,15.754804,-13.638893,15.792133,-13.707867,15.861107,-13.745196,15.951227,-13.745196,16.048773,-13.707867,16.138893,-13.638893,16.207867,-13.548773,16.245196,-13.500000,16.250000,7.750000,16.250000,7.750000,17.750000,-13.500000,17.750000,
-13.548773,17.754804,-13.638893,17.792133,-13.707867,17.861107,-13.745196,17.951227,-13.745196,18.048773,-13.707867,18.138893,-13.638893,18.207867,-13.548773,18.245196,-13.500000,18.250000,7.750000,18.250000,7.750000,19.250000,7.753611,19.323513,7.782295,19.467714,7.838559,19.603548,7.920242,19.725795,8.024205,19.829758,8.146452,19.911441,8.282286,19.967705,8.426487,19.996389,8.573513,19.996389,
8.717714,19.967705,8.717714,19.967705,$1*%
%AMFreePoly5*
4,1,246,-13.032286,20.967705,-12.896452,20.911441,-12.774205,20.829758,-12.670242,20.725795,-12.588559,20.603548,-12.532295,20.467714,-12.503611,20.323513,-12.500000,20.250000,8.750000,20.250000,8.798773,20.245196,8.888893,20.207867,8.957867,20.138893,8.995196,20.048773,8.995196,19.951227,8.957867,19.861107,8.888893,19.792133,8.798773,19.754804,8.750000,19.750000,-12.500000,19.750000,-12.500000,18.250000,
8.750000,18.250000,8.798773,18.245196,8.888893,18.207867,8.957867,18.138893,8.995196,18.048773,8.995196,17.951227,8.957867,17.861107,8.888893,17.792133,8.798773,17.754804,8.750000,17.750000,-12.500000,17.750000,-12.500000,16.250000,8.750000,16.250000,8.798773,16.245196,8.888893,16.207867,8.957867,16.138893,8.995196,16.048773,8.995196,15.951227,8.957867,15.861107,8.888893,15.792133,
8.798773,15.754804,8.750000,15.750000,-12.500000,15.750000,-12.500000,14.250000,8.750000,14.250000,8.798773,14.245196,8.888893,14.207867,8.957867,14.138893,8.995196,14.048773,8.995196,13.951227,8.957867,13.861107,8.888893,13.792133,8.798773,13.754804,8.750000,13.750000,-12.500000,13.750000,-12.500000,12.250000,8.750000,12.250000,8.798773,12.245196,8.888893,12.207867,8.957867,12.138893,
8.995196,12.048773,8.995196,11.951227,8.957867,11.861107,8.888893,11.792133,8.798773,11.754804,8.750000,11.750000,-12.500000,11.750000,-12.500000,10.250000,8.750000,10.250000,8.798773,10.245196,8.888893,10.207867,8.957867,10.138893,8.995196,10.048773,8.995196,9.951227,8.957867,9.861107,8.888893,9.792133,8.798773,9.754804,8.750000,9.750000,-12.500000,9.750000,-12.500000,8.250000,
8.750000,8.250000,8.798773,8.245196,8.888893,8.207867,8.957867,8.138893,8.995196,8.048773,8.995196,7.951227,8.957867,7.861107,8.888893,7.792133,8.798773,7.754804,8.750000,7.750000,-7.795668,7.750000,-7.782295,7.717714,-7.753611,7.573513,-7.750000,7.500000,-7.750000,6.250000,8.750000,6.250000,8.798773,6.245196,8.888893,6.207867,8.957867,6.138893,8.995196,6.048773,
8.995196,5.951227,8.957867,5.861107,8.888893,5.792133,8.798773,5.754804,8.750000,5.750000,-7.750000,5.750000,-7.750000,4.250000,8.750000,4.250000,8.798773,4.245196,8.888893,4.207867,8.957867,4.138893,8.995196,4.048773,8.995196,3.951227,8.957867,3.861107,8.888893,3.792133,8.798773,3.754804,8.750000,3.750000,-7.750000,3.750000,-7.750000,2.250000,8.750000,2.250000,
8.798773,2.245196,8.888893,2.207867,8.957867,2.138893,8.995196,2.048773,8.995196,1.951227,8.957867,1.861107,8.888893,1.792133,8.798773,1.754804,8.750000,1.750000,-7.750000,1.750000,-7.750000,0.200000,9.000000,0.200000,9.000000,-0.200000,-7.750000,-0.200000,-7.750000,-1.750000,8.750000,-1.750000,8.798773,-1.754804,8.888893,-1.792133,8.957867,-1.861107,8.995196,-1.951227,
8.995196,-2.048773,8.957867,-2.138893,8.888893,-2.207867,8.798773,-2.245196,8.750000,-2.250000,-7.750000,-2.250000,-7.750000,-3.750000,8.750000,-3.750000,8.798773,-3.754804,8.888893,-3.792133,8.957867,-3.861107,8.995196,-3.951227,8.995196,-4.048773,8.957867,-4.138893,8.888893,-4.207867,8.798773,-4.245196,8.750000,-4.250000,-7.750000,-4.250000,-7.750000,-5.750000,8.750000,-5.750000,
8.798773,-5.754804,8.888893,-5.792133,8.957867,-5.861107,8.995196,-5.951227,8.995196,-6.048773,8.957867,-6.138893,8.888893,-6.207867,8.798773,-6.245196,8.750000,-6.250000,-7.750000,-6.250000,-7.750000,-7.750000,8.750000,-7.750000,8.798773,-7.754804,8.888893,-7.792133,8.957867,-7.861107,8.995196,-7.951227,8.995196,-8.048773,8.957867,-8.138893,8.888893,-8.207867,8.798773,-8.245196,
8.750000,-8.250000,-7.750000,-8.250000,-7.750000,-9.750000,8.750000,-9.750000,8.798773,-9.754804,8.888893,-9.792133,8.957867,-9.861107,8.995196,-9.951227,8.995196,-10.048773,8.957867,-10.138893,8.888893,-10.207867,8.798773,-10.245196,8.750000,-10.250000,-7.750000,-10.250000,-7.750000,-11.750000,8.750000,-11.750000,8.798773,-11.754804,8.888893,-11.792133,8.957867,-11.861107,8.995196,-11.951227,
8.995196,-12.048773,8.957867,-12.138893,8.888893,-12.207867,8.798773,-12.245196,8.750000,-12.250000,-7.750000,-12.250000,-7.750000,-12.500000,-7.753611,-12.573513,-7.782295,-12.717714,-7.838559,-12.853548,-7.920242,-12.975795,-8.024205,-13.079758,-8.146452,-13.161441,-8.282286,-13.217705,-8.426487,-13.246389,-8.573513,-13.246389,-8.717714,-13.217705,-8.853548,-13.161441,-8.975795,-13.079758,-9.079758,-12.975795,
-9.161441,-12.853548,-9.217705,-12.717714,-9.246389,-12.573513,-9.250000,-12.500000,-9.250000,6.750000,-13.250000,6.750000,-13.323513,6.753611,-13.467714,6.782295,-13.603548,6.838559,-13.725795,6.920242,-13.829758,7.024205,-13.911441,7.146452,-13.967705,7.282286,-13.996389,7.426487,-14.000000,7.500000,-14.000000,20.250000,-13.996389,20.323513,-13.967705,20.467714,-13.911441,20.603548,-13.829758,20.725795,
-13.725795,20.829758,-13.603548,20.911441,-13.467714,20.967705,-13.323513,20.996389,-13.176487,20.996389,-13.032286,20.967705,-13.032286,20.967705,$1*%
%AMFreePoly6*
4,1,195,6.717714,27.967705,6.853548,27.911441,6.975795,27.829758,7.079758,27.725795,7.161441,27.603548,7.217705,27.467714,7.246389,27.323513,7.250000,27.250000,7.250000,0.000000,7.246389,-0.073513,7.217705,-0.217714,7.161441,-0.353548,7.079758,-0.475795,6.975795,-0.579758,6.853548,-0.661441,6.717714,-0.717705,6.573513,-0.746389,6.426487,-0.746389,6.282286,-0.717705,6.146452,-0.661441,
6.024205,-0.579758,5.920242,-0.475795,5.838559,-0.353548,5.782295,-0.217714,5.778771,-0.200000,-6.000000,-0.200000,-6.000000,0.200000,5.750000,0.200000,5.750000,1.800000,-5.750000,1.800000,-5.789018,1.803843,-5.861114,1.833706,-5.916294,1.888886,-5.946157,1.960982,-5.946157,2.039018,-5.916294,2.111114,-5.861114,2.166294,-5.789018,2.196157,-5.750000,2.200000,5.750000,2.200000,
5.750000,3.750000,-5.750000,3.750000,-5.798773,3.754804,-5.888893,3.792133,-5.957867,3.861107,-5.995196,3.951227,-5.995196,4.048773,-5.957867,4.138893,-5.888893,4.207867,-5.798773,4.245196,-5.750000,4.250000,5.750000,4.250000,5.750000,5.750000,-5.750000,5.750000,-5.798773,5.754804,-5.888893,5.792133,-5.957867,5.861107,-5.995196,5.951227,-5.995196,6.048773,-5.957867,6.138893,
-5.888893,6.207867,-5.798773,6.245196,-5.750000,6.250000,5.750000,6.250000,5.750000,7.750000,-5.750000,7.750000,-5.798773,7.754804,-5.888893,7.792133,-5.957867,7.861107,-5.995196,7.951227,-5.995196,8.048773,-5.957867,8.138893,-5.888893,8.207867,-5.798773,8.245196,-5.750000,8.250000,5.750000,8.250000,5.750000,9.750000,-5.750000,9.750000,-5.798773,9.754804,-5.888893,9.792133,
-5.957867,9.861107,-5.995196,9.951227,-5.995196,10.048773,-5.957867,10.138893,-5.888893,10.207867,-5.798773,10.245196,-5.750000,10.250000,5.750000,10.250000,5.750000,11.750000,-5.750000,11.750000,-5.798773,11.754804,-5.888893,11.792133,-5.957867,11.861107,-5.995196,11.951227,-5.995196,12.048773,-5.957867,12.138893,-5.888893,12.207867,-5.798773,12.245196,-5.750000,12.250000,5.750000,12.250000,
5.750000,13.800000,-5.750000,13.800000,-5.789018,13.803843,-5.861114,13.833706,-5.916294,13.888886,-5.946157,13.960982,-5.946157,14.039018,-5.916294,14.111114,-5.861114,14.166294,-5.789018,14.196157,-5.750000,14.200000,5.750000,14.200000,5.750000,15.750000,-5.750000,15.750000,-5.798773,15.754804,-5.888893,15.792133,-5.957867,15.861107,-5.995196,15.951227,-5.995196,16.048773,-5.957867,16.138893,
-5.888893,16.207867,-5.798773,16.245196,-5.750000,16.250000,5.750000,16.250000,5.750000,17.750000,-5.750000,17.750000,-5.798773,17.754804,-5.888893,17.792133,-5.957867,17.861107,-5.995196,17.951227,-5.995196,18.048773,-5.957867,18.138893,-5.888893,18.207867,-5.798773,18.245196,-5.750000,18.250000,5.750000,18.250000,5.750000,19.750000,-5.750000,19.750000,-5.798773,19.754804,-5.888893,19.792133,
-5.957867,19.861107,-5.995196,19.951227,-5.995196,20.048773,-5.957867,20.138893,-5.888893,20.207867,-5.798773,20.245196,-5.750000,20.250000,5.750000,20.250000,5.750000,21.750000,-5.750000,21.750000,-5.798773,21.754804,-5.888893,21.792133,-5.957867,21.861107,-5.995196,21.951227,-5.995196,22.048773,-5.957867,22.138893,-5.888893,22.207867,-5.798773,22.245196,-5.750000,22.250000,5.750000,22.250000,
5.750000,23.750000,-5.750000,23.750000,-5.798773,23.754804,-5.888893,23.792133,-5.957867,23.861107,-5.995196,23.951227,-5.995196,24.048773,-5.957867,24.138893,-5.888893,24.207867,-5.798773,24.245196,-5.750000,24.250000,5.750000,24.250000,5.750000,25.800000,-5.750000,25.800000,-5.789018,25.803843,-5.861114,25.833706,-5.916294,25.888886,-5.946157,25.960982,-5.946157,26.039018,-5.916294,26.111114,
-5.861114,26.166294,-5.789018,26.196157,-5.750000,26.200000,5.750000,26.200000,5.750000,27.250000,5.753611,27.323513,5.782295,27.467714,5.838559,27.603548,5.920242,27.725795,6.024205,27.829758,6.146452,27.911441,6.282286,27.967705,6.426487,27.996389,6.573513,27.996389,6.717714,27.967705,6.717714,27.967705,$1*%
%AMFreePoly7*
4,1,196,-6.532286,26.967705,-6.396452,26.911441,-6.274205,26.829758,-6.170242,26.725795,-6.088559,26.603548,-6.032295,26.467714,-6.003611,26.323513,-6.000000,26.250000,5.500000,26.250000,5.548773,26.245196,5.638893,26.207867,5.707867,26.138893,5.745196,26.048773,5.745196,25.951227,5.707867,25.861107,5.638893,25.792133,5.548773,25.754804,5.500000,25.750000,-6.000000,25.750000,-6.000000,24.250000,
5.500000,24.250000,5.548773,24.245196,5.638893,24.207867,5.707867,24.138893,5.745196,24.048773,5.745196,23.951227,5.707867,23.861107,5.638893,23.792133,5.548773,23.754804,5.500000,23.750000,-6.000000,23.750000,-6.000000,22.250000,5.500000,22.250000,5.548773,22.245196,5.638893,22.207867,5.707867,22.138893,5.745196,22.048773,5.745196,21.951227,5.707867,21.861107,5.638893,21.792133,
5.548773,21.754804,5.500000,21.750000,-6.000000,21.750000,-6.000000,20.250000,5.500000,20.250000,5.548773,20.245196,5.638893,20.207867,5.707867,20.138893,5.745196,20.048773,5.745196,19.951227,5.707867,19.861107,5.638893,19.792133,5.548773,19.754804,5.500000,19.750000,-6.000000,19.750000,-6.000000,18.250000,5.500000,18.250000,5.548773,18.245196,5.638893,18.207867,5.707867,18.138893,
5.745196,18.048773,5.745196,17.951227,5.707867,17.861107,5.638893,17.792133,5.548773,17.754804,5.500000,17.750000,-6.000000,17.750000,-6.000000,16.250000,5.500000,16.250000,5.548773,16.245196,5.638893,16.207867,5.707867,16.138893,5.745196,16.048773,5.745196,15.951227,5.707867,15.861107,5.638893,15.792133,5.548773,15.754804,5.500000,15.750000,-6.000000,15.750000,-6.000000,14.250000,
5.500000,14.250000,5.548773,14.245196,5.638893,14.207867,5.707867,14.138893,5.745196,14.048773,5.745196,13.951227,5.707867,13.861107,5.638893,13.792133,5.548773,13.754804,5.500000,13.750000,-6.000000,13.750000,-6.000000,12.250000,5.500000,12.250000,5.548773,12.245196,5.638893,12.207867,5.707867,12.138893,5.745196,12.048773,5.745196,11.951227,5.707867,11.861107,5.638893,11.792133,
5.548773,11.754804,5.500000,11.750000,-6.000000,11.750000,-6.000000,10.250000,5.500000,10.250000,5.548773,10.245196,5.638893,10.207867,5.707867,10.138893,5.745196,10.048773,5.745196,9.951227,5.707867,9.861107,5.638893,9.792133,5.548773,9.754804,5.500000,9.750000,-6.000000,9.750000,-6.000000,8.250000,5.500000,8.250000,5.548773,8.245196,5.638893,8.207867,5.707867,8.138893,
5.745196,8.048773,5.745196,7.951227,5.707867,7.861107,5.638893,7.792133,5.548773,7.754804,5.500000,7.750000,-6.000000,7.750000,-6.000000,6.250000,5.500000,6.250000,5.548773,6.245196,5.638893,6.207867,5.707867,6.138893,5.745196,6.048773,5.745196,5.951227,5.707867,5.861107,5.638893,5.792133,5.548773,5.754804,5.500000,5.750000,-6.000000,5.750000,-6.000000,4.250000,
5.500000,4.250000,5.548773,4.245196,5.638893,4.207867,5.707867,4.138893,5.745196,4.048773,5.745196,3.951227,5.707867,3.861107,5.638893,3.792133,5.548773,3.754804,5.500000,3.750000,-6.000000,3.750000,-6.000000,2.250000,5.500000,2.250000,5.548773,2.245196,5.638893,2.207867,5.707867,2.138893,5.745196,2.048773,5.745196,1.951227,5.707867,1.861107,5.638893,1.792133,
5.548773,1.754804,5.500000,1.750000,-6.000000,1.750000,-6.000000,0.200000,6.000000,0.200000,6.000000,-0.200000,-6.000000,-0.200000,-6.000000,-1.250000,-6.003611,-1.323513,-6.032295,-1.467714,-6.088559,-1.603548,-6.170242,-1.725795,-6.274205,-1.829758,-6.396452,-1.911441,-6.532286,-1.967705,-6.676487,-1.996389,-6.823513,-1.996389,-6.967714,-1.967705,-7.103548,-1.911441,-7.225795,-1.829758,
-7.329758,-1.725795,-7.411441,-1.603548,-7.467705,-1.467714,-7.496389,-1.323513,-7.500000,-1.250000,-7.500000,26.250000,-7.496389,26.323513,-7.467705,26.467714,-7.411441,26.603548,-7.329758,26.725795,-7.225795,26.829758,-7.103548,26.911441,-6.967714,26.967705,-6.823513,26.996389,-6.676487,26.996389,-6.532286,26.967705,-6.532286,26.967705,$1*%
%AMFreePoly8*
4,1,170,6.717714,22.967705,6.853548,22.911441,6.975795,22.829758,7.079758,22.725795,7.161441,22.603548,7.217705,22.467714,7.246389,22.323513,7.250000,22.250000,7.250000,0.000000,7.246389,-0.073513,7.217705,-0.217714,7.161441,-0.353548,7.079758,-0.475795,6.975795,-0.579758,6.853548,-0.661441,6.717714,-0.717705,6.573513,-0.746389,6.426487,-0.746389,6.282286,-0.717705,6.146452,-0.661441,
6.024205,-0.579758,5.920242,-0.475795,5.838559,-0.353548,5.782295,-0.217714,5.778771,-0.200000,-6.000000,-0.200000,-6.000000,0.200000,5.750000,0.200000,5.750000,1.800000,-5.750000,1.800000,-5.789018,1.803843,-5.861114,1.833706,-5.916294,1.888886,-5.946157,1.960982,-5.946157,2.039018,-5.916294,2.111114,-5.861114,2.166294,-5.789018,2.196157,-5.750000,2.200000,5.750000,2.200000,
5.750000,3.750000,-5.750000,3.750000,-5.798773,3.754804,-5.888893,3.792133,-5.957867,3.861107,-5.995196,3.951227,-5.995196,4.048773,-5.957867,4.138893,-5.888893,4.207867,-5.798773,4.245196,-5.750000,4.250000,5.750000,4.250000,5.750000,5.750000,-5.750000,5.750000,-5.798773,5.754804,-5.888893,5.792133,-5.957867,5.861107,-5.995196,5.951227,-5.995196,6.048773,-5.957867,6.138893,
-5.888893,6.207867,-5.798773,6.245196,-5.750000,6.250000,5.750000,6.250000,5.750000,7.750000,-5.750000,7.750000,-5.798773,7.754804,-5.888893,7.792133,-5.957867,7.861107,-5.995196,7.951227,-5.995196,8.048773,-5.957867,8.138893,-5.888893,8.207867,-5.798773,8.245196,-5.750000,8.250000,5.750000,8.250000,5.750000,9.750000,-5.750000,9.750000,-5.798773,9.754804,-5.888893,9.792133,
-5.957867,9.861107,-5.995196,9.951227,-5.995196,10.048773,-5.957867,10.138893,-5.888893,10.207867,-5.798773,10.245196,-5.750000,10.250000,5.750000,10.250000,5.750000,11.750000,-5.750000,11.750000,-5.798773,11.754804,-5.888893,11.792133,-5.957867,11.861107,-5.995196,11.951227,-5.995196,12.048773,-5.957867,12.138893,-5.888893,12.207867,-5.798773,12.245196,-5.750000,12.250000,5.750000,12.250000,
5.750000,13.800000,-5.750000,13.800000,-5.789018,13.803843,-5.861114,13.833706,-5.916294,13.888886,-5.946157,13.960982,-5.946157,14.039018,-5.916294,14.111114,-5.861114,14.166294,-5.789018,14.196157,-5.750000,14.200000,5.750000,14.200000,5.750000,15.750000,-5.750000,15.750000,-5.798773,15.754804,-5.888893,15.792133,-5.957867,15.861107,-5.995196,15.951227,-5.995196,16.048773,-5.957867,16.138893,
-5.888893,16.207867,-5.798773,16.245196,-5.750000,16.250000,5.750000,16.250000,5.750000,17.750000,-5.750000,17.750000,-5.798773,17.754804,-5.888893,17.792133,-5.957867,17.861107,-5.995196,17.951227,-5.995196,18.048773,-5.957867,18.138893,-5.888893,18.207867,-5.798773,18.245196,-5.750000,18.250000,5.750000,18.250000,5.750000,19.750000,-5.750000,19.750000,-5.798773,19.754804,-5.888893,19.792133,
-5.957867,19.861107,-5.995196,19.951227,-5.995196,20.048773,-5.957867,20.138893,-5.888893,20.207867,-5.798773,20.245196,-5.750000,20.250000,5.750000,20.250000,5.750000,21.750000,-5.750000,21.750000,-5.798773,21.754804,-5.888893,21.792133,-5.957867,21.861107,-5.995196,21.951227,-5.995196,22.048773,-5.957867,22.138893,-5.888893,22.207867,-5.798773,22.245196,-5.750000,22.250000,5.750000,22.250000,
5.753611,22.323513,5.782295,22.467714,5.838559,22.603548,5.920242,22.725795,6.024205,22.829758,6.146452,22.911441,6.282286,22.967705,6.426487,22.996389,6.573513,22.996389,6.717714,22.967705,6.717714,22.967705,$1*%
%AMFreePoly9*
4,1,161,-6.532286,21.967705,-6.396452,21.911441,-6.274205,21.829758,-6.170242,21.725795,-6.088559,21.603548,-6.032295,21.467714,-6.003611,21.323513,-6.000000,21.250000,-6.000000,20.250000,5.500000,20.250000,5.548773,20.245196,5.638893,20.207867,5.707867,20.138893,5.745196,20.048773,5.745196,19.951227,5.707867,19.861107,5.638893,19.792133,5.548773,19.754804,5.500000,19.750000,-6.000000,19.750000,
-6.000000,18.250000,5.500000,18.250000,5.548773,18.245196,5.638893,18.207867,5.707867,18.138893,5.745196,18.048773,5.745196,17.951227,5.707867,17.861107,5.638893,17.792133,5.548773,17.754804,5.500000,17.750000,-6.000000,17.750000,-6.000000,16.250000,5.500000,16.250000,5.548773,16.245196,5.638893,16.207867,5.707867,16.138893,5.745196,16.048773,5.745196,15.951227,5.707867,15.861107,
5.638893,15.792133,5.548773,15.754804,5.500000,15.750000,-6.000000,15.750000,-6.000000,14.250000,5.500000,14.250000,5.548773,14.245196,5.638893,14.207867,5.707867,14.138893,5.745196,14.048773,5.745196,13.951227,5.707867,13.861107,5.638893,13.792133,5.548773,13.754804,5.500000,13.750000,-6.000000,13.750000,-6.000000,12.250000,5.500000,12.250000,5.548773,12.245196,5.638893,12.207867,
5.707867,12.138893,5.745196,12.048773,5.745196,11.951227,5.707867,11.861107,5.638893,11.792133,5.548773,11.754804,5.500000,11.750000,-6.000000,11.750000,-6.000000,10.250000,5.500000,10.250000,5.548773,10.245196,5.638893,10.207867,5.707867,10.138893,5.745196,10.048773,5.745196,9.951227,5.707867,9.861107,5.638893,9.792133,5.548773,9.754804,5.500000,9.750000,-6.000000,9.750000,
-6.000000,8.250000,5.500000,8.250000,5.548773,8.245196,5.638893,8.207867,5.707867,8.138893,5.745196,8.048773,5.745196,7.951227,5.707867,7.861107,5.638893,7.792133,5.548773,7.754804,5.500000,7.750000,-6.000000,7.750000,-6.000000,6.250000,5.500000,6.250000,5.548773,6.245196,5.638893,6.207867,5.707867,6.138893,5.745196,6.048773,5.745196,5.951227,5.707867,5.861107,
5.638893,5.792133,5.548773,5.754804,5.500000,5.750000,-6.000000,5.750000,-6.000000,4.250000,5.500000,4.250000,5.548773,4.245196,5.638893,4.207867,5.707867,4.138893,5.745196,4.048773,5.745196,3.951227,5.707867,3.861107,5.638893,3.792133,5.548773,3.754804,5.500000,3.750000,-6.000000,3.750000,-6.000000,2.250000,5.500000,2.250000,5.548773,2.245196,5.638893,2.207867,
5.707867,2.138893,5.745196,2.048773,5.745196,1.951227,5.707867,1.861107,5.638893,1.792133,5.548773,1.754804,5.500000,1.750000,-6.000000,1.750000,-6.000000,0.200000,6.000000,0.200000,6.000000,-0.200000,-6.000000,-0.200000,-6.000000,-1.250000,-6.003611,-1.323513,-6.032295,-1.467714,-6.088559,-1.603548,-6.170242,-1.725795,-6.274205,-1.829758,-6.396452,-1.911441,-6.532286,-1.967705,
-6.676487,-1.996389,-6.823513,-1.996389,-6.967714,-1.967705,-7.103548,-1.911441,-7.225795,-1.829758,-7.329758,-1.725795,-7.411441,-1.603548,-7.467705,-1.467714,-7.496389,-1.323513,-7.500000,-1.250000,-7.500000,21.250000,-7.496389,21.323513,-7.467705,21.467714,-7.411441,21.603548,-7.329758,21.725795,-7.225795,21.829758,-7.103548,21.911441,-6.967714,21.967705,-6.823513,21.996389,-6.676487,21.996389,
-6.532286,21.967705,-6.532286,21.967705,$1*%
%AMFreePoly10*
4,1,255,6.717714,37.967705,6.853548,37.911441,6.975795,37.829758,7.079758,37.725795,7.161441,37.603548,7.217705,37.467714,7.246389,37.323513,7.250000,37.250000,7.250000,0.000000,7.246389,-0.073513,7.217705,-0.217714,7.161441,-0.353548,7.079758,-0.475795,6.975795,-0.579758,6.853548,-0.661441,6.717714,-0.717705,6.573513,-0.746389,6.426487,-0.746389,6.282286,-0.717705,6.146452,-0.661441,
6.024205,-0.579758,5.920242,-0.475795,5.838559,-0.353548,5.782295,-0.217714,5.778771,-0.200000,-6.000000,-0.200000,-6.000000,0.200000,5.750000,0.200000,5.750000,1.750000,-5.750000,1.750000,-5.798773,1.754804,-5.888893,1.792133,-5.957867,1.861107,-5.995196,1.951227,-5.995196,2.048773,-5.957867,2.138893,-5.888893,2.207867,-5.798773,2.245196,-5.750000,2.250000,5.750000,2.250000,
5.750000,3.750000,-5.750000,3.750000,-5.798773,3.754804,-5.888893,3.792133,-5.957867,3.861107,-5.995196,3.951227,-5.995196,4.048773,-5.957867,4.138893,-5.888893,4.207867,-5.798773,4.245196,-5.750000,4.250000,5.750000,4.250000,5.750000,5.750000,-5.750000,5.750000,-5.798773,5.754804,-5.888893,5.792133,-5.957867,5.861107,-5.995196,5.951227,-5.995196,6.048773,-5.957867,6.138893,
-5.888893,6.207867,-5.798773,6.245196,-5.750000,6.250000,5.750000,6.250000,5.750000,7.750000,-5.750000,7.750000,-5.798773,7.754804,-5.888893,7.792133,-5.957867,7.861107,-5.995196,7.951227,-5.995196,8.048773,-5.957867,8.138893,-5.888893,8.207867,-5.798773,8.245196,-5.750000,8.250000,5.750000,8.250000,5.750000,9.750000,-5.750000,9.750000,-5.798773,9.754804,-5.888893,9.792133,
-5.957867,9.861107,-5.995196,9.951227,-5.995196,10.048773,-5.957867,10.138893,-5.888893,10.207867,-5.798773,10.245196,-5.750000,10.250000,5.750000,10.250000,5.750000,11.750000,-5.750000,11.750000,-5.798773,11.754804,-5.888893,11.792133,-5.957867,11.861107,-5.995196,11.951227,-5.995196,12.048773,-5.957867,12.138893,-5.888893,12.207867,-5.798773,12.245196,-5.750000,12.250000,5.750000,12.250000,
5.750000,13.750000,-5.750000,13.750000,-5.798773,13.754804,-5.888893,13.792133,-5.957867,13.861107,-5.995196,13.951227,-5.995196,14.048773,-5.957867,14.138893,-5.888893,14.207867,-5.798773,14.245196,-5.750000,14.250000,5.750000,14.250000,5.750000,15.750000,-5.750000,15.750000,-5.798773,15.754804,-5.888893,15.792133,-5.957867,15.861107,-5.995196,15.951227,-5.995196,16.048773,-5.957867,16.138893,
-5.888893,16.207867,-5.798773,16.245196,-5.750000,16.250000,5.750000,16.250000,5.750000,17.750000,-5.750000,17.750000,-5.798773,17.754804,-5.888893,17.792133,-5.957867,17.861107,-5.995196,17.951227,-5.995196,18.048773,-5.957867,18.138893,-5.888893,18.207867,-5.798773,18.245196,-5.750000,18.250000,5.750000,18.250000,5.750000,19.750000,-5.750000,19.750000,-5.798773,19.754804,-5.888893,19.792133,
-5.957867,19.861107,-5.995196,19.951227,-5.995196,20.048773,-5.957867,20.138893,-5.888893,20.207867,-5.798773,20.245196,-5.750000,20.250000,5.750000,20.250000,5.750000,21.750000,-5.750000,21.750000,-5.798773,21.754804,-5.888893,21.792133,-5.957867,21.861107,-5.995196,21.951227,-5.995196,22.048773,-5.957867,22.138893,-5.888893,22.207867,-5.798773,22.245196,-5.750000,22.250000,5.750000,22.250000,
5.750000,23.750000,-5.750000,23.750000,-5.798773,23.754804,-5.888893,23.792133,-5.957867,23.861107,-5.995196,23.951227,-5.995196,24.048773,-5.957867,24.138893,-5.888893,24.207867,-5.798773,24.245196,-5.750000,24.250000,5.750000,24.250000,5.750000,25.750000,-5.750000,25.750000,-5.798773,25.754804,-5.888893,25.792133,-5.957867,25.861107,-5.995196,25.951227,-5.995196,26.048773,-5.957867,26.138893,
-5.888893,26.207867,-5.798773,26.245196,-5.750000,26.250000,5.750000,26.250000,5.750000,27.750000,-5.750000,27.750000,-5.798773,27.754804,-5.888893,27.792133,-5.957867,27.861107,-5.995196,27.951227,-5.995196,28.048773,-5.957867,28.138893,-5.888893,28.207867,-5.798773,28.245196,-5.750000,28.250000,5.750000,28.250000,5.750000,29.750000,-5.750000,29.750000,-5.798773,29.754804,-5.888893,29.792133,
-5.957867,29.861107,-5.995196,29.951227,-5.995196,30.048773,-5.957867,30.138893,-5.888893,30.207867,-5.798773,30.245196,-5.750000,30.250000,5.750000,30.250000,5.750000,31.750000,-5.750000,31.750000,-5.798773,31.754804,-5.888893,31.792133,-5.957867,31.861107,-5.995196,31.951227,-5.995196,32.048773,-5.957867,32.138893,-5.888893,32.207867,-5.798773,32.245196,-5.750000,32.250000,5.750000,32.250000,
5.750000,33.750000,-5.750000,33.750000,-5.798773,33.754804,-5.888893,33.792133,-5.957867,33.861107,-5.995196,33.951227,-5.995196,34.048773,-5.957867,34.138893,-5.888893,34.207867,-5.798773,34.245196,-5.750000,34.250000,5.750000,34.250000,5.750000,35.750000,-5.750000,35.750000,-5.798773,35.754804,-5.888893,35.792133,-5.957867,35.861107,-5.995196,35.951227,-5.995196,36.048773,-5.957867,36.138893,
-5.888893,36.207867,-5.798773,36.245196,-5.750000,36.250000,5.750000,36.250000,5.750000,37.250000,5.753611,37.323513,5.782295,37.467714,5.838559,37.603548,5.920242,37.725795,6.024205,37.829758,6.146452,37.911441,6.282286,37.967705,6.426487,37.996389,6.573513,37.996389,6.717714,37.967705,6.717714,37.967705,$1*%
%AMFreePoly11*
4,1,256,-6.532286,36.967705,-6.396452,36.911441,-6.274205,36.829758,-6.170242,36.725795,-6.088559,36.603548,-6.032295,36.467714,-6.003611,36.323513,-6.000000,36.250000,5.500000,36.250000,5.548773,36.245196,5.638893,36.207867,5.707867,36.138893,5.745196,36.048773,5.745196,35.951227,5.707867,35.861107,5.638893,35.792133,5.548773,35.754804,5.500000,35.750000,-6.000000,35.750000,-6.000000,34.250000,
5.500000,34.250000,5.548773,34.245196,5.638893,34.207867,5.707867,34.138893,5.745196,34.048773,5.745196,33.951227,5.707867,33.861107,5.638893,33.792133,5.548773,33.754804,5.500000,33.750000,-6.000000,33.750000,-6.000000,32.250000,5.500000,32.250000,5.548773,32.245196,5.638893,32.207867,5.707867,32.138893,5.745196,32.048773,5.745196,31.951227,5.707867,31.861107,5.638893,31.792133,
5.548773,31.754804,5.500000,31.750000,-6.000000,31.750000,-6.000000,30.250000,5.500000,30.250000,5.548773,30.245196,5.638893,30.207867,5.707867,30.138893,5.745196,30.048773,5.745196,29.951227,5.707867,29.861107,5.638893,29.792133,5.548773,29.754804,5.500000,29.750000,-6.000000,29.750000,-6.000000,28.250000,5.500000,28.250000,5.548773,28.245196,5.638893,28.207867,5.707867,28.138893,
5.745196,28.048773,5.745196,27.951227,5.707867,27.861107,5.638893,27.792133,5.548773,27.754804,5.500000,27.750000,-6.000000,27.750000,-6.000000,26.250000,5.500000,26.250000,5.548773,26.245196,5.638893,26.207867,5.707867,26.138893,5.745196,26.048773,5.745196,25.951227,5.707867,25.861107,5.638893,25.792133,5.548773,25.754804,5.500000,25.750000,-6.000000,25.750000,-6.000000,24.250000,
5.500000,24.250000,5.548773,24.245196,5.638893,24.207867,5.707867,24.138893,5.745196,24.048773,5.745196,23.951227,5.707867,23.861107,5.638893,23.792133,5.548773,23.754804,5.500000,23.750000,-6.000000,23.750000,-6.000000,22.250000,5.500000,22.250000,5.548773,22.245196,5.638893,22.207867,5.707867,22.138893,5.745196,22.048773,5.745196,21.951227,5.707867,21.861107,5.638893,21.792133,
5.548773,21.754804,5.500000,21.750000,-6.000000,21.750000,-6.000000,20.250000,5.500000,20.250000,5.548773,20.245196,5.638893,20.207867,5.707867,20.138893,5.745196,20.048773,5.745196,19.951227,5.707867,19.861107,5.638893,19.792133,5.548773,19.754804,5.500000,19.750000,-6.000000,19.750000,-6.000000,18.250000,5.500000,18.250000,5.548773,18.245196,5.638893,18.207867,5.707867,18.138893,
5.745196,18.048773,5.745196,17.951227,5.707867,17.861107,5.638893,17.792133,5.548773,17.754804,5.500000,17.750000,-6.000000,17.750000,-6.000000,16.250000,5.500000,16.250000,5.548773,16.245196,5.638893,16.207867,5.707867,16.138893,5.745196,16.048773,5.745196,15.951227,5.707867,15.861107,5.638893,15.792133,5.548773,15.754804,5.500000,15.750000,-6.000000,15.750000,-6.000000,14.250000,
5.500000,14.250000,5.548773,14.245196,5.638893,14.207867,5.707867,14.138893,5.745196,14.048773,5.745196,13.951227,5.707867,13.861107,5.638893,13.792133,5.548773,13.754804,5.500000,13.750000,-6.000000,13.750000,-6.000000,12.250000,5.500000,12.250000,5.548773,12.245196,5.638893,12.207867,5.707867,12.138893,5.745196,12.048773,5.745196,11.951227,5.707867,11.861107,5.638893,11.792133,
5.548773,11.754804,5.500000,11.750000,-6.000000,11.750000,-6.000000,10.250000,5.500000,10.250000,5.548773,10.245196,5.638893,10.207867,5.707867,10.138893,5.745196,10.048773,5.745196,9.951227,5.707867,9.861107,5.638893,9.792133,5.548773,9.754804,5.500000,9.750000,-6.000000,9.750000,-6.000000,8.250000,5.500000,8.250000,5.548773,8.245196,5.638893,8.207867,5.707867,8.138893,
5.745196,8.048773,5.745196,7.951227,5.707867,7.861107,5.638893,7.792133,5.548773,7.754804,5.500000,7.750000,-6.000000,7.750000,-6.000000,6.250000,5.500000,6.250000,5.548773,6.245196,5.638893,6.207867,5.707867,6.138893,5.745196,6.048773,5.745196,5.951227,5.707867,5.861107,5.638893,5.792133,5.548773,5.754804,5.500000,5.750000,-6.000000,5.750000,-6.000000,4.250000,
5.500000,4.250000,5.548773,4.245196,5.638893,4.207867,5.707867,4.138893,5.745196,4.048773,5.745196,3.951227,5.707867,3.861107,5.638893,3.792133,5.548773,3.754804,5.500000,3.750000,-6.000000,3.750000,-6.000000,2.250000,5.500000,2.250000,5.548773,2.245196,5.638893,2.207867,5.707867,2.138893,5.745196,2.048773,5.745196,1.951227,5.707867,1.861107,5.638893,1.792133,
5.548773,1.754804,5.500000,1.750000,-6.000000,1.750000,-6.000000,0.200000,6.000000,0.200000,6.000000,-0.200000,-6.000000,-0.200000,-6.000000,-1.250000,-6.003611,-1.323513,-6.032295,-1.467714,-6.088559,-1.603548,-6.170242,-1.725795,-6.274205,-1.829758,-6.396452,-1.911441,-6.532286,-1.967705,-6.676487,-1.996389,-6.823513,-1.996389,-6.967714,-1.967705,-7.103548,-1.911441,-7.225795,-1.829758,
-7.329758,-1.725795,-7.411441,-1.603548,-7.467705,-1.467714,-7.496389,-1.323513,-7.500000,-1.250000,-7.500000,36.250000,-7.496389,36.323513,-7.467705,36.467714,-7.411441,36.603548,-7.329758,36.725795,-7.225795,36.829758,-7.103548,36.911441,-6.967714,36.967705,-6.823513,36.996389,-6.676487,36.996389,-6.532286,36.967705,-6.532286,36.967705,$1*%
G04 Aperture macros list end*
G04 #@! TA.AperFunction,SMDPad,CuDef*
%ADD10FreePoly0,0.000000*%
G04 #@! TD*
G04 #@! TA.AperFunction,SMDPad,CuDef*
%ADD11FreePoly1,0.000000*%
G04 #@! TD*
G04 #@! TA.AperFunction,SMDPad,CuDef*
%ADD12FreePoly2,90.000000*%
G04 #@! TD*
G04 #@! TA.AperFunction,SMDPad,CuDef*
%ADD13FreePoly3,90.000000*%
G04 #@! TD*
G04 #@! TA.AperFunction,SMDPad,CuDef*
%ADD14FreePoly4,0.000000*%
G04 #@! TD*
G04 #@! TA.AperFunction,SMDPad,CuDef*
%ADD15FreePoly5,0.000000*%
G04 #@! TD*
G04 #@! TA.AperFunction,SMDPad,CuDef*
%ADD16FreePoly6,270.000000*%
G04 #@! TD*
G04 #@! TA.AperFunction,SMDPad,CuDef*
%ADD17FreePoly7,270.000000*%
G04 #@! TD*
G04 #@! TA.AperFunction,SMDPad,CuDef*
%ADD18FreePoly8,270.000000*%
G04 #@! TD*
G04 #@! TA.AperFunction,SMDPad,CuDef*
%ADD19FreePoly9,270.000000*%
G04 #@! TD*
G04 #@! TA.AperFunction,SMDPad,CuDef*
%ADD20FreePoly10,270.000000*%
G04 #@! TD*
G04 #@! TA.AperFunction,SMDPad,CuDef*
%ADD21FreePoly11,270.000000*%
G04 #@! TD*
G04 #@! TA.AperFunction,ViaPad*
%ADD22C,0.800000*%
G04 #@! TD*
G04 #@! TA.AperFunction,Conductor*
%ADD23C,0.250000*%
G04 #@! TD*
G04 #@! TA.AperFunction,Conductor*
%ADD24C,1.500000*%
G04 #@! TD*
G04 APERTURE END LIST*
D10*
X78500000Y-103750000D03*
D11*
X79500000Y-104750000D03*
D10*
X97500000Y-103750000D03*
D11*
X98500000Y-104750000D03*
D10*
X344500000Y-103750000D03*
D11*
X345500000Y-104750000D03*
D10*
X273600000Y-160850000D03*
D11*
X274600000Y-161850000D03*
D10*
X302100000Y-141850000D03*
D11*
X303100000Y-142850000D03*
D10*
X307100000Y-179350000D03*
D11*
X308100000Y-180350000D03*
D10*
X254600000Y-160850000D03*
D11*
X255600000Y-161850000D03*
D10*
X292600000Y-160850000D03*
D11*
X293600000Y-161850000D03*
D10*
X98100000Y-179350000D03*
D11*
X99100000Y-180350000D03*
D10*
X326100000Y-179350000D03*
D11*
X327100000Y-180350000D03*
D10*
X235600000Y-160850000D03*
D11*
X236600000Y-161850000D03*
D10*
X288100000Y-179350000D03*
D11*
X289100000Y-180350000D03*
D10*
X79100000Y-179350000D03*
D11*
X80100000Y-180350000D03*
D10*
X136100000Y-179350000D03*
D11*
X137100000Y-180350000D03*
D10*
X216600000Y-160850000D03*
D11*
X217600000Y-161850000D03*
D10*
X197600000Y-160850000D03*
D11*
X198600000Y-161850000D03*
D10*
X117100000Y-179350000D03*
D11*
X118100000Y-180350000D03*
D10*
X345100000Y-179350000D03*
D11*
X346100000Y-180350000D03*
D12*
X275050000Y-185500000D03*
D13*
X274050000Y-186250000D03*
D10*
X345100000Y-160950000D03*
D11*
X346100000Y-161950000D03*
D14*
X343750000Y-141750000D03*
D15*
X342000000Y-142750000D03*
D16*
X305750000Y-167900000D03*
D17*
X306750000Y-167150000D03*
D16*
X72050000Y-148800000D03*
D17*
X73050000Y-148050000D03*
D18*
X72000000Y-130150000D03*
D19*
X73000000Y-129400000D03*
D20*
X72350000Y-168250000D03*
D21*
X73350000Y-167500000D03*
D10*
X283100000Y-141850000D03*
D11*
X284100000Y-142850000D03*
D10*
X297300000Y-122750000D03*
D11*
X298300000Y-123750000D03*
D10*
X245100000Y-141850000D03*
D11*
X246100000Y-142850000D03*
D10*
X264100000Y-141850000D03*
D11*
X265100000Y-142850000D03*
D10*
X321100000Y-141850000D03*
D11*
X322100000Y-142850000D03*
D10*
X240300000Y-122750000D03*
D11*
X241300000Y-123750000D03*
D10*
X150100000Y-141850000D03*
D11*
X151100000Y-142850000D03*
D10*
X140600000Y-160850000D03*
D11*
X141600000Y-161850000D03*
D10*
X306500000Y-103750000D03*
D11*
X307500000Y-104750000D03*
D10*
X112100000Y-141850000D03*
D11*
X113100000Y-142850000D03*
D10*
X154500000Y-103750000D03*
D11*
X155500000Y-104750000D03*
D10*
X221300000Y-122750000D03*
D11*
X222300000Y-123750000D03*
D10*
X316300000Y-122750000D03*
D11*
X317300000Y-123750000D03*
D10*
X131100000Y-141850000D03*
D11*
X132100000Y-142850000D03*
D10*
X188100000Y-141850000D03*
D11*
X189100000Y-142850000D03*
D10*
X268500000Y-103750000D03*
D11*
X269500000Y-104750000D03*
D10*
X325500000Y-103750000D03*
D11*
X326500000Y-104750000D03*
D10*
X211500000Y-103750000D03*
D11*
X212500000Y-104750000D03*
D10*
X135500000Y-103750000D03*
D11*
X136500000Y-104750000D03*
D10*
X207100000Y-141850000D03*
D11*
X208100000Y-142850000D03*
D10*
X107300000Y-122750000D03*
D11*
X108300000Y-123750000D03*
D10*
X202300000Y-122750000D03*
D11*
X203300000Y-123750000D03*
D10*
X192500000Y-103750000D03*
D11*
X193500000Y-104750000D03*
D10*
X145300000Y-122750000D03*
D11*
X146300000Y-123750000D03*
D10*
X278300000Y-122750000D03*
D11*
X279300000Y-123750000D03*
D10*
X226100000Y-141850000D03*
D11*
X227100000Y-142850000D03*
D10*
X121600000Y-160850000D03*
D11*
X122600000Y-161850000D03*
D10*
X169100000Y-141850000D03*
D11*
X170100000Y-142850000D03*
D10*
X126300000Y-122750000D03*
D11*
X127300000Y-123750000D03*
D10*
X287500000Y-103750000D03*
D11*
X288500000Y-104750000D03*
D10*
X178600000Y-160850000D03*
D11*
X179600000Y-161850000D03*
D10*
X164300000Y-122750000D03*
D11*
X165300000Y-123750000D03*
D10*
X249500000Y-103750000D03*
D11*
X250500000Y-104750000D03*
D10*
X116500000Y-103750000D03*
D11*
X117500000Y-104750000D03*
D10*
X173500000Y-103750000D03*
D11*
X174500000Y-104750000D03*
D10*
X159600000Y-160850000D03*
D11*
X160600000Y-161850000D03*
D10*
X230500000Y-103750000D03*
D11*
X231500000Y-104750000D03*
D10*
X183300000Y-122750000D03*
D11*
X184300000Y-123750000D03*
D10*
X259300000Y-122750000D03*
D11*
X260300000Y-123750000D03*
D22*
X204200000Y-158800000D03*
X202300000Y-121200000D03*
X198400000Y-159200000D03*
X338200000Y-98500000D03*
X295460000Y-97800000D03*
X199100000Y-142700000D03*
X338100000Y-102000000D03*
X203400000Y-118800000D03*
X206800000Y-158900000D03*
X295503600Y-91425825D03*
X297700000Y-117700000D03*
X217500000Y-151900000D03*
X300700000Y-101600000D03*
X336500000Y-179900000D03*
X160900000Y-140900000D03*
X161400000Y-175600000D03*
X335400000Y-118800000D03*
X220000000Y-175400000D03*
X156600000Y-119000000D03*
X220400000Y-137900000D03*
X297600000Y-138600000D03*
X160900000Y-137400000D03*
X301400000Y-96900000D03*
X290470000Y-96900000D03*
X156600000Y-121600000D03*
X290423600Y-91413600D03*
X122500000Y-154900000D03*
X270300000Y-122000000D03*
X285400000Y-118800000D03*
X277500000Y-137500000D03*
X307800000Y-123200000D03*
X309500000Y-119100000D03*
X270200000Y-118300000D03*
X265100000Y-176100000D03*
X109000000Y-102000000D03*
X279300000Y-176300000D03*
X268500000Y-176375000D03*
X279700000Y-194300000D03*
X285310000Y-91490000D03*
X110300000Y-137800000D03*
X125500000Y-175775000D03*
X117300000Y-121400000D03*
X280250000Y-91480000D03*
X69875000Y-179600000D03*
X312100000Y-145800000D03*
X303200000Y-177000000D03*
X280260000Y-95500000D03*
X303300000Y-157000000D03*
X70400000Y-118600000D03*
X306070000Y-96300000D03*
X336600000Y-99000000D03*
X336700000Y-161000000D03*
X184500000Y-158800000D03*
X177700000Y-119300000D03*
X292960000Y-100390000D03*
X179400000Y-142700000D03*
X232300000Y-120400000D03*
X187600000Y-158800000D03*
X240000000Y-100600000D03*
X177700000Y-121300000D03*
X336400000Y-101900000D03*
X175300000Y-138400000D03*
X179600000Y-159000000D03*
X292910000Y-98575000D03*
X292950000Y-91410000D03*
X317700000Y-191600000D03*
X287880000Y-91420000D03*
X241300000Y-140325000D03*
X142300000Y-118400000D03*
X222800000Y-139200000D03*
X143000000Y-139500000D03*
X149800000Y-159500000D03*
X287920000Y-101440000D03*
X210600000Y-139800000D03*
X319800000Y-196100000D03*
X242100000Y-101500000D03*
X241300000Y-194975000D03*
X242000000Y-138300000D03*
X277100000Y-178100000D03*
X274100000Y-155400000D03*
X101100000Y-137900000D03*
X255600000Y-141700000D03*
X282803600Y-91460000D03*
X103000000Y-176475000D03*
X91300000Y-118800000D03*
X261900000Y-96900000D03*
X257400000Y-137500000D03*
X147000000Y-179500000D03*
X292400000Y-138425000D03*
X149600000Y-175800000D03*
X282740000Y-96600000D03*
X102400000Y-144200000D03*
X288800000Y-135100000D03*
X95900000Y-126700000D03*
X260300000Y-102700000D03*
X274300000Y-119600000D03*
X72700000Y-157400000D03*
X108400000Y-195700000D03*
X246900000Y-156600000D03*
X277700000Y-91520000D03*
X73500000Y-176475000D03*
X72300000Y-138700000D03*
X246400000Y-173800000D03*
X75700000Y-178000000D03*
X277800000Y-157075000D03*
X108100000Y-179100000D03*
X246500000Y-195700000D03*
X322330000Y-91360000D03*
X323300000Y-157800000D03*
X276100000Y-120800000D03*
X317250000Y-91347775D03*
X326800000Y-121100000D03*
X328600000Y-137700000D03*
X330100000Y-142000000D03*
X239200000Y-117900000D03*
X278100000Y-116900000D03*
X237800000Y-121200000D03*
X296900000Y-156900000D03*
X288100000Y-125600000D03*
X317246000Y-119888000D03*
X316800000Y-158600000D03*
X220700000Y-116300000D03*
X312170000Y-91390575D03*
X228900000Y-140300000D03*
X292400000Y-155000000D03*
X220500000Y-121500000D03*
X230500000Y-135300000D03*
X230000000Y-158900000D03*
X289800000Y-158800000D03*
X225500000Y-119400000D03*
X89100000Y-179300000D03*
X114800000Y-120300000D03*
X114700000Y-139200000D03*
X88800000Y-158600000D03*
X307076400Y-91414175D03*
X308064000Y-99300000D03*
X225300000Y-99300000D03*
X114700000Y-158500000D03*
X319532000Y-119700000D03*
X70600000Y-195700000D03*
X319776400Y-91344175D03*
X70700000Y-158700000D03*
X127000000Y-196600000D03*
X287600000Y-176000000D03*
X127000000Y-191500000D03*
X286800000Y-197550000D03*
X295100000Y-118700000D03*
X324700000Y-137400000D03*
X314735400Y-91325175D03*
X304100000Y-162200000D03*
X334900000Y-104600000D03*
X334900000Y-100000000D03*
X314800000Y-100100000D03*
X325300000Y-158500000D03*
X295200000Y-121100000D03*
X304300000Y-176300000D03*
X316200000Y-176600000D03*
X216700000Y-154800000D03*
X106100000Y-196900000D03*
X297000000Y-196825000D03*
X218000000Y-196600000D03*
X297900000Y-178800000D03*
X119800000Y-196500000D03*
X107000000Y-193400000D03*
X119100000Y-157900000D03*
X309630000Y-91394175D03*
X124200000Y-95000000D03*
X143700000Y-94700000D03*
X161600000Y-101300000D03*
X304526400Y-91454175D03*
X105000000Y-94900000D03*
X86400000Y-94700000D03*
X105000000Y-101700000D03*
X199200000Y-93800000D03*
X161800000Y-94700000D03*
X143700000Y-101300000D03*
X181100000Y-94300000D03*
X124300000Y-101000000D03*
X199600000Y-100400000D03*
X86600000Y-101700000D03*
X180900000Y-101200000D03*
D23*
X208950000Y-103750000D02*
X208900000Y-103700000D01*
X195900000Y-121200000D02*
X195800000Y-121300000D01*
X206100000Y-97800000D02*
X205100000Y-98800000D01*
X224500000Y-97800000D02*
X206100000Y-97800000D01*
X195800000Y-121300000D02*
X195800000Y-123300000D01*
D24*
X295503600Y-39070000D02*
X295503600Y-91425825D01*
D23*
X295174175Y-91425825D02*
X295503600Y-91425825D01*
X196800000Y-121200000D02*
X195900000Y-121200000D01*
X351700000Y-120300000D02*
X352400000Y-121000000D01*
X338400000Y-103700000D02*
X338000000Y-104100000D01*
X338000000Y-104100000D02*
X338000000Y-118500000D01*
X202300000Y-121200000D02*
X196800000Y-121200000D01*
X198400000Y-159200000D02*
X198800000Y-158800000D01*
X186100000Y-99200000D02*
X186100000Y-104700000D01*
X338100000Y-102000000D02*
X338100000Y-104000000D01*
X343500000Y-103700000D02*
X338400000Y-103700000D01*
X224500000Y-97800000D02*
X337700000Y-97800000D01*
X208900000Y-103700000D02*
X205500000Y-103700000D01*
X211750000Y-103750000D02*
X208950000Y-103750000D01*
X338100000Y-98400000D02*
X338200000Y-98500000D01*
X209000000Y-161100000D02*
X210200000Y-161100000D01*
X199665685Y-142700000D02*
X200400000Y-142700000D01*
X204900000Y-104300000D02*
X204900000Y-118800000D01*
X198800000Y-158800000D02*
X204200000Y-158800000D01*
X295090000Y-91510000D02*
X295174175Y-91425825D01*
X352400000Y-121000000D02*
X352400000Y-123800000D01*
X204900000Y-118800000D02*
X203400000Y-118800000D01*
X206800000Y-158900000D02*
X209000000Y-161100000D01*
X224100000Y-98200000D02*
X224100000Y-105500000D01*
X343550000Y-103750000D02*
X343500000Y-103700000D01*
X187500000Y-97800000D02*
X186100000Y-99200000D01*
X199100000Y-142700000D02*
X199665685Y-142700000D01*
X338000000Y-118500000D02*
X339800000Y-120300000D01*
X206100000Y-97800000D02*
X187500000Y-97800000D01*
X205500000Y-103700000D02*
X204900000Y-104300000D01*
X339800000Y-120300000D02*
X351700000Y-120300000D01*
X344750000Y-103750000D02*
X343550000Y-103750000D01*
X337700000Y-97800000D02*
X338100000Y-98200000D01*
X338100000Y-98200000D02*
X338100000Y-98400000D01*
X224500000Y-97800000D02*
X224100000Y-98200000D01*
X205100000Y-98800000D02*
X205100000Y-106700000D01*
X308325001Y-118374999D02*
X307800000Y-118900000D01*
D24*
X290423600Y-91413600D02*
X290423600Y-39070000D01*
D23*
X169350000Y-141850000D02*
X162250000Y-141850000D01*
X218800000Y-151900000D02*
X217500000Y-151900000D01*
X345350000Y-179350000D02*
X338850000Y-179350000D01*
X300100000Y-118900000D02*
X300100000Y-118400000D01*
X300100000Y-118900000D02*
X298900000Y-118900000D01*
X300700000Y-101600000D02*
X299800000Y-102500000D01*
X297600000Y-138600000D02*
X297034315Y-138600000D01*
X243600000Y-138500000D02*
X242674999Y-137574999D01*
X164350000Y-122950000D02*
X157850000Y-122950000D01*
X161300000Y-140900000D02*
X160900000Y-140900000D01*
X220000000Y-141800000D02*
X219600000Y-142200000D01*
X334974999Y-118374999D02*
X332825001Y-118374999D01*
X219134315Y-175700000D02*
X173200000Y-175700000D01*
X253000000Y-138500000D02*
X252700000Y-138200000D01*
X296934315Y-138700000D02*
X293200000Y-138700000D01*
X160900000Y-137400000D02*
X158800000Y-137400000D01*
X219600000Y-151100000D02*
X218800000Y-151900000D01*
X173200000Y-175700000D02*
X172100000Y-174600000D01*
X219600000Y-142200000D02*
X219600000Y-151100000D01*
X242674999Y-137574999D02*
X241625001Y-137574999D01*
X157850000Y-122950000D02*
X156700000Y-121800000D01*
X223000000Y-141800000D02*
X220000000Y-141800000D01*
X164550000Y-122750000D02*
X164350000Y-122950000D01*
X158800000Y-137400000D02*
X157700000Y-136300000D01*
X253000000Y-138500000D02*
X243600000Y-138500000D01*
X298900000Y-118900000D02*
X297700000Y-117700000D01*
X149000000Y-119000000D02*
X147900000Y-117900000D01*
X147900000Y-117900000D02*
X147900000Y-117000000D01*
X223050000Y-141850000D02*
X223000000Y-141800000D01*
X253100000Y-138600000D02*
X253000000Y-138500000D01*
X299900000Y-118200000D02*
X299900000Y-116800000D01*
X293200000Y-138700000D02*
X292749999Y-139150001D01*
X275163590Y-138600000D02*
X253100000Y-138600000D01*
X241625001Y-137574999D02*
X241300000Y-137900000D01*
X171300000Y-175200000D02*
X172000000Y-174500000D01*
X156700000Y-121800000D02*
X156700000Y-121700000D01*
X307800000Y-118900000D02*
X300100000Y-118900000D01*
X226350000Y-141850000D02*
X223050000Y-141850000D01*
X252700000Y-138200000D02*
X252700000Y-135200000D01*
X156700000Y-121700000D02*
X156600000Y-121600000D01*
X335400000Y-118800000D02*
X334974999Y-118374999D01*
X332825001Y-118374999D02*
X332100000Y-119100000D01*
X220000000Y-175400000D02*
X219434315Y-175400000D01*
X292749999Y-139150001D02*
X291549999Y-139150001D01*
X332100000Y-119100000D02*
X331600000Y-118600000D01*
X331600000Y-118600000D02*
X331374999Y-118374999D01*
X171300000Y-175600000D02*
X171300000Y-175200000D01*
X275713591Y-139150001D02*
X275163590Y-138600000D01*
X241300000Y-137900000D02*
X220400000Y-137900000D01*
X300100000Y-118400000D02*
X299900000Y-118200000D01*
X297034315Y-138600000D02*
X296934315Y-138700000D01*
X338300000Y-179900000D02*
X336500000Y-179900000D01*
X338850000Y-179350000D02*
X338300000Y-179900000D01*
X290470000Y-96900000D02*
X301400000Y-96900000D01*
X219434315Y-175400000D02*
X219134315Y-175700000D01*
X331374999Y-118374999D02*
X308325001Y-118374999D01*
X161400000Y-175600000D02*
X171300000Y-175600000D01*
X291549999Y-139150001D02*
X275713591Y-139150001D01*
X162250000Y-141850000D02*
X161300000Y-140900000D01*
X299800000Y-102500000D02*
X299800000Y-104400000D01*
X156600000Y-119000000D02*
X149000000Y-119000000D01*
X277500000Y-137500000D02*
X272700000Y-137500000D01*
X264800000Y-176400000D02*
X265100000Y-176100000D01*
X281150010Y-194600000D02*
X299800000Y-194600000D01*
X115950000Y-103750000D02*
X115900000Y-103700000D01*
X151300000Y-176100000D02*
X151300000Y-176400000D01*
X227700000Y-176400000D02*
X228800000Y-175300000D01*
X307800000Y-123200000D02*
X309800000Y-123200000D01*
X150200000Y-175000000D02*
X151300000Y-176100000D01*
X110000000Y-103000000D02*
X109000000Y-102000000D01*
X227700000Y-176400000D02*
X264800000Y-176400000D01*
X123300000Y-154100000D02*
X124600000Y-154100000D01*
X133375000Y-175775000D02*
X145775000Y-175775000D01*
X280850010Y-194300000D02*
X281150010Y-194600000D01*
X122500000Y-154900000D02*
X123300000Y-154100000D01*
X151300000Y-176400000D02*
X227700000Y-176400000D01*
X270200000Y-118300000D02*
X274800000Y-118300000D01*
X309000000Y-119600000D02*
X309500000Y-119100000D01*
X134100000Y-175050000D02*
X134100000Y-173800000D01*
X126550000Y-122750000D02*
X118650000Y-122750000D01*
X148325000Y-175775000D02*
X149100000Y-175000000D01*
X271550000Y-122750000D02*
X270800000Y-122000000D01*
X125500000Y-175775000D02*
X133375000Y-175775000D01*
X270800000Y-122000000D02*
X270300000Y-122000000D01*
X120000000Y-136600000D02*
X120000000Y-135900000D01*
X145775000Y-175775000D02*
X148325000Y-175775000D01*
X149100000Y-175000000D02*
X150200000Y-175000000D01*
X300600000Y-193800000D02*
X300600000Y-192000000D01*
X118650000Y-122750000D02*
X117300000Y-121400000D01*
X285400000Y-118800000D02*
X285400000Y-119700000D01*
X115900000Y-103700000D02*
X110000000Y-103700000D01*
X133375000Y-175775000D02*
X134100000Y-175050000D01*
X228800000Y-175300000D02*
X228800000Y-174500000D01*
X272700000Y-137500000D02*
X271700000Y-136500000D01*
X294000000Y-119600000D02*
X309000000Y-119600000D01*
X279225000Y-176375000D02*
X279300000Y-176300000D01*
X274800000Y-118300000D02*
X276300000Y-119800000D01*
X276300000Y-119800000D02*
X293800000Y-119800000D01*
D24*
X285343600Y-39103600D02*
X285343600Y-91456400D01*
D23*
X293800000Y-119800000D02*
X294000000Y-119600000D01*
X268500000Y-176375000D02*
X279225000Y-176375000D01*
X110000000Y-103700000D02*
X110000000Y-103000000D01*
X278550000Y-122750000D02*
X271550000Y-122750000D01*
X116750000Y-103750000D02*
X115950000Y-103750000D01*
X279700000Y-194300000D02*
X280850010Y-194300000D01*
X299800000Y-194600000D02*
X300600000Y-193800000D01*
X271700000Y-136500000D02*
X271700000Y-135600000D01*
X305270000Y-95500000D02*
X280260000Y-95500000D01*
X78750000Y-103750000D02*
X74950000Y-103750000D01*
X314300000Y-157000000D02*
X314700000Y-156600000D01*
X71700000Y-179600000D02*
X72400000Y-180300000D01*
X303300000Y-157000000D02*
X314300000Y-157000000D01*
X303100000Y-177100000D02*
X306000000Y-177100000D01*
X285300000Y-177100000D02*
X286200000Y-176200000D01*
X266000000Y-177200000D02*
X266100000Y-177100000D01*
X74950000Y-103750000D02*
X74900000Y-103700000D01*
X319350000Y-141850000D02*
X319300000Y-141900000D01*
D24*
X280263600Y-91466400D02*
X280263600Y-39096400D01*
D23*
X128100000Y-177900000D02*
X129500000Y-179300000D01*
X266100000Y-177100000D02*
X280300000Y-177100000D01*
X69875000Y-179600000D02*
X71700000Y-179600000D01*
X71900000Y-104000000D02*
X71900000Y-118500000D01*
X69875000Y-179034315D02*
X71709315Y-177200000D01*
X314700000Y-156600000D02*
X314700000Y-155100000D01*
X71800000Y-118600000D02*
X70400000Y-118600000D01*
X306000000Y-177100000D02*
X306900000Y-176200000D01*
D24*
X280250000Y-91480000D02*
X280263600Y-91466400D01*
D23*
X127400000Y-177200000D02*
X266000000Y-177200000D01*
X266100000Y-177100000D02*
X266900000Y-176300000D01*
X286200000Y-176200000D02*
X286200000Y-173900000D01*
X306900000Y-174800000D02*
X306700000Y-174600000D01*
X303100000Y-177100000D02*
X303200000Y-177000000D01*
X281300000Y-178100000D02*
X281300000Y-180100000D01*
X266900000Y-176300000D02*
X266900000Y-174400000D01*
X306900000Y-176200000D02*
X306900000Y-174800000D01*
X314200000Y-141900000D02*
X312600000Y-143500000D01*
X312600000Y-143500000D02*
X312600000Y-145300000D01*
X321350000Y-141850000D02*
X319350000Y-141850000D01*
X74900000Y-103700000D02*
X72200000Y-103700000D01*
X280300000Y-177100000D02*
X281300000Y-178100000D01*
X312600000Y-145300000D02*
X312100000Y-145800000D01*
X127400000Y-177200000D02*
X128100000Y-177900000D01*
X280300000Y-177100000D02*
X285300000Y-177100000D01*
X314600000Y-141900000D02*
X314200000Y-141900000D01*
X306070000Y-96300000D02*
X305270000Y-95500000D01*
X71709315Y-177200000D02*
X127400000Y-177200000D01*
X69875000Y-179600000D02*
X69875000Y-179034315D01*
X285300000Y-177100000D02*
X303100000Y-177100000D01*
X319300000Y-141900000D02*
X314600000Y-141900000D01*
X72200000Y-103700000D02*
X71900000Y-104000000D01*
X71900000Y-118500000D02*
X71800000Y-118600000D01*
X190200000Y-158800000D02*
X190900000Y-159500000D01*
D24*
X292963600Y-91396400D02*
X292963600Y-39070000D01*
D23*
X215500000Y-120400000D02*
X214800000Y-121100000D01*
X318900000Y-102700000D02*
X319100000Y-102900000D01*
X210100000Y-137900000D02*
X212100000Y-135900000D01*
X213200000Y-130000000D02*
X214800000Y-130000000D01*
X191200000Y-138900000D02*
X192700000Y-137400000D01*
X177700000Y-121300000D02*
X176700000Y-122300000D01*
X240200000Y-100400000D02*
X240000000Y-100600000D01*
X176950000Y-122750000D02*
X176800000Y-122900000D01*
X198600000Y-137400000D02*
X199100000Y-137900000D01*
X176800000Y-138300000D02*
X175400000Y-138300000D01*
X319700000Y-101900000D02*
X318900000Y-102700000D01*
X167100000Y-103900000D02*
X167100000Y-119000000D01*
X176800000Y-138300000D02*
X177400000Y-138900000D01*
X292910000Y-98575000D02*
X336175000Y-98575000D01*
X338600000Y-161000000D02*
X336700000Y-161000000D01*
X175400000Y-138300000D02*
X175300000Y-138400000D01*
X212100000Y-131100000D02*
X213200000Y-130000000D01*
X167100000Y-119000000D02*
X177400000Y-119000000D01*
X233100000Y-121200000D02*
X232300000Y-120400000D01*
X212100000Y-135900000D02*
X212100000Y-131100000D01*
X183550000Y-122750000D02*
X176950000Y-122750000D01*
X345350000Y-160950000D02*
X338650000Y-160950000D01*
X173750000Y-103750000D02*
X167250000Y-103750000D01*
X233900000Y-122800000D02*
X233900000Y-122000000D01*
X238700000Y-122800000D02*
X233900000Y-122800000D01*
X176700000Y-122300000D02*
X176700000Y-122800000D01*
X184300000Y-159000000D02*
X184500000Y-158800000D01*
X238750000Y-122750000D02*
X238700000Y-122800000D01*
X240550000Y-122750000D02*
X238750000Y-122750000D01*
X233900000Y-122000000D02*
X233100000Y-121200000D01*
X190900000Y-159500000D02*
X190900000Y-162100000D01*
X214800000Y-121100000D02*
X214800000Y-123400000D01*
X338650000Y-160950000D02*
X338600000Y-161000000D01*
X199100000Y-137900000D02*
X210100000Y-137900000D01*
X187600000Y-158800000D02*
X190200000Y-158800000D01*
X336175000Y-98575000D02*
X336600000Y-99000000D01*
X292850000Y-100410000D02*
X292840000Y-100400000D01*
X177400000Y-138900000D02*
X191200000Y-138900000D01*
X219500000Y-120400000D02*
X215500000Y-120400000D01*
X167250000Y-103750000D02*
X167100000Y-103900000D01*
X319100000Y-102900000D02*
X319100000Y-103500000D01*
X179400000Y-142700000D02*
X181600000Y-142700000D01*
X232300000Y-120400000D02*
X219500000Y-120400000D01*
X336400000Y-101900000D02*
X319700000Y-101900000D01*
X292840000Y-100400000D02*
X240200000Y-100400000D01*
X192700000Y-137400000D02*
X198600000Y-137400000D01*
X177400000Y-119000000D02*
X177700000Y-119300000D01*
X179600000Y-159000000D02*
X184300000Y-159000000D01*
X176800000Y-122900000D02*
X176800000Y-138300000D01*
X281600000Y-101500000D02*
X243400000Y-101500000D01*
X239800000Y-140600000D02*
X238600000Y-141800000D01*
X317700000Y-191600000D02*
X319400000Y-189900000D01*
X281200000Y-101900000D02*
X281200000Y-104100000D01*
X242700000Y-102200000D02*
X242700000Y-104200000D01*
X281600000Y-101500000D02*
X281200000Y-101900000D01*
X240459315Y-140600000D02*
X239800000Y-140600000D01*
X241300000Y-194975000D02*
X275038590Y-194975000D01*
X139968596Y-139468596D02*
X138900000Y-138400000D01*
X242000000Y-138300000D02*
X241600000Y-138700000D01*
X143500000Y-139800000D02*
X143100000Y-139400000D01*
X143550000Y-141850000D02*
X143000000Y-141300000D01*
X130700000Y-118400000D02*
X129100000Y-116800000D01*
X152000000Y-159500000D02*
X153000000Y-160500000D01*
X223300000Y-138700000D02*
X222800000Y-139200000D01*
X243400000Y-101500000D02*
X242100000Y-101500000D01*
X243400000Y-101500000D02*
X242700000Y-102200000D01*
X276163590Y-196100000D02*
X319800000Y-196100000D01*
X287860000Y-101500000D02*
X281600000Y-101500000D01*
X287920000Y-101440000D02*
X287860000Y-101500000D01*
X143000000Y-141300000D02*
X143000000Y-139500000D01*
X240734315Y-140325000D02*
X240459315Y-140600000D01*
X275038590Y-194975000D02*
X276163590Y-196100000D01*
X138900000Y-138400000D02*
X138900000Y-135400000D01*
X153000000Y-160500000D02*
X153000000Y-161200000D01*
X149800000Y-159500000D02*
X152000000Y-159500000D01*
X241300000Y-140325000D02*
X240734315Y-140325000D01*
X210600000Y-139800000D02*
X143500000Y-139800000D01*
D24*
X287909000Y-91391000D02*
X287909000Y-39091000D01*
D23*
X150350000Y-141850000D02*
X143550000Y-141850000D01*
X142300000Y-118400000D02*
X130700000Y-118400000D01*
X241600000Y-138700000D02*
X223300000Y-138700000D01*
X142968596Y-139468596D02*
X143000000Y-139500000D01*
X139968596Y-139468596D02*
X142968596Y-139468596D01*
X105400000Y-144200000D02*
X105400000Y-142300000D01*
X103000000Y-176475000D02*
X103565685Y-176475000D01*
X107550000Y-122750000D02*
X101850000Y-122750000D01*
X114400000Y-176500000D02*
X148900000Y-176500000D01*
X289300000Y-134600000D02*
X291000000Y-134600000D01*
X271200000Y-137500000D02*
X257400000Y-137500000D01*
X148900000Y-179500000D02*
X149500000Y-178900000D01*
X259400000Y-156800000D02*
X258500000Y-156800000D01*
X291834315Y-138425000D02*
X291659315Y-138600000D01*
X101850000Y-122750000D02*
X101300000Y-123300000D01*
X105400000Y-144200000D02*
X105600000Y-144000000D01*
X114300000Y-176600000D02*
X114400000Y-176500000D01*
X105900000Y-141800000D02*
X112200000Y-141800000D01*
X289550010Y-138150010D02*
X277950010Y-138150010D01*
X262200000Y-96600000D02*
X261900000Y-96900000D01*
X262100000Y-103934315D02*
X262100000Y-104100000D01*
X100700000Y-126700000D02*
X100800000Y-126800000D01*
X257600000Y-155900000D02*
X257600000Y-154600000D01*
X275600000Y-185550000D02*
X275600000Y-184200000D01*
X260865685Y-102700000D02*
X262100000Y-103934315D01*
X101100000Y-124100000D02*
X101100000Y-137900000D01*
X91950000Y-103750000D02*
X91700000Y-104000000D01*
X276100000Y-179100000D02*
X277100000Y-178100000D01*
X105400000Y-142300000D02*
X105900000Y-141800000D01*
X97750000Y-103750000D02*
X91950000Y-103750000D01*
X272600020Y-156899980D02*
X259499980Y-156899980D01*
X274300000Y-119600000D02*
X262500000Y-119600000D01*
D24*
X282803600Y-91460000D02*
X282803600Y-39086400D01*
D23*
X255600000Y-141700000D02*
X257400000Y-141700000D01*
X91700000Y-104000000D02*
X91200000Y-104000000D01*
X103565685Y-176475000D02*
X103690685Y-176600000D01*
X148900000Y-176500000D02*
X149600000Y-175800000D01*
X292400000Y-138425000D02*
X291834315Y-138425000D01*
X262200000Y-119300000D02*
X262200000Y-114700000D01*
X260300000Y-102700000D02*
X260865685Y-102700000D01*
X101300000Y-123300000D02*
X101300000Y-123900000D01*
X290000000Y-138600000D02*
X289550010Y-138150010D01*
X291659315Y-138600000D02*
X290100000Y-138600000D01*
X115000000Y-175900000D02*
X115000000Y-173300000D01*
X277875019Y-138225001D02*
X275425001Y-138225001D01*
X259499980Y-156899980D02*
X259400000Y-156800000D01*
X271650010Y-137950010D02*
X271200000Y-137500000D01*
X102400000Y-144200000D02*
X105400000Y-144200000D01*
X103690685Y-176600000D02*
X114300000Y-176600000D01*
X258500000Y-156800000D02*
X257600000Y-155900000D01*
X275600000Y-184200000D02*
X275600000Y-179100000D01*
X101300000Y-123900000D02*
X101100000Y-124100000D01*
X114400000Y-176500000D02*
X115000000Y-175900000D01*
X262500000Y-119600000D02*
X262200000Y-119300000D01*
X282740000Y-96600000D02*
X262200000Y-96600000D01*
X91200000Y-118800000D02*
X91300000Y-118800000D01*
X275425001Y-138225001D02*
X275150010Y-137950010D01*
X274100000Y-155400000D02*
X272600020Y-156899980D01*
X95900000Y-126700000D02*
X100700000Y-126700000D01*
X275600000Y-179100000D02*
X276100000Y-179100000D01*
X147000000Y-179500000D02*
X148900000Y-179500000D01*
X290400000Y-138600000D02*
X290000000Y-138600000D01*
X91200000Y-104000000D02*
X91200000Y-118800000D01*
X275150010Y-137950010D02*
X271650010Y-137950010D01*
X277950010Y-138150010D02*
X277875019Y-138225001D01*
X288800000Y-135100000D02*
X289300000Y-134600000D01*
X72700000Y-157400000D02*
X72700000Y-155700000D01*
X247649990Y-157349990D02*
X274750010Y-157349990D01*
X72300000Y-136600000D02*
X72300000Y-138700000D01*
X72000000Y-132600000D02*
X72000000Y-136300000D01*
X90500000Y-178000000D02*
X91700000Y-179200000D01*
X72000000Y-130150000D02*
X72000000Y-130700000D01*
X294650010Y-157349990D02*
X295500000Y-156500000D01*
X72700000Y-155700000D02*
X73000000Y-155400000D01*
X110400000Y-178000000D02*
X109200000Y-178000000D01*
X110400000Y-178000000D02*
X110400000Y-179700000D01*
X247900000Y-172865685D02*
X247900000Y-172400000D01*
X274750010Y-157349990D02*
X276300000Y-155800000D01*
X72000000Y-136300000D02*
X72300000Y-136600000D01*
X277800000Y-157075000D02*
X277800000Y-157349990D01*
X274750010Y-157349990D02*
X294650010Y-157349990D01*
X109200000Y-178000000D02*
X108100000Y-179100000D01*
X108400000Y-195700000D02*
X246500000Y-195700000D01*
X246965685Y-173800000D02*
X247900000Y-172865685D01*
X91700000Y-179200000D02*
X91700000Y-180200000D01*
X246400000Y-173800000D02*
X246965685Y-173800000D01*
X90500000Y-178000000D02*
X110400000Y-178000000D01*
X246900000Y-156600000D02*
X247649990Y-157349990D01*
X72000000Y-130700000D02*
X72000000Y-132600000D01*
X276300000Y-155800000D02*
X276300000Y-155100000D01*
X75700000Y-178000000D02*
X90500000Y-178000000D01*
D24*
X277698200Y-91481800D02*
X277698200Y-39091800D01*
D23*
X73500000Y-175000000D02*
X73600000Y-174900000D01*
X73500000Y-176475000D02*
X73500000Y-175000000D01*
X295500000Y-156500000D02*
X295500000Y-155400000D01*
X262000000Y-159800000D02*
X262000000Y-161100000D01*
X321916400Y-91444175D02*
X322000575Y-91360000D01*
X281700000Y-157800000D02*
X281700000Y-158100000D01*
D24*
X322354000Y-25908000D02*
X322354000Y-91336000D01*
D23*
X255350000Y-161850000D02*
X256450000Y-161850000D01*
X225000000Y-157800000D02*
X206100000Y-157800000D01*
X263000000Y-157800000D02*
X262800000Y-157800000D01*
X322000575Y-91360000D02*
X322330000Y-91360000D01*
X255550000Y-162050000D02*
X255350000Y-161850000D01*
X186100000Y-158600000D02*
X186100000Y-160700000D01*
X255550000Y-162050000D02*
X261450000Y-162050000D01*
X148100000Y-158800000D02*
X148100000Y-160700000D01*
X323300000Y-157800000D02*
X281700000Y-157800000D01*
X129800000Y-157800000D02*
X129000000Y-158600000D01*
X262800000Y-157800000D02*
X262000000Y-158600000D01*
X167800000Y-157800000D02*
X167000000Y-158600000D01*
X186900000Y-157800000D02*
X167800000Y-157800000D01*
X274350000Y-161850000D02*
X281050000Y-161850000D01*
X149100000Y-157800000D02*
X148100000Y-158800000D01*
X167800000Y-157800000D02*
X149100000Y-157800000D01*
X256500000Y-161900000D02*
X257850000Y-161850000D01*
X281700000Y-157800000D02*
X263000000Y-157800000D01*
X281100000Y-161800000D02*
X281150000Y-161850000D01*
X149100000Y-157800000D02*
X129800000Y-157800000D01*
X281050000Y-161850000D02*
X281100000Y-161800000D01*
X205100000Y-158800000D02*
X205100000Y-161100000D01*
X263000000Y-157800000D02*
X225000000Y-157800000D01*
X206100000Y-157800000D02*
X205100000Y-158800000D01*
X206100000Y-157800000D02*
X186900000Y-157800000D01*
X225000000Y-157800000D02*
X224100000Y-158700000D01*
X129000000Y-158600000D02*
X129000000Y-161800000D01*
X262150000Y-161850000D02*
X255350000Y-161850000D01*
X262000000Y-158600000D02*
X262000000Y-159800000D01*
X256450000Y-161850000D02*
X256500000Y-161900000D01*
X167000000Y-158600000D02*
X167000000Y-161600000D01*
X224100000Y-158700000D02*
X224100000Y-161300000D01*
X274400000Y-161800000D02*
X274350000Y-161850000D01*
X186900000Y-157800000D02*
X186100000Y-158600000D01*
X281700000Y-158100000D02*
X281700000Y-163500000D01*
X281150000Y-161850000D02*
X281200000Y-161800000D01*
X238500000Y-120500000D02*
X237800000Y-121200000D01*
X238634315Y-117900000D02*
X237900000Y-117165685D01*
X299100000Y-120400000D02*
X298900000Y-120600000D01*
X286200000Y-120400000D02*
X285600000Y-121000000D01*
X329000000Y-142000000D02*
X328600000Y-142400000D01*
X302850000Y-142850000D02*
X305450000Y-142850000D01*
X309500000Y-142800000D02*
X309700000Y-142600000D01*
X309800000Y-143100000D02*
X309800000Y-154700000D01*
X276000000Y-120700000D02*
X276100000Y-120800000D01*
X302850000Y-142850000D02*
X302900000Y-142900000D01*
X240200000Y-117900000D02*
X240700000Y-118400000D01*
X317246000Y-119888000D02*
X318058001Y-120700001D01*
X312900000Y-120400000D02*
X299100000Y-120400000D01*
X309800000Y-154700000D02*
X311200000Y-156100000D01*
X297000000Y-156900000D02*
X296900000Y-156900000D01*
X330100000Y-142000000D02*
X329000000Y-142000000D01*
X247900000Y-120500000D02*
X247900000Y-123300000D01*
X240700000Y-118400000D02*
X255800000Y-118400000D01*
X305450000Y-142850000D02*
X305600000Y-143000000D01*
X313412000Y-119888000D02*
X312900000Y-120400000D01*
X318058001Y-120700001D02*
X326400001Y-120700001D01*
X276000000Y-120400000D02*
X266900000Y-120400000D01*
X303000000Y-142800000D02*
X309500000Y-142800000D01*
X309700000Y-142600000D02*
X309547879Y-142447879D01*
X276400000Y-116900000D02*
X276000000Y-116500000D01*
X317246000Y-119888000D02*
X313412000Y-119888000D01*
X298900000Y-120600000D02*
X298674999Y-120374999D01*
X298674999Y-120374999D02*
X294425001Y-120374999D01*
X278100000Y-116900000D02*
X276400000Y-116900000D01*
X309700000Y-143000000D02*
X309800000Y-143100000D01*
X297800000Y-156100000D02*
X297000000Y-156900000D01*
X288100000Y-125600000D02*
X285800000Y-123300000D01*
X294400000Y-120400000D02*
X286200000Y-120400000D01*
X326400001Y-120700001D02*
X326800000Y-121100000D01*
X266900000Y-120400000D02*
X266900000Y-122000000D01*
X247900000Y-120500000D02*
X238500000Y-120500000D01*
X239200000Y-117900000D02*
X238634315Y-117900000D01*
X294425001Y-120374999D02*
X294400000Y-120400000D01*
X309547879Y-142447879D02*
X309200000Y-142100000D01*
X305600000Y-143000000D02*
X309700000Y-143000000D01*
X276000000Y-120400000D02*
X276000000Y-120700000D01*
X255800000Y-118400000D02*
X256900000Y-117300000D01*
X285600000Y-121000000D02*
X285600000Y-123500000D01*
X311200000Y-156100000D02*
X297800000Y-156100000D01*
X286200000Y-120400000D02*
X276000000Y-120400000D01*
D24*
X317274000Y-91323775D02*
X317274000Y-25908000D01*
D23*
X266900000Y-120400000D02*
X248000000Y-120400000D01*
X237900000Y-117165685D02*
X237900000Y-116800000D01*
X239200000Y-117900000D02*
X240200000Y-117900000D01*
X266900000Y-122000000D02*
X267100000Y-122200000D01*
X248000000Y-120400000D02*
X247900000Y-120500000D01*
X302900000Y-142900000D02*
X303000000Y-142800000D01*
X220134315Y-116300000D02*
X219434315Y-115600000D01*
X228800000Y-122200000D02*
X228100000Y-121500000D01*
X242200000Y-159200000D02*
X242500000Y-159200000D01*
X304600000Y-158600000D02*
X299900000Y-158600000D01*
X253200000Y-139600000D02*
X252600000Y-140200000D01*
X273400000Y-140200000D02*
X272900000Y-139700000D01*
X290000000Y-139700000D02*
X288700000Y-139700000D01*
X243000000Y-159700000D02*
X243000000Y-160400000D01*
X316800000Y-158600000D02*
X304600000Y-158600000D01*
D24*
X312194000Y-25908000D02*
X312194000Y-91366575D01*
D23*
X290450000Y-142850000D02*
X290500000Y-142800000D01*
X271600000Y-140300000D02*
X271600000Y-142200000D01*
X228100000Y-121500000D02*
X220500000Y-121500000D01*
X228800000Y-123400000D02*
X228800000Y-122200000D01*
X292400000Y-155000000D02*
X291400000Y-155000000D01*
X290500000Y-140200000D02*
X290000000Y-139700000D01*
X290000000Y-158600000D02*
X289800000Y-158800000D01*
X288200000Y-140200000D02*
X273400000Y-140200000D01*
X242500000Y-159200000D02*
X243000000Y-159700000D01*
X234000000Y-139600000D02*
X229600000Y-139600000D01*
X233800000Y-139800000D02*
X233800000Y-141900000D01*
X229150000Y-123750000D02*
X228800000Y-123400000D01*
X288700000Y-139700000D02*
X288200000Y-140200000D01*
X272300000Y-139600000D02*
X253200000Y-139600000D01*
X241600000Y-159800000D02*
X242200000Y-159200000D01*
X219434315Y-115600000D02*
X218900000Y-115600000D01*
X299900000Y-158600000D02*
X299900000Y-160900000D01*
X252600000Y-140200000D02*
X252600000Y-142100000D01*
X272300000Y-139600000D02*
X271600000Y-140300000D01*
X230500000Y-135300000D02*
X228900000Y-135300000D01*
X230900000Y-159800000D02*
X241600000Y-159800000D01*
X283850000Y-142850000D02*
X290450000Y-142850000D01*
X291400000Y-155000000D02*
X290700000Y-154300000D01*
X222050000Y-123750000D02*
X229150000Y-123750000D01*
X220700000Y-116300000D02*
X220134315Y-116300000D01*
X272900000Y-139700000D02*
X272200000Y-139700000D01*
X230000000Y-158900000D02*
X230900000Y-159800000D01*
X228900000Y-135300000D02*
X228800000Y-135200000D01*
X234000000Y-139600000D02*
X233800000Y-139800000D01*
X299900000Y-158600000D02*
X290000000Y-158600000D01*
X290500000Y-142800000D02*
X290500000Y-140200000D01*
X229600000Y-139600000D02*
X228900000Y-140300000D01*
X253200000Y-139600000D02*
X234000000Y-139600000D01*
X132000000Y-120300000D02*
X151500000Y-120300000D01*
X209300000Y-120300000D02*
X209700000Y-120700000D01*
X151500000Y-120300000D02*
X151800000Y-120300000D01*
X97900000Y-140500000D02*
X97400000Y-141000000D01*
X114800000Y-122700000D02*
X114800000Y-120300000D01*
X132000000Y-120300000D02*
X132500000Y-120300000D01*
X151800000Y-120300000D02*
X152100000Y-120600000D01*
X133400000Y-121200000D02*
X133400000Y-122900000D01*
X151500000Y-120300000D02*
X171100000Y-120300000D01*
X114800000Y-120300000D02*
X132000000Y-120300000D01*
X98700000Y-139200000D02*
X97900000Y-140000000D01*
X190000000Y-120300000D02*
X190300000Y-120300000D01*
X190300000Y-120300000D02*
X190800000Y-120800000D01*
X209700000Y-120700000D02*
X209700000Y-122900000D01*
X114700000Y-139200000D02*
X98700000Y-139200000D01*
X152100000Y-122500000D02*
X152800000Y-123200000D01*
X89100000Y-179300000D02*
X89100000Y-179865685D01*
X171100000Y-120300000D02*
X190000000Y-120300000D01*
X113800000Y-123700000D02*
X114800000Y-122700000D01*
X88900000Y-158500000D02*
X88800000Y-158600000D01*
X171300000Y-120500000D02*
X171300000Y-122100000D01*
X171100000Y-120300000D02*
X171300000Y-120500000D01*
X97900000Y-140000000D02*
X97900000Y-140500000D01*
X86965685Y-182000000D02*
X86600000Y-182000000D01*
X89100000Y-179865685D02*
X86965685Y-182000000D01*
X210000000Y-119400000D02*
X209600000Y-119800000D01*
X190800000Y-120800000D02*
X190800000Y-122600000D01*
X108050000Y-123750000D02*
X110350000Y-123750000D01*
X114700000Y-158500000D02*
X88900000Y-158500000D01*
X132500000Y-120300000D02*
X133400000Y-121200000D01*
D24*
X307114000Y-91376575D02*
X307114000Y-25908000D01*
D23*
X190000000Y-120300000D02*
X209300000Y-120300000D01*
X110350000Y-123750000D02*
X110400000Y-123700000D01*
X225500000Y-119400000D02*
X210000000Y-119400000D01*
X152100000Y-120600000D02*
X152100000Y-122500000D01*
X110400000Y-123700000D02*
X113800000Y-123700000D01*
X209600000Y-119800000D02*
X209600000Y-124300000D01*
X308064000Y-99300000D02*
X225300000Y-99300000D01*
X143600000Y-180500000D02*
X143600000Y-194500000D01*
X333700000Y-193800000D02*
X333700000Y-194200000D01*
X70700000Y-158700000D02*
X72600000Y-160600000D01*
X136850000Y-180350000D02*
X136800000Y-180300000D01*
X352600000Y-179700000D02*
X351900000Y-180400000D01*
X333700000Y-194300000D02*
X332700000Y-195300000D01*
X274800000Y-194100000D02*
X274800000Y-193100000D01*
X326850000Y-180350000D02*
X333550000Y-180350000D01*
X333650000Y-180350000D02*
X333700000Y-180300000D01*
X137500000Y-180300000D02*
X143400000Y-180300000D01*
X136800000Y-180300000D02*
X137500000Y-180300000D01*
X334400000Y-157700000D02*
X352100000Y-157700000D01*
X315500000Y-195300000D02*
X276000000Y-195300000D01*
X326850000Y-180350000D02*
X333650000Y-180350000D01*
X352600000Y-158200000D02*
X352600000Y-161800000D01*
X333700000Y-180300000D02*
X333700000Y-193800000D01*
X332700000Y-195300000D02*
X315500000Y-195300000D01*
X72600000Y-160600000D02*
X73400000Y-160600000D01*
X351900000Y-180400000D02*
X345500000Y-180400000D01*
X328600000Y-119900000D02*
X328600000Y-124100000D01*
X146900000Y-194900000D02*
X148500000Y-193300000D01*
X351300000Y-195800000D02*
X352700000Y-194400000D01*
X276000000Y-195300000D02*
X274800000Y-194100000D01*
X333700000Y-193800000D02*
X333700000Y-194300000D01*
X335300000Y-195800000D02*
X351300000Y-195800000D01*
X345850000Y-161950000D02*
X346250000Y-161950000D01*
X314600000Y-194400000D02*
X314600000Y-188600000D01*
X352700000Y-194400000D02*
X352700000Y-185900000D01*
X319532000Y-119700000D02*
X328400000Y-119700000D01*
X71800000Y-194500000D02*
X70600000Y-195700000D01*
D24*
X319814000Y-91306575D02*
X319814000Y-25908000D01*
D23*
X333550000Y-180350000D02*
X333600000Y-180400000D01*
X352100000Y-157700000D02*
X352600000Y-158200000D01*
X144000000Y-194900000D02*
X146900000Y-194900000D01*
X333550000Y-142750000D02*
X333600000Y-142800000D01*
X333600000Y-142800000D02*
X333600000Y-156900000D01*
X148500000Y-193300000D02*
X149300000Y-193300000D01*
X333700000Y-194200000D02*
X335300000Y-195800000D01*
X346250000Y-161950000D02*
X346300000Y-162000000D01*
X143600000Y-194500000D02*
X71800000Y-194500000D01*
X342000000Y-142750000D02*
X333550000Y-142750000D01*
X346300000Y-162000000D02*
X352500000Y-162000000D01*
X352600000Y-162100000D02*
X352600000Y-179700000D01*
X328400000Y-119700000D02*
X328600000Y-119900000D01*
X143600000Y-194500000D02*
X144000000Y-194900000D01*
X143400000Y-180300000D02*
X143600000Y-180500000D01*
X352500000Y-162000000D02*
X352600000Y-162100000D01*
X333600000Y-156900000D02*
X334400000Y-157700000D01*
X315500000Y-195300000D02*
X314600000Y-194400000D01*
X127300000Y-196150010D02*
X127300000Y-196300000D01*
X304300000Y-176300000D02*
X303900001Y-175900001D01*
X303900001Y-175900001D02*
X301899999Y-175900001D01*
X312500000Y-121100000D02*
X313000000Y-121600000D01*
X125100000Y-191500000D02*
X124900000Y-191300000D01*
X306000000Y-160500000D02*
X304000000Y-160500000D01*
X286800000Y-197550000D02*
X286234315Y-197550000D01*
X244563610Y-196600020D02*
X219599980Y-196600020D01*
X295100000Y-105000000D02*
X295100000Y-118700000D01*
X248936410Y-196100000D02*
X248161399Y-196875011D01*
X325300000Y-160100000D02*
X325400000Y-160200000D01*
X281175010Y-197275010D02*
X275638600Y-197275010D01*
X281200000Y-197300000D02*
X281175010Y-197275010D01*
X352000000Y-101900000D02*
X350900000Y-100800000D01*
X289500000Y-104800000D02*
X294900000Y-104800000D01*
X345250000Y-104750000D02*
X346150000Y-104750000D01*
X306800000Y-161300000D02*
X306000000Y-160500000D01*
X323300000Y-121500000D02*
X324000000Y-122200000D01*
X314800000Y-100100000D02*
X314800000Y-100800000D01*
X352000000Y-102100000D02*
X352000000Y-101900000D01*
X248161399Y-196875011D02*
X244838600Y-196875010D01*
X218874999Y-197325001D02*
X217525001Y-197325001D01*
X319500000Y-123700000D02*
X323500000Y-123700000D01*
X323900000Y-124100000D02*
X323900000Y-136600000D01*
X216300000Y-196200000D02*
X216250010Y-196150010D01*
X322500000Y-121600000D02*
X322600000Y-121500000D01*
X268700000Y-196100000D02*
X248936410Y-196100000D01*
X326450000Y-104550000D02*
X332650000Y-104550000D01*
X127000000Y-191500000D02*
X125100000Y-191500000D01*
X286234315Y-197550000D02*
X285984315Y-197300000D01*
X219599980Y-196600020D02*
X218874999Y-197325001D01*
X216400000Y-196300000D02*
X216300000Y-196200000D01*
X275638600Y-197275010D02*
X274363590Y-196000000D01*
X317050000Y-123750000D02*
X319450000Y-123750000D01*
X346200000Y-104700000D02*
X351700000Y-104700000D01*
X313900000Y-101800000D02*
X313900000Y-103400000D01*
X217525001Y-197325001D02*
X216500000Y-196300000D01*
X216250010Y-196150010D02*
X149200000Y-196150010D01*
X295200000Y-121100000D02*
X303900000Y-121100000D01*
X322600000Y-121500000D02*
X323300000Y-121500000D01*
X334000000Y-100800000D02*
X314900000Y-100800000D01*
X314900000Y-100800000D02*
X295600000Y-100800000D01*
X303900000Y-121100000D02*
X304800000Y-122000000D01*
X332700000Y-104600000D02*
X334900000Y-104600000D01*
X306750000Y-163450000D02*
X306800000Y-163400000D01*
X325300000Y-158500000D02*
X325300000Y-160100000D01*
X326250000Y-104750000D02*
X326450000Y-104550000D01*
X289450000Y-104750000D02*
X289500000Y-104800000D01*
X324000000Y-122200000D02*
X324000000Y-122700000D01*
X294900000Y-104800000D02*
X295100000Y-105000000D01*
X304800000Y-122000000D02*
X304800000Y-122300000D01*
X351700000Y-104700000D02*
X352000000Y-104400000D01*
X346150000Y-104750000D02*
X346200000Y-104700000D01*
X314900000Y-100800000D02*
X313900000Y-101800000D01*
X301800000Y-176000000D02*
X287600000Y-176000000D01*
X313000000Y-121600000D02*
X322500000Y-121600000D01*
X332650000Y-104550000D02*
X332700000Y-104600000D01*
X295600000Y-100800000D02*
X295000000Y-101400000D01*
X216500000Y-196300000D02*
X216400000Y-196300000D01*
X301899999Y-175900001D02*
X301800000Y-176000000D01*
X304000000Y-162100000D02*
X304100000Y-162200000D01*
X352000000Y-104400000D02*
X352000000Y-102100000D01*
X304000000Y-160500000D02*
X304000000Y-162100000D01*
X274363590Y-196000000D02*
X268800000Y-196000000D01*
X323500000Y-123700000D02*
X323900000Y-124100000D01*
X334900000Y-100000000D02*
X334900000Y-100700000D01*
X149200000Y-196150010D02*
X127300000Y-196150010D01*
X319450000Y-123750000D02*
X319500000Y-123700000D01*
D24*
X314759400Y-91301175D02*
X314759400Y-25933400D01*
D23*
X244838600Y-196875010D02*
X244563610Y-196600020D01*
X303900000Y-121100000D02*
X312500000Y-121100000D01*
X306750000Y-167150000D02*
X306750000Y-163450000D01*
X288250000Y-104750000D02*
X289450000Y-104750000D01*
X350900000Y-100800000D02*
X334000000Y-100800000D01*
X285984315Y-197300000D02*
X281200000Y-197300000D01*
X306800000Y-163400000D02*
X306800000Y-161300000D01*
X127300000Y-196300000D02*
X127000000Y-196600000D01*
X295000000Y-101400000D02*
X295000000Y-103600000D01*
X268800000Y-196000000D02*
X268700000Y-196100000D01*
X323900000Y-136600000D02*
X324700000Y-137400000D01*
X316200000Y-176600000D02*
X309500000Y-176600000D01*
X176400000Y-155900000D02*
X176400000Y-154400000D01*
X112850000Y-142850000D02*
X117550000Y-142850000D01*
X177200000Y-156700000D02*
X158300000Y-156700000D01*
X119650000Y-142850000D02*
X120100000Y-143300000D01*
X196400000Y-156900000D02*
X195800000Y-156300000D01*
X214300000Y-156900000D02*
X196400000Y-156900000D01*
X214600000Y-156600000D02*
X214300000Y-156900000D01*
D24*
X309654000Y-91370175D02*
X309654000Y-25908000D01*
D23*
X157600000Y-156000000D02*
X157700000Y-155900000D01*
X120100000Y-156900000D02*
X119100000Y-157900000D01*
X275700000Y-196461420D02*
X275461420Y-196461420D01*
X214600000Y-143100000D02*
X214600000Y-156600000D01*
X110000000Y-196900000D02*
X106200000Y-196900000D01*
X274500000Y-195500000D02*
X248900000Y-195500000D01*
X296150000Y-177650000D02*
X295400000Y-178400000D01*
X296249990Y-177550010D02*
X296150000Y-177650000D01*
X248900000Y-195500000D02*
X247974999Y-196425001D01*
X139600000Y-156700000D02*
X120200000Y-156700000D01*
X296750000Y-177650000D02*
X297900000Y-178800000D01*
X158300000Y-156700000D02*
X157600000Y-156000000D01*
X297000000Y-196825000D02*
X276063580Y-196825000D01*
X214350000Y-142850000D02*
X214600000Y-143100000D01*
X216700000Y-154800000D02*
X214900000Y-154800000D01*
X295400000Y-178400000D02*
X295400000Y-179600000D01*
X214900000Y-154800000D02*
X214700000Y-155000000D01*
X177200000Y-156700000D02*
X176400000Y-155900000D01*
X247974999Y-196425001D02*
X245025001Y-196425001D01*
X139600000Y-156700000D02*
X138500000Y-155600000D01*
X158300000Y-156700000D02*
X139600000Y-156700000D01*
X107000000Y-193400000D02*
X105700000Y-192100000D01*
X187600000Y-156900000D02*
X187500000Y-156800000D01*
X308300000Y-177800000D02*
X300200000Y-177800000D01*
X138500000Y-155600000D02*
X138500000Y-154300000D01*
X245025001Y-196425001D02*
X244750010Y-196150010D01*
X299950010Y-177550010D02*
X296249990Y-177550010D01*
X120100000Y-143300000D02*
X120100000Y-156900000D01*
X106200000Y-196900000D02*
X106100000Y-196900000D01*
X110400000Y-196500000D02*
X110000000Y-196900000D01*
X120200000Y-156700000D02*
X119000000Y-157900000D01*
X112850000Y-142850000D02*
X119650000Y-142850000D01*
X309500000Y-176600000D02*
X308300000Y-177800000D01*
X195800000Y-155500000D02*
X195400000Y-155100000D01*
X195800000Y-156300000D02*
X195800000Y-155500000D01*
X244750010Y-196150010D02*
X218449990Y-196150010D01*
X196400000Y-156900000D02*
X187600000Y-156900000D01*
X119800000Y-196500000D02*
X110400000Y-196500000D01*
X218449990Y-196150010D02*
X218000000Y-196600000D01*
X275461420Y-196461420D02*
X274500000Y-195500000D01*
X276063580Y-196825000D02*
X275700000Y-196461420D01*
X177300000Y-156800000D02*
X177200000Y-156700000D01*
X187500000Y-156800000D02*
X177300000Y-156800000D01*
X296150000Y-177650000D02*
X296750000Y-177650000D01*
X207850000Y-142850000D02*
X214350000Y-142850000D01*
X157700000Y-155900000D02*
X157700000Y-154600000D01*
X300200000Y-177800000D02*
X299950010Y-177550010D01*
X143700000Y-101300000D02*
X143700000Y-103000000D01*
X124300000Y-101565685D02*
X124100000Y-101765685D01*
X105000000Y-94900000D02*
X86600000Y-94900000D01*
X161600000Y-101300000D02*
X161600000Y-104100000D01*
X180900000Y-101200000D02*
X180900000Y-103900000D01*
X199600000Y-103500000D02*
X200000000Y-103900000D01*
X105399999Y-102099999D02*
X105399999Y-104100001D01*
X85750000Y-104750000D02*
X85800000Y-104800000D01*
X162200000Y-94300000D02*
X161800000Y-94700000D01*
D24*
X304548600Y-91431975D02*
X304548600Y-25933400D01*
D23*
X79250000Y-104750000D02*
X85750000Y-104750000D01*
X124500000Y-94700000D02*
X124200000Y-95000000D01*
X105100000Y-95000000D02*
X105000000Y-94900000D01*
X86600000Y-103800000D02*
X86300000Y-104100000D01*
X181600000Y-93800000D02*
X181100000Y-94300000D01*
X199600000Y-100400000D02*
X199600000Y-103500000D01*
X181100000Y-94300000D02*
X162200000Y-94300000D01*
X301880575Y-94100000D02*
X304520600Y-91459975D01*
X85800000Y-118600000D02*
X85900000Y-118700000D01*
X143700000Y-103000000D02*
X143000000Y-103700000D01*
X105000000Y-101700000D02*
X105399999Y-102099999D01*
X86600000Y-94900000D02*
X86400000Y-94700000D01*
X199200000Y-93800000D02*
X181600000Y-93800000D01*
X85900000Y-118700000D02*
X85900000Y-122500000D01*
X124100000Y-101765685D02*
X124100000Y-104000000D01*
X86600000Y-101700000D02*
X86600000Y-103800000D01*
X199500000Y-94100000D02*
X301880575Y-94100000D01*
X124200000Y-95000000D02*
X105100000Y-95000000D01*
X161800000Y-94700000D02*
X143700000Y-94700000D01*
X180900000Y-103900000D02*
X181000000Y-104000000D01*
X85800000Y-104800000D02*
X85800000Y-118600000D01*
X124300000Y-101000000D02*
X124300000Y-101565685D01*
X199200000Y-93800000D02*
X199500000Y-94100000D01*
X143700000Y-94700000D02*
X124500000Y-94700000D01*
M02*
