G04 #@! TF.GenerationSoftware,KiCad,Pcbnew,8.0.4-8.0.4-0~ubuntu22.04.1*
G04 #@! TF.CreationDate,2024-08-25T13:27:25+01:00*
G04 #@! TF.ProjectId,membrane1,6d656d62-7261-46e6-9531-2e6b69636164,V1.1*
G04 #@! TF.SameCoordinates,Original*
G04 #@! TF.FileFunction,Soldermask,Bot*
G04 #@! TF.FilePolarity,Negative*
%FSLAX46Y46*%
G04 Gerber Fmt 4.6, Leading zero omitted, Abs format (unit mm)*
G04 Created by KiCad (PCBNEW 8.0.4-8.0.4-0~ubuntu22.04.1) date 2024-08-25 13:27:25*
%MOMM*%
%LPD*%
G01*
G04 APERTURE LIST*
G04 APERTURE END LIST*
G36*
X281919517Y-77392882D02*
G01*
X281936062Y-77403938D01*
X281947118Y-77420483D01*
X281951000Y-77440000D01*
X281951000Y-79440000D01*
X281947118Y-79459517D01*
X281936062Y-79476062D01*
X281919517Y-79487118D01*
X281900000Y-79491000D01*
X281000000Y-79491000D01*
X280980483Y-79487118D01*
X280963938Y-79476062D01*
X280952882Y-79459517D01*
X280949000Y-79440000D01*
X280949000Y-77440000D01*
X280952882Y-77420483D01*
X280963938Y-77403938D01*
X280980483Y-77392882D01*
X281000000Y-77389000D01*
X281900000Y-77389000D01*
X281919517Y-77392882D01*
G37*
G36*
X285919517Y-77392882D02*
G01*
X285936062Y-77403938D01*
X285947118Y-77420483D01*
X285951000Y-77440000D01*
X285951000Y-79440000D01*
X285947118Y-79459517D01*
X285936062Y-79476062D01*
X285919517Y-79487118D01*
X285900000Y-79491000D01*
X285000000Y-79491000D01*
X284980483Y-79487118D01*
X284963938Y-79476062D01*
X284952882Y-79459517D01*
X284949000Y-79440000D01*
X284949000Y-77440000D01*
X284952882Y-77420483D01*
X284963938Y-77403938D01*
X284980483Y-77392882D01*
X285000000Y-77389000D01*
X285900000Y-77389000D01*
X285919517Y-77392882D01*
G37*
G36*
X289919517Y-77392882D02*
G01*
X289936062Y-77403938D01*
X289947118Y-77420483D01*
X289951000Y-77440000D01*
X289951000Y-79440000D01*
X289947118Y-79459517D01*
X289936062Y-79476062D01*
X289919517Y-79487118D01*
X289900000Y-79491000D01*
X289000000Y-79491000D01*
X288980483Y-79487118D01*
X288963938Y-79476062D01*
X288952882Y-79459517D01*
X288949000Y-79440000D01*
X288949000Y-77440000D01*
X288952882Y-77420483D01*
X288963938Y-77403938D01*
X288980483Y-77392882D01*
X289000000Y-77389000D01*
X289900000Y-77389000D01*
X289919517Y-77392882D01*
G37*
G36*
X293919517Y-77392882D02*
G01*
X293936062Y-77403938D01*
X293947118Y-77420483D01*
X293951000Y-77440000D01*
X293951000Y-79440000D01*
X293947118Y-79459517D01*
X293936062Y-79476062D01*
X293919517Y-79487118D01*
X293900000Y-79491000D01*
X293000000Y-79491000D01*
X292980483Y-79487118D01*
X292963938Y-79476062D01*
X292952882Y-79459517D01*
X292949000Y-79440000D01*
X292949000Y-77440000D01*
X292952882Y-77420483D01*
X292963938Y-77403938D01*
X292980483Y-77392882D01*
X293000000Y-77389000D01*
X293900000Y-77389000D01*
X293919517Y-77392882D01*
G37*
G36*
X308651517Y-77260882D02*
G01*
X308668062Y-77271938D01*
X308679118Y-77288483D01*
X308683000Y-77308000D01*
X308683000Y-79308000D01*
X308679118Y-79327517D01*
X308668062Y-79344062D01*
X308651517Y-79355118D01*
X308632000Y-79359000D01*
X307732000Y-79359000D01*
X307712483Y-79355118D01*
X307695938Y-79344062D01*
X307684882Y-79327517D01*
X307681000Y-79308000D01*
X307681000Y-77308000D01*
X307684882Y-77288483D01*
X307695938Y-77271938D01*
X307712483Y-77260882D01*
X307732000Y-77257000D01*
X308632000Y-77257000D01*
X308651517Y-77260882D01*
G37*
G36*
X312651517Y-77260882D02*
G01*
X312668062Y-77271938D01*
X312679118Y-77288483D01*
X312683000Y-77308000D01*
X312683000Y-79308000D01*
X312679118Y-79327517D01*
X312668062Y-79344062D01*
X312651517Y-79355118D01*
X312632000Y-79359000D01*
X311732000Y-79359000D01*
X311712483Y-79355118D01*
X311695938Y-79344062D01*
X311684882Y-79327517D01*
X311681000Y-79308000D01*
X311681000Y-77308000D01*
X311684882Y-77288483D01*
X311695938Y-77271938D01*
X311712483Y-77260882D01*
X311732000Y-77257000D01*
X312632000Y-77257000D01*
X312651517Y-77260882D01*
G37*
G36*
X316651517Y-77260882D02*
G01*
X316668062Y-77271938D01*
X316679118Y-77288483D01*
X316683000Y-77308000D01*
X316683000Y-79308000D01*
X316679118Y-79327517D01*
X316668062Y-79344062D01*
X316651517Y-79355118D01*
X316632000Y-79359000D01*
X315732000Y-79359000D01*
X315712483Y-79355118D01*
X315695938Y-79344062D01*
X315684882Y-79327517D01*
X315681000Y-79308000D01*
X315681000Y-77308000D01*
X315684882Y-77288483D01*
X315695938Y-77271938D01*
X315712483Y-77260882D01*
X315732000Y-77257000D01*
X316632000Y-77257000D01*
X316651517Y-77260882D01*
G37*
G36*
X320651517Y-77260882D02*
G01*
X320668062Y-77271938D01*
X320679118Y-77288483D01*
X320683000Y-77308000D01*
X320683000Y-79308000D01*
X320679118Y-79327517D01*
X320668062Y-79344062D01*
X320651517Y-79355118D01*
X320632000Y-79359000D01*
X319732000Y-79359000D01*
X319712483Y-79355118D01*
X319695938Y-79344062D01*
X319684882Y-79327517D01*
X319681000Y-79308000D01*
X319681000Y-77308000D01*
X319684882Y-77288483D01*
X319695938Y-77271938D01*
X319712483Y-77260882D01*
X319732000Y-77257000D01*
X320632000Y-77257000D01*
X320651517Y-77260882D01*
G37*
G36*
X279919517Y-74192882D02*
G01*
X279936062Y-74203938D01*
X279947118Y-74220483D01*
X279951000Y-74240000D01*
X279951000Y-76240000D01*
X279947118Y-76259517D01*
X279936062Y-76276062D01*
X279919517Y-76287118D01*
X279900000Y-76291000D01*
X279000000Y-76291000D01*
X278980483Y-76287118D01*
X278963938Y-76276062D01*
X278952882Y-76259517D01*
X278949000Y-76240000D01*
X278949000Y-74240000D01*
X278952882Y-74220483D01*
X278963938Y-74203938D01*
X278980483Y-74192882D01*
X279000000Y-74189000D01*
X279900000Y-74189000D01*
X279919517Y-74192882D01*
G37*
G36*
X283919517Y-74192882D02*
G01*
X283936062Y-74203938D01*
X283947118Y-74220483D01*
X283951000Y-74240000D01*
X283951000Y-76240000D01*
X283947118Y-76259517D01*
X283936062Y-76276062D01*
X283919517Y-76287118D01*
X283900000Y-76291000D01*
X283000000Y-76291000D01*
X282980483Y-76287118D01*
X282963938Y-76276062D01*
X282952882Y-76259517D01*
X282949000Y-76240000D01*
X282949000Y-74240000D01*
X282952882Y-74220483D01*
X282963938Y-74203938D01*
X282980483Y-74192882D01*
X283000000Y-74189000D01*
X283900000Y-74189000D01*
X283919517Y-74192882D01*
G37*
G36*
X287919517Y-74192882D02*
G01*
X287936062Y-74203938D01*
X287947118Y-74220483D01*
X287951000Y-74240000D01*
X287951000Y-76240000D01*
X287947118Y-76259517D01*
X287936062Y-76276062D01*
X287919517Y-76287118D01*
X287900000Y-76291000D01*
X287000000Y-76291000D01*
X286980483Y-76287118D01*
X286963938Y-76276062D01*
X286952882Y-76259517D01*
X286949000Y-76240000D01*
X286949000Y-74240000D01*
X286952882Y-74220483D01*
X286963938Y-74203938D01*
X286980483Y-74192882D01*
X287000000Y-74189000D01*
X287900000Y-74189000D01*
X287919517Y-74192882D01*
G37*
G36*
X291919517Y-74192882D02*
G01*
X291936062Y-74203938D01*
X291947118Y-74220483D01*
X291951000Y-74240000D01*
X291951000Y-76240000D01*
X291947118Y-76259517D01*
X291936062Y-76276062D01*
X291919517Y-76287118D01*
X291900000Y-76291000D01*
X291000000Y-76291000D01*
X290980483Y-76287118D01*
X290963938Y-76276062D01*
X290952882Y-76259517D01*
X290949000Y-76240000D01*
X290949000Y-74240000D01*
X290952882Y-74220483D01*
X290963938Y-74203938D01*
X290980483Y-74192882D01*
X291000000Y-74189000D01*
X291900000Y-74189000D01*
X291919517Y-74192882D01*
G37*
G36*
X306651517Y-74060882D02*
G01*
X306668062Y-74071938D01*
X306679118Y-74088483D01*
X306683000Y-74108000D01*
X306683000Y-76108000D01*
X306679118Y-76127517D01*
X306668062Y-76144062D01*
X306651517Y-76155118D01*
X306632000Y-76159000D01*
X305732000Y-76159000D01*
X305712483Y-76155118D01*
X305695938Y-76144062D01*
X305684882Y-76127517D01*
X305681000Y-76108000D01*
X305681000Y-74108000D01*
X305684882Y-74088483D01*
X305695938Y-74071938D01*
X305712483Y-74060882D01*
X305732000Y-74057000D01*
X306632000Y-74057000D01*
X306651517Y-74060882D01*
G37*
G36*
X310651517Y-74060882D02*
G01*
X310668062Y-74071938D01*
X310679118Y-74088483D01*
X310683000Y-74108000D01*
X310683000Y-76108000D01*
X310679118Y-76127517D01*
X310668062Y-76144062D01*
X310651517Y-76155118D01*
X310632000Y-76159000D01*
X309732000Y-76159000D01*
X309712483Y-76155118D01*
X309695938Y-76144062D01*
X309684882Y-76127517D01*
X309681000Y-76108000D01*
X309681000Y-74108000D01*
X309684882Y-74088483D01*
X309695938Y-74071938D01*
X309712483Y-74060882D01*
X309732000Y-74057000D01*
X310632000Y-74057000D01*
X310651517Y-74060882D01*
G37*
G36*
X314651517Y-74060882D02*
G01*
X314668062Y-74071938D01*
X314679118Y-74088483D01*
X314683000Y-74108000D01*
X314683000Y-76108000D01*
X314679118Y-76127517D01*
X314668062Y-76144062D01*
X314651517Y-76155118D01*
X314632000Y-76159000D01*
X313732000Y-76159000D01*
X313712483Y-76155118D01*
X313695938Y-76144062D01*
X313684882Y-76127517D01*
X313681000Y-76108000D01*
X313681000Y-74108000D01*
X313684882Y-74088483D01*
X313695938Y-74071938D01*
X313712483Y-74060882D01*
X313732000Y-74057000D01*
X314632000Y-74057000D01*
X314651517Y-74060882D01*
G37*
G36*
X318651517Y-74060882D02*
G01*
X318668062Y-74071938D01*
X318679118Y-74088483D01*
X318683000Y-74108000D01*
X318683000Y-76108000D01*
X318679118Y-76127517D01*
X318668062Y-76144062D01*
X318651517Y-76155118D01*
X318632000Y-76159000D01*
X317732000Y-76159000D01*
X317712483Y-76155118D01*
X317695938Y-76144062D01*
X317684882Y-76127517D01*
X317681000Y-76108000D01*
X317681000Y-74108000D01*
X317684882Y-74088483D01*
X317695938Y-74071938D01*
X317712483Y-74060882D01*
X317732000Y-74057000D01*
X318632000Y-74057000D01*
X318651517Y-74060882D01*
G37*
M02*
