G04 #@! TF.GenerationSoftware,KiCad,Pcbnew,8.0.4-8.0.4-0~ubuntu22.04.1*
G04 #@! TF.CreationDate,2024-08-25T13:27:24+01:00*
G04 #@! TF.ProjectId,membrane1,6d656d62-7261-46e6-9531-2e6b69636164,V1.1*
G04 #@! TF.SameCoordinates,Original*
G04 #@! TF.FileFunction,Paste,Top*
G04 #@! TF.FilePolarity,Positive*
%FSLAX46Y46*%
G04 Gerber Fmt 4.6, Leading zero omitted, Abs format (unit mm)*
G04 Created by KiCad (PCBNEW 8.0.4-8.0.4-0~ubuntu22.04.1) date 2024-08-25 13:27:24*
%MOMM*%
%LPD*%
G01*
G04 APERTURE LIST*
G04 Aperture macros list*
%AMFreePoly0*
4,1,111,-6.282286,0.717705,-6.146452,0.661441,-6.024205,0.579758,-5.920242,0.475795,-5.838559,0.353548,-5.782295,0.217714,-5.778771,0.200000,6.000000,0.200000,6.000000,-0.200000,-5.750000,-0.200000,-5.750000,-1.750000,5.750000,-1.750000,5.798773,-1.754804,5.888893,-1.792133,5.957867,-1.861107,5.995196,-1.951227,5.995196,-2.048773,5.957867,-2.138893,5.888893,-2.207867,5.798773,-2.245196,
5.750000,-2.250000,-5.750000,-2.250000,-5.750000,-3.750000,5.750000,-3.750000,5.798773,-3.754804,5.888893,-3.792133,5.957867,-3.861107,5.995196,-3.951227,5.995196,-4.048773,5.957867,-4.138893,5.888893,-4.207867,5.798773,-4.245196,5.750000,-4.250000,-5.750000,-4.250000,-5.750000,-5.750000,5.750000,-5.750000,5.798773,-5.754804,5.888893,-5.792133,5.957867,-5.861107,5.995196,-5.951227,
5.995196,-6.048773,5.957867,-6.138893,5.888893,-6.207867,5.798773,-6.245196,5.750000,-6.250000,-5.750000,-6.250000,-5.750000,-7.750000,5.750000,-7.750000,5.798773,-7.754804,5.888893,-7.792133,5.957867,-7.861107,5.995196,-7.951227,5.995196,-8.048773,5.957867,-8.138893,5.888893,-8.207867,5.798773,-8.245196,5.750000,-8.250000,-5.750000,-8.250000,-5.750000,-9.750000,5.750000,-9.750000,
5.798773,-9.754804,5.888893,-9.792133,5.957867,-9.861107,5.995196,-9.951227,5.995196,-10.048773,5.957867,-10.138893,5.888893,-10.207867,5.798773,-10.245196,5.750000,-10.250000,-5.750000,-10.250000,-5.750000,-11.750000,5.750000,-11.750000,5.798773,-11.754804,5.888893,-11.792133,5.957867,-11.861107,5.995196,-11.951227,5.995196,-12.048773,5.957867,-12.138893,5.888893,-12.207867,5.798773,-12.245196,
5.750000,-12.250000,-5.750000,-12.250000,-5.750000,-13.500000,-5.753611,-13.573513,-5.782295,-13.717714,-5.838559,-13.853548,-5.920242,-13.975795,-6.024205,-14.079758,-6.146452,-14.161441,-6.282286,-14.217705,-6.426487,-14.246389,-6.573513,-14.246389,-6.717714,-14.217705,-6.853548,-14.161441,-6.975795,-14.079758,-7.079758,-13.975795,-7.161441,-13.853548,-7.217705,-13.717714,-7.246389,-13.573513,-7.250000,-13.500000,
-7.250000,0.000000,-7.246389,0.073513,-7.217705,0.217714,-7.161441,0.353548,-7.079758,0.475795,-6.975795,0.579758,-6.853548,0.661441,-6.717714,0.717705,-6.573513,0.746389,-6.426487,0.746389,-6.282286,0.717705,-6.282286,0.717705,$1*%
%AMFreePoly1*
4,1,112,6.717714,1.967705,6.853548,1.911441,6.975795,1.829758,7.079758,1.725795,7.161441,1.603548,7.217705,1.467714,7.246389,1.323513,7.250000,1.250000,7.250000,-12.250000,7.246389,-12.323513,7.217705,-12.467714,7.161441,-12.603548,7.079758,-12.725795,6.975795,-12.829758,6.853548,-12.911441,6.717714,-12.967705,6.573513,-12.996389,6.426487,-12.996389,6.282286,-12.967705,6.146452,-12.911441,
6.024205,-12.829758,5.920242,-12.725795,5.838559,-12.603548,5.782295,-12.467714,5.753611,-12.323513,5.750000,-12.250000,-5.750000,-12.250000,-5.798773,-12.245196,-5.888893,-12.207867,-5.957867,-12.138893,-5.995196,-12.048773,-5.995196,-11.951227,-5.957867,-11.861107,-5.888893,-11.792133,-5.798773,-11.754804,-5.750000,-11.750000,5.750000,-11.750000,5.750000,-10.250000,-5.750000,-10.250000,-5.798773,-10.245196,
-5.888893,-10.207867,-5.957867,-10.138893,-5.995196,-10.048773,-5.995196,-9.951227,-5.957867,-9.861107,-5.888893,-9.792133,-5.798773,-9.754804,-5.750000,-9.750000,5.750000,-9.750000,5.750000,-8.250000,-5.750000,-8.250000,-5.798773,-8.245196,-5.888893,-8.207867,-5.957867,-8.138893,-5.995196,-8.048773,-5.995196,-7.951227,-5.957867,-7.861107,-5.888893,-7.792133,-5.798773,-7.754804,-5.750000,-7.750000,
5.750000,-7.750000,5.750000,-6.250000,-5.750000,-6.250000,-5.798773,-6.245196,-5.888893,-6.207867,-5.957867,-6.138893,-5.995196,-6.048773,-5.995196,-5.951227,-5.957867,-5.861107,-5.888893,-5.792133,-5.798773,-5.754804,-5.750000,-5.750000,5.750000,-5.750000,5.750000,-4.250000,-5.750000,-4.250000,-5.798773,-4.245196,-5.888893,-4.207867,-5.957867,-4.138893,-5.995196,-4.048773,-5.995196,-3.951227,
-5.957867,-3.861107,-5.888893,-3.792133,-5.798773,-3.754804,-5.750000,-3.750000,5.750000,-3.750000,5.750000,-2.250000,-5.750000,-2.250000,-5.798773,-2.245196,-5.888893,-2.207867,-5.957867,-2.138893,-5.995196,-2.048773,-5.995196,-1.951227,-5.957867,-1.861107,-5.888893,-1.792133,-5.798773,-1.754804,-5.750000,-1.750000,5.750000,-1.750000,5.750000,-0.200000,-6.000000,-0.200000,-6.000000,0.200000,
5.750000,0.200000,5.750000,1.250000,5.753611,1.323513,5.782295,1.467714,5.838559,1.603548,5.920242,1.725795,6.024205,1.829758,6.146452,1.911441,6.282286,1.967705,6.426487,1.996389,6.573513,1.996389,6.717714,1.967705,6.717714,1.967705,$1*%
%AMFreePoly2*
4,1,794,6.717714,126.967705,6.853548,126.911441,6.975795,126.829758,7.079758,126.725795,7.161441,126.603548,7.217705,126.467714,7.246389,126.323513,7.250000,126.250000,7.250000,0.000000,7.246389,-0.073513,7.217705,-0.217714,7.161441,-0.353548,7.079758,-0.475795,6.975795,-0.579758,6.853548,-0.661441,6.717714,-0.717705,6.573513,-0.746389,6.426487,-0.746389,6.282286,-0.717705,6.146452,-0.661441,
6.024205,-0.579758,5.920242,-0.475795,5.838559,-0.353548,5.782295,-0.217714,5.778771,-0.200000,-6.000000,-0.200000,-6.000000,0.200000,5.750000,0.200000,5.750000,1.800000,-5.750000,1.800000,-5.789018,1.803843,-5.861114,1.833706,-5.916294,1.888886,-5.946157,1.960982,-5.946157,2.039018,-5.916294,2.111114,-5.861114,2.166294,-5.789018,2.196157,-5.750000,2.200000,5.750000,2.200000,
5.750000,3.750000,-5.750000,3.750000,-5.798773,3.754804,-5.888893,3.792133,-5.957867,3.861107,-5.995196,3.951227,-5.995196,4.048773,-5.957867,4.138893,-5.888893,4.207867,-5.798773,4.245196,-5.750000,4.250000,5.750000,4.250000,5.750000,5.750000,-5.750000,5.750000,-5.798773,5.754804,-5.888893,5.792133,-5.957867,5.861107,-5.995196,5.951227,-5.995196,6.048773,-5.957867,6.138893,
-5.888893,6.207867,-5.798773,6.245196,-5.750000,6.250000,5.750000,6.250000,5.750000,7.750000,-5.750000,7.750000,-5.798773,7.754804,-5.888893,7.792133,-5.957867,7.861107,-5.995196,7.951227,-5.995196,8.048773,-5.957867,8.138893,-5.888893,8.207867,-5.798773,8.245196,-5.750000,8.250000,5.750000,8.250000,5.750000,9.750000,-5.750000,9.750000,-5.798773,9.754804,-5.888893,9.792133,
-5.957867,9.861107,-5.995196,9.951227,-5.995196,10.048773,-5.957867,10.138893,-5.888893,10.207867,-5.798773,10.245196,-5.750000,10.250000,5.750000,10.250000,5.750000,11.750000,-5.750000,11.750000,-5.798773,11.754804,-5.888893,11.792133,-5.957867,11.861107,-5.995196,11.951227,-5.995196,12.048773,-5.957867,12.138893,-5.888893,12.207867,-5.798773,12.245196,-5.750000,12.250000,5.750000,12.250000,
5.750000,13.800000,-5.750000,13.800000,-5.789018,13.803843,-5.861114,13.833706,-5.916294,13.888886,-5.946157,13.960982,-5.946157,14.039018,-5.916294,14.111114,-5.861114,14.166294,-5.789018,14.196157,-5.750000,14.200000,5.750000,14.200000,5.750000,15.750000,-5.750000,15.750000,-5.798773,15.754804,-5.888893,15.792133,-5.957867,15.861107,-5.995196,15.951227,-5.995196,16.048773,-5.957867,16.138893,
-5.888893,16.207867,-5.798773,16.245196,-5.750000,16.250000,5.750000,16.250000,5.750000,17.750000,-5.750000,17.750000,-5.798773,17.754804,-5.888893,17.792133,-5.957867,17.861107,-5.995196,17.951227,-5.995196,18.048773,-5.957867,18.138893,-5.888893,18.207867,-5.798773,18.245196,-5.750000,18.250000,5.750000,18.250000,5.750000,19.750000,-5.750000,19.750000,-5.798773,19.754804,-5.888893,19.792133,
-5.957867,19.861107,-5.995196,19.951227,-5.995196,20.048773,-5.957867,20.138893,-5.888893,20.207867,-5.798773,20.245196,-5.750000,20.250000,5.750000,20.250000,5.750000,21.750000,-5.750000,21.750000,-5.798773,21.754804,-5.888893,21.792133,-5.957867,21.861107,-5.995196,21.951227,-5.995196,22.048773,-5.957867,22.138893,-5.888893,22.207867,-5.798773,22.245196,-5.750000,22.250000,5.750000,22.250000,
5.750000,23.750000,-5.750000,23.750000,-5.798773,23.754804,-5.888893,23.792133,-5.957867,23.861107,-5.995196,23.951227,-5.995196,24.048773,-5.957867,24.138893,-5.888893,24.207867,-5.798773,24.245196,-5.750000,24.250000,5.750000,24.250000,5.750000,25.800000,-5.750000,25.800000,-5.789018,25.803843,-5.861114,25.833706,-5.916294,25.888886,-5.946157,25.960982,-5.946157,26.039018,-5.916294,26.111114,
-5.861114,26.166294,-5.789018,26.196157,-5.750000,26.200000,5.750000,26.200000,5.750000,27.750000,-5.750000,27.750000,-5.798773,27.754804,-5.888893,27.792133,-5.957867,27.861107,-5.995196,27.951227,-5.995196,28.048773,-5.957867,28.138893,-5.888893,28.207867,-5.798773,28.245196,-5.750000,28.250000,5.750000,28.250000,5.750000,29.750000,-5.750000,29.750000,-5.798773,29.754804,-5.888893,29.792133,
-5.957867,29.861107,-5.995196,29.951227,-5.995196,30.048773,-5.957867,30.138893,-5.888893,30.207867,-5.798773,30.245196,-5.750000,30.250000,5.750000,30.250000,5.750000,31.750000,-5.750000,31.750000,-5.798773,31.754804,-5.888893,31.792133,-5.957867,31.861107,-5.995196,31.951227,-5.995196,32.048773,-5.957867,32.138893,-5.888893,32.207867,-5.798773,32.245196,-5.750000,32.250000,5.750000,32.250000,
5.750000,33.750000,-5.750000,33.750000,-5.798773,33.754804,-5.888893,33.792133,-5.957867,33.861107,-5.995196,33.951227,-5.995196,34.048773,-5.957867,34.138893,-5.888893,34.207867,-5.798773,34.245196,-5.750000,34.250000,5.750000,34.250000,5.750000,35.750000,-5.750000,35.750000,-5.798773,35.754804,-5.888893,35.792133,-5.957867,35.861107,-5.995196,35.951227,-5.995196,36.048773,-5.957867,36.138893,
-5.888893,36.207867,-5.798773,36.245196,-5.750000,36.250000,5.750000,36.250000,5.750000,37.800000,-5.750000,37.800000,-5.789018,37.803843,-5.861114,37.833706,-5.916294,37.888886,-5.946157,37.960982,-5.946157,38.039018,-5.916294,38.111114,-5.861114,38.166294,-5.789018,38.196157,-5.750000,38.200000,5.750000,38.200000,5.750000,39.750000,-5.750000,39.750000,-5.798773,39.754804,-5.888893,39.792133,
-5.957867,39.861107,-5.995196,39.951227,-5.995196,40.048773,-5.957867,40.138893,-5.888893,40.207867,-5.798773,40.245196,-5.750000,40.250000,5.750000,40.250000,5.750000,41.750000,-5.750000,41.750000,-5.798773,41.754804,-5.888893,41.792133,-5.957867,41.861107,-5.995196,41.951227,-5.995196,42.048773,-5.957867,42.138893,-5.888893,42.207867,-5.798773,42.245196,-5.750000,42.250000,5.750000,42.250000,
5.750000,43.750000,-5.750000,43.750000,-5.798773,43.754804,-5.888893,43.792133,-5.957867,43.861107,-5.995196,43.951227,-5.995196,44.048773,-5.957867,44.138893,-5.888893,44.207867,-5.798773,44.245196,-5.750000,44.250000,5.750000,44.250000,5.750000,45.750000,-5.750000,45.750000,-5.798773,45.754804,-5.888893,45.792133,-5.957867,45.861107,-5.995196,45.951227,-5.995196,46.048773,-5.957867,46.138893,
-5.888893,46.207867,-5.798773,46.245196,-5.750000,46.250000,5.750000,46.250000,5.750000,47.750000,-5.750000,47.750000,-5.798773,47.754804,-5.888893,47.792133,-5.957867,47.861107,-5.995196,47.951227,-5.995196,48.048773,-5.957867,48.138893,-5.888893,48.207867,-5.798773,48.245196,-5.750000,48.250000,5.750000,48.250000,5.750000,49.800000,-5.750000,49.800000,-5.789018,49.803843,-5.861114,49.833706,
-5.916294,49.888886,-5.946157,49.960982,-5.946157,50.039018,-5.916294,50.111114,-5.861114,50.166294,-5.789018,50.196157,-5.750000,50.200000,5.750000,50.200000,5.750000,51.750000,-5.750000,51.750000,-5.798773,51.754804,-5.888893,51.792133,-5.957867,51.861107,-5.995196,51.951227,-5.995196,52.048773,-5.957867,52.138893,-5.888893,52.207867,-5.798773,52.245196,-5.750000,52.250000,5.750000,52.250000,
5.750000,53.750000,-5.750000,53.750000,-5.798773,53.754804,-5.888893,53.792133,-5.957867,53.861107,-5.995196,53.951227,-5.995196,54.048773,-5.957867,54.138893,-5.888893,54.207867,-5.798773,54.245196,-5.750000,54.250000,5.750000,54.250000,5.750000,55.750000,-5.750000,55.750000,-5.798773,55.754804,-5.888893,55.792133,-5.957867,55.861107,-5.995196,55.951227,-5.995196,56.048773,-5.957867,56.138893,
-5.888893,56.207867,-5.798773,56.245196,-5.750000,56.250000,5.750000,56.250000,5.750000,57.750000,-5.750000,57.750000,-5.798773,57.754804,-5.888893,57.792133,-5.957867,57.861107,-5.995196,57.951227,-5.995196,58.048773,-5.957867,58.138893,-5.888893,58.207867,-5.798773,58.245196,-5.750000,58.250000,5.750000,58.250000,5.750000,59.750000,-5.750000,59.750000,-5.798773,59.754804,-5.888893,59.792133,
-5.957867,59.861107,-5.995196,59.951227,-5.995196,60.048773,-5.957867,60.138893,-5.888893,60.207867,-5.798773,60.245196,-5.750000,60.250000,5.750000,60.250000,5.750000,61.800000,-5.750000,61.800000,-5.789018,61.803843,-5.861114,61.833706,-5.916294,61.888886,-5.946157,61.960982,-5.946157,62.039018,-5.916294,62.111114,-5.861114,62.166294,-5.789018,62.196157,-5.750000,62.200000,5.750000,62.200000,
5.750000,63.750000,-5.750000,63.750000,-5.798773,63.754804,-5.888893,63.792133,-5.957867,63.861107,-5.995196,63.951227,-5.995196,64.048773,-5.957867,64.138893,-5.888893,64.207867,-5.798773,64.245196,-5.750000,64.250000,5.750000,64.250000,5.750000,65.750000,-5.750000,65.750000,-5.798773,65.754804,-5.888893,65.792133,-5.957867,65.861107,-5.995196,65.951227,-5.995196,66.048773,-5.957867,66.138893,
-5.888893,66.207867,-5.798773,66.245196,-5.750000,66.250000,5.750000,66.250000,5.750000,67.750000,-5.750000,67.750000,-5.798773,67.754804,-5.888893,67.792133,-5.957867,67.861107,-5.995196,67.951227,-5.995196,68.048773,-5.957867,68.138893,-5.888893,68.207867,-5.798773,68.245196,-5.750000,68.250000,5.750000,68.250000,5.750000,69.750000,-5.750000,69.750000,-5.798773,69.754804,-5.888893,69.792133,
-5.957867,69.861107,-5.995196,69.951227,-5.995196,70.048773,-5.957867,70.138893,-5.888893,70.207867,-5.798773,70.245196,-5.750000,70.250000,5.750000,70.250000,5.750000,71.750000,-5.750000,71.750000,-5.798773,71.754804,-5.888893,71.792133,-5.957867,71.861107,-5.995196,71.951227,-5.995196,72.048773,-5.957867,72.138893,-5.888893,72.207867,-5.798773,72.245196,-5.750000,72.250000,5.750000,72.250000,
5.750000,73.800000,-5.750000,73.800000,-5.789018,73.803843,-5.861114,73.833706,-5.916294,73.888886,-5.946157,73.960982,-5.946157,74.039018,-5.916294,74.111114,-5.861114,74.166294,-5.789018,74.196157,-5.750000,74.200000,5.750000,74.200000,5.750000,75.750000,-5.750000,75.750000,-5.798773,75.754804,-5.888893,75.792133,-5.957867,75.861107,-5.995196,75.951227,-5.995196,76.048773,-5.957867,76.138893,
-5.888893,76.207867,-5.798773,76.245196,-5.750000,76.250000,5.750000,76.250000,5.750000,77.750000,-5.750000,77.750000,-5.798773,77.754804,-5.888893,77.792133,-5.957867,77.861107,-5.995196,77.951227,-5.995196,78.048773,-5.957867,78.138893,-5.888893,78.207867,-5.798773,78.245196,-5.750000,78.250000,5.750000,78.250000,5.750000,79.750000,-5.750000,79.750000,-5.798773,79.754804,-5.888893,79.792133,
-5.957867,79.861107,-5.995196,79.951227,-5.995196,80.048773,-5.957867,80.138893,-5.888893,80.207867,-5.798773,80.245196,-5.750000,80.250000,5.750000,80.250000,5.750000,81.750000,-5.750000,81.750000,-5.798773,81.754804,-5.888893,81.792133,-5.957867,81.861107,-5.995196,81.951227,-5.995196,82.048773,-5.957867,82.138893,-5.888893,82.207867,-5.798773,82.245196,-5.750000,82.250000,5.750000,82.250000,
5.750000,83.750000,-5.750000,83.750000,-5.798773,83.754804,-5.888893,83.792133,-5.957867,83.861107,-5.995196,83.951227,-5.995196,84.048773,-5.957867,84.138893,-5.888893,84.207867,-5.798773,84.245196,-5.750000,84.250000,5.750000,84.250000,5.750000,85.800000,-5.750000,85.800000,-5.789018,85.803843,-5.861114,85.833706,-5.916294,85.888886,-5.946157,85.960982,-5.946157,86.039018,-5.916294,86.111114,
-5.861114,86.166294,-5.789018,86.196157,-5.750000,86.200000,5.750000,86.200000,5.750000,87.750000,-5.750000,87.750000,-5.798773,87.754804,-5.888893,87.792133,-5.957867,87.861107,-5.995196,87.951227,-5.995196,88.048773,-5.957867,88.138893,-5.888893,88.207867,-5.798773,88.245196,-5.750000,88.250000,5.750000,88.250000,5.750000,89.750000,-5.750000,89.750000,-5.798773,89.754804,-5.888893,89.792133,
-5.957867,89.861107,-5.995196,89.951227,-5.995196,90.048773,-5.957867,90.138893,-5.888893,90.207867,-5.798773,90.245196,-5.750000,90.250000,5.750000,90.250000,5.750000,91.750000,-5.750000,91.750000,-5.798773,91.754804,-5.888893,91.792133,-5.957867,91.861107,-5.995196,91.951227,-5.995196,92.048773,-5.957867,92.138893,-5.888893,92.207867,-5.798773,92.245196,-5.750000,92.250000,5.750000,92.250000,
5.750000,93.750000,-5.750000,93.750000,-5.798773,93.754804,-5.888893,93.792133,-5.957867,93.861107,-5.995196,93.951227,-5.995196,94.048773,-5.957867,94.138893,-5.888893,94.207867,-5.798773,94.245196,-5.750000,94.250000,5.750000,94.250000,5.750000,95.750000,-5.750000,95.750000,-5.798773,95.754804,-5.888893,95.792133,-5.957867,95.861107,-5.995196,95.951227,-5.995196,96.048773,-5.957867,96.138893,
-5.888893,96.207867,-5.798773,96.245196,-5.750000,96.250000,5.750000,96.250000,5.750000,97.800000,-5.750000,97.800000,-5.789018,97.803843,-5.861114,97.833706,-5.916294,97.888886,-5.946157,97.960982,-5.946157,98.039018,-5.916294,98.111114,-5.861114,98.166294,-5.789018,98.196157,-5.750000,98.200000,5.750000,98.200000,5.750000,99.750000,-5.750000,99.750000,-5.798773,99.754804,-5.888893,99.792133,
-5.957867,99.861107,-5.995196,99.951227,-5.995196,100.048773,-5.957867,100.138893,-5.888893,100.207867,-5.798773,100.245196,-5.750000,100.250000,5.750000,100.250000,5.750000,101.750000,-5.750000,101.750000,-5.798773,101.754804,-5.888893,101.792133,-5.957867,101.861107,-5.995196,101.951227,-5.995196,102.048773,-5.957867,102.138893,-5.888893,102.207867,-5.798773,102.245196,-5.750000,102.250000,5.750000,102.250000,
5.750000,103.750000,-5.750000,103.750000,-5.798773,103.754804,-5.888893,103.792133,-5.957867,103.861107,-5.995196,103.951227,-5.995196,104.048773,-5.957867,104.138893,-5.888893,104.207867,-5.798773,104.245196,-5.750000,104.250000,5.750000,104.250000,5.750000,105.750000,-5.750000,105.750000,-5.798773,105.754804,-5.888893,105.792133,-5.957867,105.861107,-5.995196,105.951227,-5.995196,106.048773,-5.957867,106.138893,
-5.888893,106.207867,-5.798773,106.245196,-5.750000,106.250000,5.750000,106.250000,5.750000,107.750000,-5.750000,107.750000,-5.798773,107.754804,-5.888893,107.792133,-5.957867,107.861107,-5.995196,107.951227,-5.995196,108.048773,-5.957867,108.138893,-5.888893,108.207867,-5.798773,108.245196,-5.750000,108.250000,5.750000,108.250000,5.750000,109.800000,-5.750000,109.800000,-5.789018,109.803843,-5.861114,109.833706,
-5.916294,109.888886,-5.946157,109.960982,-5.946157,110.039018,-5.916294,110.111114,-5.861114,110.166294,-5.789018,110.196157,-5.750000,110.200000,5.750000,110.200000,5.750000,111.750000,-5.750000,111.750000,-5.798773,111.754804,-5.888893,111.792133,-5.957867,111.861107,-5.995196,111.951227,-5.995196,112.048773,-5.957867,112.138893,-5.888893,112.207867,-5.798773,112.245196,-5.750000,112.250000,5.750000,112.250000,
5.750000,113.750000,-5.750000,113.750000,-5.798773,113.754804,-5.888893,113.792133,-5.957867,113.861107,-5.995196,113.951227,-5.995196,114.048773,-5.957867,114.138893,-5.888893,114.207867,-5.798773,114.245196,-5.750000,114.250000,5.750000,114.250000,5.750000,115.750000,-5.750000,115.750000,-5.798773,115.754804,-5.888893,115.792133,-5.957867,115.861107,-5.995196,115.951227,-5.995196,116.048773,-5.957867,116.138893,
-5.888893,116.207867,-5.798773,116.245196,-5.750000,116.250000,5.750000,116.250000,5.750000,117.750000,-5.750000,117.750000,-5.798773,117.754804,-5.888893,117.792133,-5.957867,117.861107,-5.995196,117.951227,-5.995196,118.048773,-5.957867,118.138893,-5.888893,118.207867,-5.798773,118.245196,-5.750000,118.250000,5.750000,118.250000,5.750000,119.750000,-5.750000,119.750000,-5.798773,119.754804,-5.888893,119.792133,
-5.957867,119.861107,-5.995196,119.951227,-5.995196,120.048773,-5.957867,120.138893,-5.888893,120.207867,-5.798773,120.245196,-5.750000,120.250000,5.750000,120.250000,5.750000,121.800000,-5.750000,121.800000,-5.789018,121.803843,-5.861114,121.833706,-5.916294,121.888886,-5.946157,121.960982,-5.946157,122.039018,-5.916294,122.111114,-5.861114,122.166294,-5.789018,122.196157,-5.750000,122.200000,5.750000,122.200000,
5.750000,123.750000,-5.750000,123.750000,-5.798773,123.754804,-5.888893,123.792133,-5.957867,123.861107,-5.995196,123.951227,-5.995196,124.048773,-5.957867,124.138893,-5.888893,124.207867,-5.798773,124.245196,-5.750000,124.250000,5.750000,124.250000,5.750000,125.750000,-5.750000,125.750000,-5.798773,125.754804,-5.888893,125.792133,-5.957867,125.861107,-5.995196,125.951227,-5.995196,126.048773,-5.957867,126.138893,
-5.888893,126.207867,-5.798773,126.245196,-5.750000,126.250000,5.750000,126.250000,5.753611,126.323513,5.782295,126.467714,5.838559,126.603548,5.920242,126.725795,6.024205,126.829758,6.146452,126.911441,6.282286,126.967705,6.426487,126.996389,6.573513,126.996389,6.717714,126.967705,6.717714,126.967705,$1*%
%AMFreePoly3*
4,1,785,-6.532286,125.967705,-6.396452,125.911441,-6.274205,125.829758,-6.170242,125.725795,-6.088559,125.603548,-6.032295,125.467714,-6.003611,125.323513,-6.000000,125.250000,-6.000000,124.250000,5.500000,124.250000,5.548773,124.245196,5.638893,124.207867,5.707867,124.138893,5.745196,124.048773,5.745196,123.951227,5.707867,123.861107,5.638893,123.792133,5.548773,123.754804,5.500000,123.750000,-6.000000,123.750000,
-6.000000,122.250000,5.500000,122.250000,5.548773,122.245196,5.638893,122.207867,5.707867,122.138893,5.745196,122.048773,5.745196,121.951227,5.707867,121.861107,5.638893,121.792133,5.548773,121.754804,5.500000,121.750000,-6.000000,121.750000,-6.000000,120.250000,5.500000,120.250000,5.548773,120.245196,5.638893,120.207867,5.707867,120.138893,5.745196,120.048773,5.745196,119.951227,5.707867,119.861107,
5.638893,119.792133,5.548773,119.754804,5.500000,119.750000,-6.000000,119.750000,-6.000000,118.250000,5.500000,118.250000,5.548773,118.245196,5.638893,118.207867,5.707867,118.138893,5.745196,118.048773,5.745196,117.951227,5.707867,117.861107,5.638893,117.792133,5.548773,117.754804,5.500000,117.750000,-6.000000,117.750000,-6.000000,116.250000,5.500000,116.250000,5.548773,116.245196,5.638893,116.207867,
5.707867,116.138893,5.745196,116.048773,5.745196,115.951227,5.707867,115.861107,5.638893,115.792133,5.548773,115.754804,5.500000,115.750000,-6.000000,115.750000,-6.000000,114.250000,5.500000,114.250000,5.548773,114.245196,5.638893,114.207867,5.707867,114.138893,5.745196,114.048773,5.745196,113.951227,5.707867,113.861107,5.638893,113.792133,5.548773,113.754804,5.500000,113.750000,-6.000000,113.750000,
-6.000000,112.250000,5.500000,112.250000,5.548773,112.245196,5.638893,112.207867,5.707867,112.138893,5.745196,112.048773,5.745196,111.951227,5.707867,111.861107,5.638893,111.792133,5.548773,111.754804,5.500000,111.750000,-6.000000,111.750000,-6.000000,110.250000,5.500000,110.250000,5.548773,110.245196,5.638893,110.207867,5.707867,110.138893,5.745196,110.048773,5.745196,109.951227,5.707867,109.861107,
5.638893,109.792133,5.548773,109.754804,5.500000,109.750000,-6.000000,109.750000,-6.000000,108.250000,5.500000,108.250000,5.548773,108.245196,5.638893,108.207867,5.707867,108.138893,5.745196,108.048773,5.745196,107.951227,5.707867,107.861107,5.638893,107.792133,5.548773,107.754804,5.500000,107.750000,-6.000000,107.750000,-6.000000,106.250000,5.500000,106.250000,5.548773,106.245196,5.638893,106.207867,
5.707867,106.138893,5.745196,106.048773,5.745196,105.951227,5.707867,105.861107,5.638893,105.792133,5.548773,105.754804,5.500000,105.750000,-6.000000,105.750000,-6.000000,104.250000,5.500000,104.250000,5.548773,104.245196,5.638893,104.207867,5.707867,104.138893,5.745196,104.048773,5.745196,103.951227,5.707867,103.861107,5.638893,103.792133,5.548773,103.754804,5.500000,103.750000,-6.000000,103.750000,
-6.000000,102.250000,5.500000,102.250000,5.548773,102.245196,5.638893,102.207867,5.707867,102.138893,5.745196,102.048773,5.745196,101.951227,5.707867,101.861107,5.638893,101.792133,5.548773,101.754804,5.500000,101.750000,-6.000000,101.750000,-6.000000,100.250000,5.500000,100.250000,5.548773,100.245196,5.638893,100.207867,5.707867,100.138893,5.745196,100.048773,5.745196,99.951227,5.707867,99.861107,
5.638893,99.792133,5.548773,99.754804,5.500000,99.750000,-6.000000,99.750000,-6.000000,98.250000,5.500000,98.250000,5.548773,98.245196,5.638893,98.207867,5.707867,98.138893,5.745196,98.048773,5.745196,97.951227,5.707867,97.861107,5.638893,97.792133,5.548773,97.754804,5.500000,97.750000,-6.000000,97.750000,-6.000000,96.250000,5.500000,96.250000,5.548773,96.245196,5.638893,96.207867,
5.707867,96.138893,5.745196,96.048773,5.745196,95.951227,5.707867,95.861107,5.638893,95.792133,5.548773,95.754804,5.500000,95.750000,-6.000000,95.750000,-6.000000,94.250000,5.500000,94.250000,5.548773,94.245196,5.638893,94.207867,5.707867,94.138893,5.745196,94.048773,5.745196,93.951227,5.707867,93.861107,5.638893,93.792133,5.548773,93.754804,5.500000,93.750000,-6.000000,93.750000,
-6.000000,92.250000,5.500000,92.250000,5.548773,92.245196,5.638893,92.207867,5.707867,92.138893,5.745196,92.048773,5.745196,91.951227,5.707867,91.861107,5.638893,91.792133,5.548773,91.754804,5.500000,91.750000,-6.000000,91.750000,-6.000000,90.250000,5.500000,90.250000,5.548773,90.245196,5.638893,90.207867,5.707867,90.138893,5.745196,90.048773,5.745196,89.951227,5.707867,89.861107,
5.638893,89.792133,5.548773,89.754804,5.500000,89.750000,-6.000000,89.750000,-6.000000,88.250000,5.500000,88.250000,5.548773,88.245196,5.638893,88.207867,5.707867,88.138893,5.745196,88.048773,5.745196,87.951227,5.707867,87.861107,5.638893,87.792133,5.548773,87.754804,5.500000,87.750000,-6.000000,87.750000,-6.000000,86.250000,5.500000,86.250000,5.548773,86.245196,5.638893,86.207867,
5.707867,86.138893,5.745196,86.048773,5.745196,85.951227,5.707867,85.861107,5.638893,85.792133,5.548773,85.754804,5.500000,85.750000,-6.000000,85.750000,-6.000000,84.250000,5.500000,84.250000,5.548773,84.245196,5.638893,84.207867,5.707867,84.138893,5.745196,84.048773,5.745196,83.951227,5.707867,83.861107,5.638893,83.792133,5.548773,83.754804,5.500000,83.750000,-6.000000,83.750000,
-6.000000,82.250000,5.500000,82.250000,5.548773,82.245196,5.638893,82.207867,5.707867,82.138893,5.745196,82.048773,5.745196,81.951227,5.707867,81.861107,5.638893,81.792133,5.548773,81.754804,5.500000,81.750000,-6.000000,81.750000,-6.000000,80.250000,5.500000,80.250000,5.548773,80.245196,5.638893,80.207867,5.707867,80.138893,5.745196,80.048773,5.745196,79.951227,5.707867,79.861107,
5.638893,79.792133,5.548773,79.754804,5.500000,79.750000,-6.000000,79.750000,-6.000000,78.250000,5.500000,78.250000,5.548773,78.245196,5.638893,78.207867,5.707867,78.138893,5.745196,78.048773,5.745196,77.951227,5.707867,77.861107,5.638893,77.792133,5.548773,77.754804,5.500000,77.750000,-6.000000,77.750000,-6.000000,76.250000,5.500000,76.250000,5.548773,76.245196,5.638893,76.207867,
5.707867,76.138893,5.745196,76.048773,5.745196,75.951227,5.707867,75.861107,5.638893,75.792133,5.548773,75.754804,5.500000,75.750000,-6.000000,75.750000,-6.000000,74.250000,5.500000,74.250000,5.548773,74.245196,5.638893,74.207867,5.707867,74.138893,5.745196,74.048773,5.745196,73.951227,5.707867,73.861107,5.638893,73.792133,5.548773,73.754804,5.500000,73.750000,-6.000000,73.750000,
-6.000000,72.250000,5.500000,72.250000,5.548773,72.245196,5.638893,72.207867,5.707867,72.138893,5.745196,72.048773,5.745196,71.951227,5.707867,71.861107,5.638893,71.792133,5.548773,71.754804,5.500000,71.750000,-6.000000,71.750000,-6.000000,70.250000,5.500000,70.250000,5.548773,70.245196,5.638893,70.207867,5.707867,70.138893,5.745196,70.048773,5.745196,69.951227,5.707867,69.861107,
5.638893,69.792133,5.548773,69.754804,5.500000,69.750000,-6.000000,69.750000,-6.000000,68.250000,5.500000,68.250000,5.548773,68.245196,5.638893,68.207867,5.707867,68.138893,5.745196,68.048773,5.745196,67.951227,5.707867,67.861107,5.638893,67.792133,5.548773,67.754804,5.500000,67.750000,-6.000000,67.750000,-6.000000,66.250000,5.500000,66.250000,5.548773,66.245196,5.638893,66.207867,
5.707867,66.138893,5.745196,66.048773,5.745196,65.951227,5.707867,65.861107,5.638893,65.792133,5.548773,65.754804,5.500000,65.750000,-6.000000,65.750000,-6.000000,64.250000,5.500000,64.250000,5.548773,64.245196,5.638893,64.207867,5.707867,64.138893,5.745196,64.048773,5.745196,63.951227,5.707867,63.861107,5.638893,63.792133,5.548773,63.754804,5.500000,63.750000,-6.000000,63.750000,
-6.000000,62.250000,5.500000,62.250000,5.548773,62.245196,5.638893,62.207867,5.707867,62.138893,5.745196,62.048773,5.745196,61.951227,5.707867,61.861107,5.638893,61.792133,5.548773,61.754804,5.500000,61.750000,-6.000000,61.750000,-6.000000,60.250000,5.500000,60.250000,5.548773,60.245196,5.638893,60.207867,5.707867,60.138893,5.745196,60.048773,5.745196,59.951227,5.707867,59.861107,
5.638893,59.792133,5.548773,59.754804,5.500000,59.750000,-6.000000,59.750000,-6.000000,58.250000,5.500000,58.250000,5.548773,58.245196,5.638893,58.207867,5.707867,58.138893,5.745196,58.048773,5.745196,57.951227,5.707867,57.861107,5.638893,57.792133,5.548773,57.754804,5.500000,57.750000,-6.000000,57.750000,-6.000000,56.250000,5.500000,56.250000,5.548773,56.245196,5.638893,56.207867,
5.707867,56.138893,5.745196,56.048773,5.745196,55.951227,5.707867,55.861107,5.638893,55.792133,5.548773,55.754804,5.500000,55.750000,-6.000000,55.750000,-6.000000,54.250000,5.500000,54.250000,5.548773,54.245196,5.638893,54.207867,5.707867,54.138893,5.745196,54.048773,5.745196,53.951227,5.707867,53.861107,5.638893,53.792133,5.548773,53.754804,5.500000,53.750000,-6.000000,53.750000,
-6.000000,52.250000,5.500000,52.250000,5.548773,52.245196,5.638893,52.207867,5.707867,52.138893,5.745196,52.048773,5.745196,51.951227,5.707867,51.861107,5.638893,51.792133,5.548773,51.754804,5.500000,51.750000,-6.000000,51.750000,-6.000000,50.250000,5.500000,50.250000,5.548773,50.245196,5.638893,50.207867,5.707867,50.138893,5.745196,50.048773,5.745196,49.951227,5.707867,49.861107,
5.638893,49.792133,5.548773,49.754804,5.500000,49.750000,-6.000000,49.750000,-6.000000,48.250000,5.500000,48.250000,5.548773,48.245196,5.638893,48.207867,5.707867,48.138893,5.745196,48.048773,5.745196,47.951227,5.707867,47.861107,5.638893,47.792133,5.548773,47.754804,5.500000,47.750000,-6.000000,47.750000,-6.000000,46.250000,5.500000,46.250000,5.548773,46.245196,5.638893,46.207867,
5.707867,46.138893,5.745196,46.048773,5.745196,45.951227,5.707867,45.861107,5.638893,45.792133,5.548773,45.754804,5.500000,45.750000,-6.000000,45.750000,-6.000000,44.250000,5.500000,44.250000,5.548773,44.245196,5.638893,44.207867,5.707867,44.138893,5.745196,44.048773,5.745196,43.951227,5.707867,43.861107,5.638893,43.792133,5.548773,43.754804,5.500000,43.750000,-6.000000,43.750000,
-6.000000,42.250000,5.500000,42.250000,5.548773,42.245196,5.638893,42.207867,5.707867,42.138893,5.745196,42.048773,5.745196,41.951227,5.707867,41.861107,5.638893,41.792133,5.548773,41.754804,5.500000,41.750000,-6.000000,41.750000,-6.000000,40.250000,5.500000,40.250000,5.548773,40.245196,5.638893,40.207867,5.707867,40.138893,5.745196,40.048773,5.745196,39.951227,5.707867,39.861107,
5.638893,39.792133,5.548773,39.754804,5.500000,39.750000,-6.000000,39.750000,-6.000000,38.250000,5.500000,38.250000,5.548773,38.245196,5.638893,38.207867,5.707867,38.138893,5.745196,38.048773,5.745196,37.951227,5.707867,37.861107,5.638893,37.792133,5.548773,37.754804,5.500000,37.750000,-6.000000,37.750000,-6.000000,36.250000,5.500000,36.250000,5.548773,36.245196,5.638893,36.207867,
5.707867,36.138893,5.745196,36.048773,5.745196,35.951227,5.707867,35.861107,5.638893,35.792133,5.548773,35.754804,5.500000,35.750000,-6.000000,35.750000,-6.000000,34.250000,5.500000,34.250000,5.548773,34.245196,5.638893,34.207867,5.707867,34.138893,5.745196,34.048773,5.745196,33.951227,5.707867,33.861107,5.638893,33.792133,5.548773,33.754804,5.500000,33.750000,-6.000000,33.750000,
-6.000000,32.250000,5.500000,32.250000,5.548773,32.245196,5.638893,32.207867,5.707867,32.138893,5.745196,32.048773,5.745196,31.951227,5.707867,31.861107,5.638893,31.792133,5.548773,31.754804,5.500000,31.750000,-6.000000,31.750000,-6.000000,30.250000,5.500000,30.250000,5.548773,30.245196,5.638893,30.207867,5.707867,30.138893,5.745196,30.048773,5.745196,29.951227,5.707867,29.861107,
5.638893,29.792133,5.548773,29.754804,5.500000,29.750000,-6.000000,29.750000,-6.000000,28.250000,5.500000,28.250000,5.548773,28.245196,5.638893,28.207867,5.707867,28.138893,5.745196,28.048773,5.745196,27.951227,5.707867,27.861107,5.638893,27.792133,5.548773,27.754804,5.500000,27.750000,-6.000000,27.750000,-6.000000,26.250000,5.500000,26.250000,5.548773,26.245196,5.638893,26.207867,
5.707867,26.138893,5.745196,26.048773,5.745196,25.951227,5.707867,25.861107,5.638893,25.792133,5.548773,25.754804,5.500000,25.750000,-6.000000,25.750000,-6.000000,24.250000,5.500000,24.250000,5.548773,24.245196,5.638893,24.207867,5.707867,24.138893,5.745196,24.048773,5.745196,23.951227,5.707867,23.861107,5.638893,23.792133,5.548773,23.754804,5.500000,23.750000,-6.000000,23.750000,
-6.000000,22.250000,5.500000,22.250000,5.548773,22.245196,5.638893,22.207867,5.707867,22.138893,5.745196,22.048773,5.745196,21.951227,5.707867,21.861107,5.638893,21.792133,5.548773,21.754804,5.500000,21.750000,-6.000000,21.750000,-6.000000,20.250000,5.500000,20.250000,5.548773,20.245196,5.638893,20.207867,5.707867,20.138893,5.745196,20.048773,5.745196,19.951227,5.707867,19.861107,
5.638893,19.792133,5.548773,19.754804,5.500000,19.750000,-6.000000,19.750000,-6.000000,18.250000,5.500000,18.250000,5.548773,18.245196,5.638893,18.207867,5.707867,18.138893,5.745196,18.048773,5.745196,17.951227,5.707867,17.861107,5.638893,17.792133,5.548773,17.754804,5.500000,17.750000,-6.000000,17.750000,-6.000000,16.250000,5.500000,16.250000,5.548773,16.245196,5.638893,16.207867,
5.707867,16.138893,5.745196,16.048773,5.745196,15.951227,5.707867,15.861107,5.638893,15.792133,5.548773,15.754804,5.500000,15.750000,-6.000000,15.750000,-6.000000,14.250000,5.500000,14.250000,5.548773,14.245196,5.638893,14.207867,5.707867,14.138893,5.745196,14.048773,5.745196,13.951227,5.707867,13.861107,5.638893,13.792133,5.548773,13.754804,5.500000,13.750000,-6.000000,13.750000,
-6.000000,12.250000,5.500000,12.250000,5.548773,12.245196,5.638893,12.207867,5.707867,12.138893,5.745196,12.048773,5.745196,11.951227,5.707867,11.861107,5.638893,11.792133,5.548773,11.754804,5.500000,11.750000,-6.000000,11.750000,-6.000000,10.250000,5.500000,10.250000,5.548773,10.245196,5.638893,10.207867,5.707867,10.138893,5.745196,10.048773,5.745196,9.951227,5.707867,9.861107,
5.638893,9.792133,5.548773,9.754804,5.500000,9.750000,-6.000000,9.750000,-6.000000,8.250000,5.500000,8.250000,5.548773,8.245196,5.638893,8.207867,5.707867,8.138893,5.745196,8.048773,5.745196,7.951227,5.707867,7.861107,5.638893,7.792133,5.548773,7.754804,5.500000,7.750000,-6.000000,7.750000,-6.000000,6.250000,5.500000,6.250000,5.548773,6.245196,5.638893,6.207867,
5.707867,6.138893,5.745196,6.048773,5.745196,5.951227,5.707867,5.861107,5.638893,5.792133,5.548773,5.754804,5.500000,5.750000,-6.000000,5.750000,-6.000000,4.250000,5.500000,4.250000,5.548773,4.245196,5.638893,4.207867,5.707867,4.138893,5.745196,4.048773,5.745196,3.951227,5.707867,3.861107,5.638893,3.792133,5.548773,3.754804,5.500000,3.750000,-6.000000,3.750000,
-6.000000,2.250000,5.500000,2.250000,5.548773,2.245196,5.638893,2.207867,5.707867,2.138893,5.745196,2.048773,5.745196,1.951227,5.707867,1.861107,5.638893,1.792133,5.548773,1.754804,5.500000,1.750000,-6.000000,1.750000,-6.000000,0.200000,6.000000,0.200000,6.000000,-0.200000,-6.000000,-0.200000,-6.000000,-1.250000,-6.003611,-1.323513,-6.032295,-1.467714,-6.088559,-1.603548,
-6.170242,-1.725795,-6.274205,-1.829758,-6.396452,-1.911441,-6.532286,-1.967705,-6.676487,-1.996389,-6.823513,-1.996389,-6.967714,-1.967705,-7.103548,-1.911441,-7.225795,-1.829758,-7.329758,-1.725795,-7.411441,-1.603548,-7.467705,-1.467714,-7.496389,-1.323513,-7.500000,-1.250000,-7.500000,125.250000,-7.496389,125.323513,-7.467705,125.467714,-7.411441,125.603548,-7.329758,125.725795,-7.225795,125.829758,
-7.103548,125.911441,-6.967714,125.967705,-6.823513,125.996389,-6.676487,125.996389,-6.532286,125.967705,-6.532286,125.967705,$1*%
%AMFreePoly4*
4,1,221,8.717714,19.967705,8.853548,19.911441,8.975795,19.829758,9.079758,19.725795,9.161441,19.603548,9.217705,19.467714,9.246389,19.323513,9.250000,19.250000,9.250000,-13.250000,9.246389,-13.323513,9.217705,-13.467714,9.161441,-13.603548,9.079758,-13.725795,8.975795,-13.829758,8.853548,-13.911441,8.717714,-13.967705,8.573513,-13.996389,8.426487,-13.996389,8.282286,-13.967705,8.146452,-13.911441,
8.024205,-13.829758,7.920242,-13.725795,7.838559,-13.603548,7.782295,-13.467714,7.753611,-13.323513,7.750000,-13.250000,7.750000,-12.250000,-8.750000,-12.250000,-8.798773,-12.245196,-8.888893,-12.207867,-8.957867,-12.138893,-8.995196,-12.048773,-8.995196,-11.951227,-8.957867,-11.861107,-8.888893,-11.792133,-8.798773,-11.754804,-8.750000,-11.750000,7.750000,-11.750000,7.750000,-10.250000,-8.750000,-10.250000,
-8.798773,-10.245196,-8.888893,-10.207867,-8.957867,-10.138893,-8.995196,-10.048773,-8.995196,-9.951227,-8.957867,-9.861107,-8.888893,-9.792133,-8.798773,-9.754804,-8.750000,-9.750000,7.750000,-9.750000,7.750000,-8.250000,-8.750000,-8.250000,-8.798773,-8.245196,-8.888893,-8.207867,-8.957867,-8.138893,-8.995196,-8.048773,-8.995196,-7.951227,-8.957867,-7.861107,-8.888893,-7.792133,-8.798773,-7.754804,
-8.750000,-7.750000,7.750000,-7.750000,7.750000,-6.250000,-8.750000,-6.250000,-8.798773,-6.245196,-8.888893,-6.207867,-8.957867,-6.138893,-8.995196,-6.048773,-8.995196,-5.951227,-8.957867,-5.861107,-8.888893,-5.792133,-8.798773,-5.754804,-8.750000,-5.750000,7.750000,-5.750000,7.750000,-4.250000,-8.750000,-4.250000,-8.798773,-4.245196,-8.888893,-4.207867,-8.957867,-4.138893,-8.995196,-4.048773,
-8.995196,-3.951227,-8.957867,-3.861107,-8.888893,-3.792133,-8.798773,-3.754804,-8.750000,-3.750000,7.750000,-3.750000,7.750000,-2.200000,-8.750000,-2.200000,-8.789018,-2.196157,-8.861114,-2.166294,-8.916294,-2.111114,-8.946157,-2.039018,-8.946157,-1.960982,-8.916294,-1.888886,-8.861114,-1.833706,-8.789018,-1.803843,-8.750000,-1.800000,7.750000,-1.800000,7.750000,-0.200000,-9.000000,-0.200000,
-9.000000,0.200000,7.750000,0.200000,7.750000,1.750000,-8.750000,1.750000,-8.798773,1.754804,-8.888893,1.792133,-8.957867,1.861107,-8.995196,1.951227,-8.995196,2.048773,-8.957867,2.138893,-8.888893,2.207867,-8.798773,2.245196,-8.750000,2.250000,7.750000,2.250000,7.750000,3.750000,-8.750000,3.750000,-8.798773,3.754804,-8.888893,3.792133,-8.957867,3.861107,-8.995196,3.951227,
-8.995196,4.048773,-8.957867,4.138893,-8.888893,4.207867,-8.798773,4.245196,-8.750000,4.250000,7.750000,4.250000,7.750000,5.750000,-8.750000,5.750000,-8.798773,5.754804,-8.888893,5.792133,-8.957867,5.861107,-8.995196,5.951227,-8.995196,6.048773,-8.957867,6.138893,-8.888893,6.207867,-8.798773,6.245196,-8.750000,6.250000,7.750000,6.250000,7.750000,7.750000,-13.500000,7.750000,
-13.548773,7.754804,-13.638893,7.792133,-13.707867,7.861107,-13.745196,7.951227,-13.745196,8.048773,-13.707867,8.138893,-13.638893,8.207867,-13.548773,8.245196,-13.500000,8.250000,7.750000,8.250000,7.750000,9.750000,-13.500000,9.750000,-13.548773,9.754804,-13.638893,9.792133,-13.707867,9.861107,-13.745196,9.951227,-13.745196,10.048773,-13.707867,10.138893,-13.638893,10.207867,-13.548773,10.245196,
-13.500000,10.250000,7.750000,10.250000,7.750000,11.750000,-13.500000,11.750000,-13.548773,11.754804,-13.638893,11.792133,-13.707867,11.861107,-13.745196,11.951227,-13.745196,12.048773,-13.707867,12.138893,-13.638893,12.207867,-13.548773,12.245196,-13.500000,12.250000,7.750000,12.250000,7.750000,13.750000,-13.500000,13.750000,-13.548773,13.754804,-13.638893,13.792133,-13.707867,13.861107,-13.745196,13.951227,
-13.745196,14.048773,-13.707867,14.138893,-13.638893,14.207867,-13.548773,14.245196,-13.500000,14.250000,7.750000,14.250000,7.750000,15.750000,-13.500000,15.750000,-13.548773,15.754804,-13.638893,15.792133,-13.707867,15.861107,-13.745196,15.951227,-13.745196,16.048773,-13.707867,16.138893,-13.638893,16.207867,-13.548773,16.245196,-13.500000,16.250000,7.750000,16.250000,7.750000,17.750000,-13.500000,17.750000,
-13.548773,17.754804,-13.638893,17.792133,-13.707867,17.861107,-13.745196,17.951227,-13.745196,18.048773,-13.707867,18.138893,-13.638893,18.207867,-13.548773,18.245196,-13.500000,18.250000,7.750000,18.250000,7.750000,19.250000,7.753611,19.323513,7.782295,19.467714,7.838559,19.603548,7.920242,19.725795,8.024205,19.829758,8.146452,19.911441,8.282286,19.967705,8.426487,19.996389,8.573513,19.996389,
8.717714,19.967705,8.717714,19.967705,$1*%
%AMFreePoly5*
4,1,246,-13.032286,20.967705,-12.896452,20.911441,-12.774205,20.829758,-12.670242,20.725795,-12.588559,20.603548,-12.532295,20.467714,-12.503611,20.323513,-12.500000,20.250000,8.750000,20.250000,8.798773,20.245196,8.888893,20.207867,8.957867,20.138893,8.995196,20.048773,8.995196,19.951227,8.957867,19.861107,8.888893,19.792133,8.798773,19.754804,8.750000,19.750000,-12.500000,19.750000,-12.500000,18.250000,
8.750000,18.250000,8.798773,18.245196,8.888893,18.207867,8.957867,18.138893,8.995196,18.048773,8.995196,17.951227,8.957867,17.861107,8.888893,17.792133,8.798773,17.754804,8.750000,17.750000,-12.500000,17.750000,-12.500000,16.250000,8.750000,16.250000,8.798773,16.245196,8.888893,16.207867,8.957867,16.138893,8.995196,16.048773,8.995196,15.951227,8.957867,15.861107,8.888893,15.792133,
8.798773,15.754804,8.750000,15.750000,-12.500000,15.750000,-12.500000,14.250000,8.750000,14.250000,8.798773,14.245196,8.888893,14.207867,8.957867,14.138893,8.995196,14.048773,8.995196,13.951227,8.957867,13.861107,8.888893,13.792133,8.798773,13.754804,8.750000,13.750000,-12.500000,13.750000,-12.500000,12.250000,8.750000,12.250000,8.798773,12.245196,8.888893,12.207867,8.957867,12.138893,
8.995196,12.048773,8.995196,11.951227,8.957867,11.861107,8.888893,11.792133,8.798773,11.754804,8.750000,11.750000,-12.500000,11.750000,-12.500000,10.250000,8.750000,10.250000,8.798773,10.245196,8.888893,10.207867,8.957867,10.138893,8.995196,10.048773,8.995196,9.951227,8.957867,9.861107,8.888893,9.792133,8.798773,9.754804,8.750000,9.750000,-12.500000,9.750000,-12.500000,8.250000,
8.750000,8.250000,8.798773,8.245196,8.888893,8.207867,8.957867,8.138893,8.995196,8.048773,8.995196,7.951227,8.957867,7.861107,8.888893,7.792133,8.798773,7.754804,8.750000,7.750000,-7.795668,7.750000,-7.782295,7.717714,-7.753611,7.573513,-7.750000,7.500000,-7.750000,6.250000,8.750000,6.250000,8.798773,6.245196,8.888893,6.207867,8.957867,6.138893,8.995196,6.048773,
8.995196,5.951227,8.957867,5.861107,8.888893,5.792133,8.798773,5.754804,8.750000,5.750000,-7.750000,5.750000,-7.750000,4.250000,8.750000,4.250000,8.798773,4.245196,8.888893,4.207867,8.957867,4.138893,8.995196,4.048773,8.995196,3.951227,8.957867,3.861107,8.888893,3.792133,8.798773,3.754804,8.750000,3.750000,-7.750000,3.750000,-7.750000,2.250000,8.750000,2.250000,
8.798773,2.245196,8.888893,2.207867,8.957867,2.138893,8.995196,2.048773,8.995196,1.951227,8.957867,1.861107,8.888893,1.792133,8.798773,1.754804,8.750000,1.750000,-7.750000,1.750000,-7.750000,0.200000,9.000000,0.200000,9.000000,-0.200000,-7.750000,-0.200000,-7.750000,-1.750000,8.750000,-1.750000,8.798773,-1.754804,8.888893,-1.792133,8.957867,-1.861107,8.995196,-1.951227,
8.995196,-2.048773,8.957867,-2.138893,8.888893,-2.207867,8.798773,-2.245196,8.750000,-2.250000,-7.750000,-2.250000,-7.750000,-3.750000,8.750000,-3.750000,8.798773,-3.754804,8.888893,-3.792133,8.957867,-3.861107,8.995196,-3.951227,8.995196,-4.048773,8.957867,-4.138893,8.888893,-4.207867,8.798773,-4.245196,8.750000,-4.250000,-7.750000,-4.250000,-7.750000,-5.750000,8.750000,-5.750000,
8.798773,-5.754804,8.888893,-5.792133,8.957867,-5.861107,8.995196,-5.951227,8.995196,-6.048773,8.957867,-6.138893,8.888893,-6.207867,8.798773,-6.245196,8.750000,-6.250000,-7.750000,-6.250000,-7.750000,-7.750000,8.750000,-7.750000,8.798773,-7.754804,8.888893,-7.792133,8.957867,-7.861107,8.995196,-7.951227,8.995196,-8.048773,8.957867,-8.138893,8.888893,-8.207867,8.798773,-8.245196,
8.750000,-8.250000,-7.750000,-8.250000,-7.750000,-9.750000,8.750000,-9.750000,8.798773,-9.754804,8.888893,-9.792133,8.957867,-9.861107,8.995196,-9.951227,8.995196,-10.048773,8.957867,-10.138893,8.888893,-10.207867,8.798773,-10.245196,8.750000,-10.250000,-7.750000,-10.250000,-7.750000,-11.750000,8.750000,-11.750000,8.798773,-11.754804,8.888893,-11.792133,8.957867,-11.861107,8.995196,-11.951227,
8.995196,-12.048773,8.957867,-12.138893,8.888893,-12.207867,8.798773,-12.245196,8.750000,-12.250000,-7.750000,-12.250000,-7.750000,-12.500000,-7.753611,-12.573513,-7.782295,-12.717714,-7.838559,-12.853548,-7.920242,-12.975795,-8.024205,-13.079758,-8.146452,-13.161441,-8.282286,-13.217705,-8.426487,-13.246389,-8.573513,-13.246389,-8.717714,-13.217705,-8.853548,-13.161441,-8.975795,-13.079758,-9.079758,-12.975795,
-9.161441,-12.853548,-9.217705,-12.717714,-9.246389,-12.573513,-9.250000,-12.500000,-9.250000,6.750000,-13.250000,6.750000,-13.323513,6.753611,-13.467714,6.782295,-13.603548,6.838559,-13.725795,6.920242,-13.829758,7.024205,-13.911441,7.146452,-13.967705,7.282286,-13.996389,7.426487,-14.000000,7.500000,-14.000000,20.250000,-13.996389,20.323513,-13.967705,20.467714,-13.911441,20.603548,-13.829758,20.725795,
-13.725795,20.829758,-13.603548,20.911441,-13.467714,20.967705,-13.323513,20.996389,-13.176487,20.996389,-13.032286,20.967705,-13.032286,20.967705,$1*%
%AMFreePoly6*
4,1,195,6.717714,27.967705,6.853548,27.911441,6.975795,27.829758,7.079758,27.725795,7.161441,27.603548,7.217705,27.467714,7.246389,27.323513,7.250000,27.250000,7.250000,0.000000,7.246389,-0.073513,7.217705,-0.217714,7.161441,-0.353548,7.079758,-0.475795,6.975795,-0.579758,6.853548,-0.661441,6.717714,-0.717705,6.573513,-0.746389,6.426487,-0.746389,6.282286,-0.717705,6.146452,-0.661441,
6.024205,-0.579758,5.920242,-0.475795,5.838559,-0.353548,5.782295,-0.217714,5.778771,-0.200000,-6.000000,-0.200000,-6.000000,0.200000,5.750000,0.200000,5.750000,1.800000,-5.750000,1.800000,-5.789018,1.803843,-5.861114,1.833706,-5.916294,1.888886,-5.946157,1.960982,-5.946157,2.039018,-5.916294,2.111114,-5.861114,2.166294,-5.789018,2.196157,-5.750000,2.200000,5.750000,2.200000,
5.750000,3.750000,-5.750000,3.750000,-5.798773,3.754804,-5.888893,3.792133,-5.957867,3.861107,-5.995196,3.951227,-5.995196,4.048773,-5.957867,4.138893,-5.888893,4.207867,-5.798773,4.245196,-5.750000,4.250000,5.750000,4.250000,5.750000,5.750000,-5.750000,5.750000,-5.798773,5.754804,-5.888893,5.792133,-5.957867,5.861107,-5.995196,5.951227,-5.995196,6.048773,-5.957867,6.138893,
-5.888893,6.207867,-5.798773,6.245196,-5.750000,6.250000,5.750000,6.250000,5.750000,7.750000,-5.750000,7.750000,-5.798773,7.754804,-5.888893,7.792133,-5.957867,7.861107,-5.995196,7.951227,-5.995196,8.048773,-5.957867,8.138893,-5.888893,8.207867,-5.798773,8.245196,-5.750000,8.250000,5.750000,8.250000,5.750000,9.750000,-5.750000,9.750000,-5.798773,9.754804,-5.888893,9.792133,
-5.957867,9.861107,-5.995196,9.951227,-5.995196,10.048773,-5.957867,10.138893,-5.888893,10.207867,-5.798773,10.245196,-5.750000,10.250000,5.750000,10.250000,5.750000,11.750000,-5.750000,11.750000,-5.798773,11.754804,-5.888893,11.792133,-5.957867,11.861107,-5.995196,11.951227,-5.995196,12.048773,-5.957867,12.138893,-5.888893,12.207867,-5.798773,12.245196,-5.750000,12.250000,5.750000,12.250000,
5.750000,13.800000,-5.750000,13.800000,-5.789018,13.803843,-5.861114,13.833706,-5.916294,13.888886,-5.946157,13.960982,-5.946157,14.039018,-5.916294,14.111114,-5.861114,14.166294,-5.789018,14.196157,-5.750000,14.200000,5.750000,14.200000,5.750000,15.750000,-5.750000,15.750000,-5.798773,15.754804,-5.888893,15.792133,-5.957867,15.861107,-5.995196,15.951227,-5.995196,16.048773,-5.957867,16.138893,
-5.888893,16.207867,-5.798773,16.245196,-5.750000,16.250000,5.750000,16.250000,5.750000,17.750000,-5.750000,17.750000,-5.798773,17.754804,-5.888893,17.792133,-5.957867,17.861107,-5.995196,17.951227,-5.995196,18.048773,-5.957867,18.138893,-5.888893,18.207867,-5.798773,18.245196,-5.750000,18.250000,5.750000,18.250000,5.750000,19.750000,-5.750000,19.750000,-5.798773,19.754804,-5.888893,19.792133,
-5.957867,19.861107,-5.995196,19.951227,-5.995196,20.048773,-5.957867,20.138893,-5.888893,20.207867,-5.798773,20.245196,-5.750000,20.250000,5.750000,20.250000,5.750000,21.750000,-5.750000,21.750000,-5.798773,21.754804,-5.888893,21.792133,-5.957867,21.861107,-5.995196,21.951227,-5.995196,22.048773,-5.957867,22.138893,-5.888893,22.207867,-5.798773,22.245196,-5.750000,22.250000,5.750000,22.250000,
5.750000,23.750000,-5.750000,23.750000,-5.798773,23.754804,-5.888893,23.792133,-5.957867,23.861107,-5.995196,23.951227,-5.995196,24.048773,-5.957867,24.138893,-5.888893,24.207867,-5.798773,24.245196,-5.750000,24.250000,5.750000,24.250000,5.750000,25.800000,-5.750000,25.800000,-5.789018,25.803843,-5.861114,25.833706,-5.916294,25.888886,-5.946157,25.960982,-5.946157,26.039018,-5.916294,26.111114,
-5.861114,26.166294,-5.789018,26.196157,-5.750000,26.200000,5.750000,26.200000,5.750000,27.250000,5.753611,27.323513,5.782295,27.467714,5.838559,27.603548,5.920242,27.725795,6.024205,27.829758,6.146452,27.911441,6.282286,27.967705,6.426487,27.996389,6.573513,27.996389,6.717714,27.967705,6.717714,27.967705,$1*%
%AMFreePoly7*
4,1,196,-6.532286,26.967705,-6.396452,26.911441,-6.274205,26.829758,-6.170242,26.725795,-6.088559,26.603548,-6.032295,26.467714,-6.003611,26.323513,-6.000000,26.250000,5.500000,26.250000,5.548773,26.245196,5.638893,26.207867,5.707867,26.138893,5.745196,26.048773,5.745196,25.951227,5.707867,25.861107,5.638893,25.792133,5.548773,25.754804,5.500000,25.750000,-6.000000,25.750000,-6.000000,24.250000,
5.500000,24.250000,5.548773,24.245196,5.638893,24.207867,5.707867,24.138893,5.745196,24.048773,5.745196,23.951227,5.707867,23.861107,5.638893,23.792133,5.548773,23.754804,5.500000,23.750000,-6.000000,23.750000,-6.000000,22.250000,5.500000,22.250000,5.548773,22.245196,5.638893,22.207867,5.707867,22.138893,5.745196,22.048773,5.745196,21.951227,5.707867,21.861107,5.638893,21.792133,
5.548773,21.754804,5.500000,21.750000,-6.000000,21.750000,-6.000000,20.250000,5.500000,20.250000,5.548773,20.245196,5.638893,20.207867,5.707867,20.138893,5.745196,20.048773,5.745196,19.951227,5.707867,19.861107,5.638893,19.792133,5.548773,19.754804,5.500000,19.750000,-6.000000,19.750000,-6.000000,18.250000,5.500000,18.250000,5.548773,18.245196,5.638893,18.207867,5.707867,18.138893,
5.745196,18.048773,5.745196,17.951227,5.707867,17.861107,5.638893,17.792133,5.548773,17.754804,5.500000,17.750000,-6.000000,17.750000,-6.000000,16.250000,5.500000,16.250000,5.548773,16.245196,5.638893,16.207867,5.707867,16.138893,5.745196,16.048773,5.745196,15.951227,5.707867,15.861107,5.638893,15.792133,5.548773,15.754804,5.500000,15.750000,-6.000000,15.750000,-6.000000,14.250000,
5.500000,14.250000,5.548773,14.245196,5.638893,14.207867,5.707867,14.138893,5.745196,14.048773,5.745196,13.951227,5.707867,13.861107,5.638893,13.792133,5.548773,13.754804,5.500000,13.750000,-6.000000,13.750000,-6.000000,12.250000,5.500000,12.250000,5.548773,12.245196,5.638893,12.207867,5.707867,12.138893,5.745196,12.048773,5.745196,11.951227,5.707867,11.861107,5.638893,11.792133,
5.548773,11.754804,5.500000,11.750000,-6.000000,11.750000,-6.000000,10.250000,5.500000,10.250000,5.548773,10.245196,5.638893,10.207867,5.707867,10.138893,5.745196,10.048773,5.745196,9.951227,5.707867,9.861107,5.638893,9.792133,5.548773,9.754804,5.500000,9.750000,-6.000000,9.750000,-6.000000,8.250000,5.500000,8.250000,5.548773,8.245196,5.638893,8.207867,5.707867,8.138893,
5.745196,8.048773,5.745196,7.951227,5.707867,7.861107,5.638893,7.792133,5.548773,7.754804,5.500000,7.750000,-6.000000,7.750000,-6.000000,6.250000,5.500000,6.250000,5.548773,6.245196,5.638893,6.207867,5.707867,6.138893,5.745196,6.048773,5.745196,5.951227,5.707867,5.861107,5.638893,5.792133,5.548773,5.754804,5.500000,5.750000,-6.000000,5.750000,-6.000000,4.250000,
5.500000,4.250000,5.548773,4.245196,5.638893,4.207867,5.707867,4.138893,5.745196,4.048773,5.745196,3.951227,5.707867,3.861107,5.638893,3.792133,5.548773,3.754804,5.500000,3.750000,-6.000000,3.750000,-6.000000,2.250000,5.500000,2.250000,5.548773,2.245196,5.638893,2.207867,5.707867,2.138893,5.745196,2.048773,5.745196,1.951227,5.707867,1.861107,5.638893,1.792133,
5.548773,1.754804,5.500000,1.750000,-6.000000,1.750000,-6.000000,0.200000,6.000000,0.200000,6.000000,-0.200000,-6.000000,-0.200000,-6.000000,-1.250000,-6.003611,-1.323513,-6.032295,-1.467714,-6.088559,-1.603548,-6.170242,-1.725795,-6.274205,-1.829758,-6.396452,-1.911441,-6.532286,-1.967705,-6.676487,-1.996389,-6.823513,-1.996389,-6.967714,-1.967705,-7.103548,-1.911441,-7.225795,-1.829758,
-7.329758,-1.725795,-7.411441,-1.603548,-7.467705,-1.467714,-7.496389,-1.323513,-7.500000,-1.250000,-7.500000,26.250000,-7.496389,26.323513,-7.467705,26.467714,-7.411441,26.603548,-7.329758,26.725795,-7.225795,26.829758,-7.103548,26.911441,-6.967714,26.967705,-6.823513,26.996389,-6.676487,26.996389,-6.532286,26.967705,-6.532286,26.967705,$1*%
%AMFreePoly8*
4,1,170,6.717714,22.967705,6.853548,22.911441,6.975795,22.829758,7.079758,22.725795,7.161441,22.603548,7.217705,22.467714,7.246389,22.323513,7.250000,22.250000,7.250000,0.000000,7.246389,-0.073513,7.217705,-0.217714,7.161441,-0.353548,7.079758,-0.475795,6.975795,-0.579758,6.853548,-0.661441,6.717714,-0.717705,6.573513,-0.746389,6.426487,-0.746389,6.282286,-0.717705,6.146452,-0.661441,
6.024205,-0.579758,5.920242,-0.475795,5.838559,-0.353548,5.782295,-0.217714,5.778771,-0.200000,-6.000000,-0.200000,-6.000000,0.200000,5.750000,0.200000,5.750000,1.800000,-5.750000,1.800000,-5.789018,1.803843,-5.861114,1.833706,-5.916294,1.888886,-5.946157,1.960982,-5.946157,2.039018,-5.916294,2.111114,-5.861114,2.166294,-5.789018,2.196157,-5.750000,2.200000,5.750000,2.200000,
5.750000,3.750000,-5.750000,3.750000,-5.798773,3.754804,-5.888893,3.792133,-5.957867,3.861107,-5.995196,3.951227,-5.995196,4.048773,-5.957867,4.138893,-5.888893,4.207867,-5.798773,4.245196,-5.750000,4.250000,5.750000,4.250000,5.750000,5.750000,-5.750000,5.750000,-5.798773,5.754804,-5.888893,5.792133,-5.957867,5.861107,-5.995196,5.951227,-5.995196,6.048773,-5.957867,6.138893,
-5.888893,6.207867,-5.798773,6.245196,-5.750000,6.250000,5.750000,6.250000,5.750000,7.750000,-5.750000,7.750000,-5.798773,7.754804,-5.888893,7.792133,-5.957867,7.861107,-5.995196,7.951227,-5.995196,8.048773,-5.957867,8.138893,-5.888893,8.207867,-5.798773,8.245196,-5.750000,8.250000,5.750000,8.250000,5.750000,9.750000,-5.750000,9.750000,-5.798773,9.754804,-5.888893,9.792133,
-5.957867,9.861107,-5.995196,9.951227,-5.995196,10.048773,-5.957867,10.138893,-5.888893,10.207867,-5.798773,10.245196,-5.750000,10.250000,5.750000,10.250000,5.750000,11.750000,-5.750000,11.750000,-5.798773,11.754804,-5.888893,11.792133,-5.957867,11.861107,-5.995196,11.951227,-5.995196,12.048773,-5.957867,12.138893,-5.888893,12.207867,-5.798773,12.245196,-5.750000,12.250000,5.750000,12.250000,
5.750000,13.800000,-5.750000,13.800000,-5.789018,13.803843,-5.861114,13.833706,-5.916294,13.888886,-5.946157,13.960982,-5.946157,14.039018,-5.916294,14.111114,-5.861114,14.166294,-5.789018,14.196157,-5.750000,14.200000,5.750000,14.200000,5.750000,15.750000,-5.750000,15.750000,-5.798773,15.754804,-5.888893,15.792133,-5.957867,15.861107,-5.995196,15.951227,-5.995196,16.048773,-5.957867,16.138893,
-5.888893,16.207867,-5.798773,16.245196,-5.750000,16.250000,5.750000,16.250000,5.750000,17.750000,-5.750000,17.750000,-5.798773,17.754804,-5.888893,17.792133,-5.957867,17.861107,-5.995196,17.951227,-5.995196,18.048773,-5.957867,18.138893,-5.888893,18.207867,-5.798773,18.245196,-5.750000,18.250000,5.750000,18.250000,5.750000,19.750000,-5.750000,19.750000,-5.798773,19.754804,-5.888893,19.792133,
-5.957867,19.861107,-5.995196,19.951227,-5.995196,20.048773,-5.957867,20.138893,-5.888893,20.207867,-5.798773,20.245196,-5.750000,20.250000,5.750000,20.250000,5.750000,21.750000,-5.750000,21.750000,-5.798773,21.754804,-5.888893,21.792133,-5.957867,21.861107,-5.995196,21.951227,-5.995196,22.048773,-5.957867,22.138893,-5.888893,22.207867,-5.798773,22.245196,-5.750000,22.250000,5.750000,22.250000,
5.753611,22.323513,5.782295,22.467714,5.838559,22.603548,5.920242,22.725795,6.024205,22.829758,6.146452,22.911441,6.282286,22.967705,6.426487,22.996389,6.573513,22.996389,6.717714,22.967705,6.717714,22.967705,$1*%
%AMFreePoly9*
4,1,161,-6.532286,21.967705,-6.396452,21.911441,-6.274205,21.829758,-6.170242,21.725795,-6.088559,21.603548,-6.032295,21.467714,-6.003611,21.323513,-6.000000,21.250000,-6.000000,20.250000,5.500000,20.250000,5.548773,20.245196,5.638893,20.207867,5.707867,20.138893,5.745196,20.048773,5.745196,19.951227,5.707867,19.861107,5.638893,19.792133,5.548773,19.754804,5.500000,19.750000,-6.000000,19.750000,
-6.000000,18.250000,5.500000,18.250000,5.548773,18.245196,5.638893,18.207867,5.707867,18.138893,5.745196,18.048773,5.745196,17.951227,5.707867,17.861107,5.638893,17.792133,5.548773,17.754804,5.500000,17.750000,-6.000000,17.750000,-6.000000,16.250000,5.500000,16.250000,5.548773,16.245196,5.638893,16.207867,5.707867,16.138893,5.745196,16.048773,5.745196,15.951227,5.707867,15.861107,
5.638893,15.792133,5.548773,15.754804,5.500000,15.750000,-6.000000,15.750000,-6.000000,14.250000,5.500000,14.250000,5.548773,14.245196,5.638893,14.207867,5.707867,14.138893,5.745196,14.048773,5.745196,13.951227,5.707867,13.861107,5.638893,13.792133,5.548773,13.754804,5.500000,13.750000,-6.000000,13.750000,-6.000000,12.250000,5.500000,12.250000,5.548773,12.245196,5.638893,12.207867,
5.707867,12.138893,5.745196,12.048773,5.745196,11.951227,5.707867,11.861107,5.638893,11.792133,5.548773,11.754804,5.500000,11.750000,-6.000000,11.750000,-6.000000,10.250000,5.500000,10.250000,5.548773,10.245196,5.638893,10.207867,5.707867,10.138893,5.745196,10.048773,5.745196,9.951227,5.707867,9.861107,5.638893,9.792133,5.548773,9.754804,5.500000,9.750000,-6.000000,9.750000,
-6.000000,8.250000,5.500000,8.250000,5.548773,8.245196,5.638893,8.207867,5.707867,8.138893,5.745196,8.048773,5.745196,7.951227,5.707867,7.861107,5.638893,7.792133,5.548773,7.754804,5.500000,7.750000,-6.000000,7.750000,-6.000000,6.250000,5.500000,6.250000,5.548773,6.245196,5.638893,6.207867,5.707867,6.138893,5.745196,6.048773,5.745196,5.951227,5.707867,5.861107,
5.638893,5.792133,5.548773,5.754804,5.500000,5.750000,-6.000000,5.750000,-6.000000,4.250000,5.500000,4.250000,5.548773,4.245196,5.638893,4.207867,5.707867,4.138893,5.745196,4.048773,5.745196,3.951227,5.707867,3.861107,5.638893,3.792133,5.548773,3.754804,5.500000,3.750000,-6.000000,3.750000,-6.000000,2.250000,5.500000,2.250000,5.548773,2.245196,5.638893,2.207867,
5.707867,2.138893,5.745196,2.048773,5.745196,1.951227,5.707867,1.861107,5.638893,1.792133,5.548773,1.754804,5.500000,1.750000,-6.000000,1.750000,-6.000000,0.200000,6.000000,0.200000,6.000000,-0.200000,-6.000000,-0.200000,-6.000000,-1.250000,-6.003611,-1.323513,-6.032295,-1.467714,-6.088559,-1.603548,-6.170242,-1.725795,-6.274205,-1.829758,-6.396452,-1.911441,-6.532286,-1.967705,
-6.676487,-1.996389,-6.823513,-1.996389,-6.967714,-1.967705,-7.103548,-1.911441,-7.225795,-1.829758,-7.329758,-1.725795,-7.411441,-1.603548,-7.467705,-1.467714,-7.496389,-1.323513,-7.500000,-1.250000,-7.500000,21.250000,-7.496389,21.323513,-7.467705,21.467714,-7.411441,21.603548,-7.329758,21.725795,-7.225795,21.829758,-7.103548,21.911441,-6.967714,21.967705,-6.823513,21.996389,-6.676487,21.996389,
-6.532286,21.967705,-6.532286,21.967705,$1*%
%AMFreePoly10*
4,1,255,6.717714,37.967705,6.853548,37.911441,6.975795,37.829758,7.079758,37.725795,7.161441,37.603548,7.217705,37.467714,7.246389,37.323513,7.250000,37.250000,7.250000,0.000000,7.246389,-0.073513,7.217705,-0.217714,7.161441,-0.353548,7.079758,-0.475795,6.975795,-0.579758,6.853548,-0.661441,6.717714,-0.717705,6.573513,-0.746389,6.426487,-0.746389,6.282286,-0.717705,6.146452,-0.661441,
6.024205,-0.579758,5.920242,-0.475795,5.838559,-0.353548,5.782295,-0.217714,5.778771,-0.200000,-6.000000,-0.200000,-6.000000,0.200000,5.750000,0.200000,5.750000,1.750000,-5.750000,1.750000,-5.798773,1.754804,-5.888893,1.792133,-5.957867,1.861107,-5.995196,1.951227,-5.995196,2.048773,-5.957867,2.138893,-5.888893,2.207867,-5.798773,2.245196,-5.750000,2.250000,5.750000,2.250000,
5.750000,3.750000,-5.750000,3.750000,-5.798773,3.754804,-5.888893,3.792133,-5.957867,3.861107,-5.995196,3.951227,-5.995196,4.048773,-5.957867,4.138893,-5.888893,4.207867,-5.798773,4.245196,-5.750000,4.250000,5.750000,4.250000,5.750000,5.750000,-5.750000,5.750000,-5.798773,5.754804,-5.888893,5.792133,-5.957867,5.861107,-5.995196,5.951227,-5.995196,6.048773,-5.957867,6.138893,
-5.888893,6.207867,-5.798773,6.245196,-5.750000,6.250000,5.750000,6.250000,5.750000,7.750000,-5.750000,7.750000,-5.798773,7.754804,-5.888893,7.792133,-5.957867,7.861107,-5.995196,7.951227,-5.995196,8.048773,-5.957867,8.138893,-5.888893,8.207867,-5.798773,8.245196,-5.750000,8.250000,5.750000,8.250000,5.750000,9.750000,-5.750000,9.750000,-5.798773,9.754804,-5.888893,9.792133,
-5.957867,9.861107,-5.995196,9.951227,-5.995196,10.048773,-5.957867,10.138893,-5.888893,10.207867,-5.798773,10.245196,-5.750000,10.250000,5.750000,10.250000,5.750000,11.750000,-5.750000,11.750000,-5.798773,11.754804,-5.888893,11.792133,-5.957867,11.861107,-5.995196,11.951227,-5.995196,12.048773,-5.957867,12.138893,-5.888893,12.207867,-5.798773,12.245196,-5.750000,12.250000,5.750000,12.250000,
5.750000,13.750000,-5.750000,13.750000,-5.798773,13.754804,-5.888893,13.792133,-5.957867,13.861107,-5.995196,13.951227,-5.995196,14.048773,-5.957867,14.138893,-5.888893,14.207867,-5.798773,14.245196,-5.750000,14.250000,5.750000,14.250000,5.750000,15.750000,-5.750000,15.750000,-5.798773,15.754804,-5.888893,15.792133,-5.957867,15.861107,-5.995196,15.951227,-5.995196,16.048773,-5.957867,16.138893,
-5.888893,16.207867,-5.798773,16.245196,-5.750000,16.250000,5.750000,16.250000,5.750000,17.750000,-5.750000,17.750000,-5.798773,17.754804,-5.888893,17.792133,-5.957867,17.861107,-5.995196,17.951227,-5.995196,18.048773,-5.957867,18.138893,-5.888893,18.207867,-5.798773,18.245196,-5.750000,18.250000,5.750000,18.250000,5.750000,19.750000,-5.750000,19.750000,-5.798773,19.754804,-5.888893,19.792133,
-5.957867,19.861107,-5.995196,19.951227,-5.995196,20.048773,-5.957867,20.138893,-5.888893,20.207867,-5.798773,20.245196,-5.750000,20.250000,5.750000,20.250000,5.750000,21.750000,-5.750000,21.750000,-5.798773,21.754804,-5.888893,21.792133,-5.957867,21.861107,-5.995196,21.951227,-5.995196,22.048773,-5.957867,22.138893,-5.888893,22.207867,-5.798773,22.245196,-5.750000,22.250000,5.750000,22.250000,
5.750000,23.750000,-5.750000,23.750000,-5.798773,23.754804,-5.888893,23.792133,-5.957867,23.861107,-5.995196,23.951227,-5.995196,24.048773,-5.957867,24.138893,-5.888893,24.207867,-5.798773,24.245196,-5.750000,24.250000,5.750000,24.250000,5.750000,25.750000,-5.750000,25.750000,-5.798773,25.754804,-5.888893,25.792133,-5.957867,25.861107,-5.995196,25.951227,-5.995196,26.048773,-5.957867,26.138893,
-5.888893,26.207867,-5.798773,26.245196,-5.750000,26.250000,5.750000,26.250000,5.750000,27.750000,-5.750000,27.750000,-5.798773,27.754804,-5.888893,27.792133,-5.957867,27.861107,-5.995196,27.951227,-5.995196,28.048773,-5.957867,28.138893,-5.888893,28.207867,-5.798773,28.245196,-5.750000,28.250000,5.750000,28.250000,5.750000,29.750000,-5.750000,29.750000,-5.798773,29.754804,-5.888893,29.792133,
-5.957867,29.861107,-5.995196,29.951227,-5.995196,30.048773,-5.957867,30.138893,-5.888893,30.207867,-5.798773,30.245196,-5.750000,30.250000,5.750000,30.250000,5.750000,31.750000,-5.750000,31.750000,-5.798773,31.754804,-5.888893,31.792133,-5.957867,31.861107,-5.995196,31.951227,-5.995196,32.048773,-5.957867,32.138893,-5.888893,32.207867,-5.798773,32.245196,-5.750000,32.250000,5.750000,32.250000,
5.750000,33.750000,-5.750000,33.750000,-5.798773,33.754804,-5.888893,33.792133,-5.957867,33.861107,-5.995196,33.951227,-5.995196,34.048773,-5.957867,34.138893,-5.888893,34.207867,-5.798773,34.245196,-5.750000,34.250000,5.750000,34.250000,5.750000,35.750000,-5.750000,35.750000,-5.798773,35.754804,-5.888893,35.792133,-5.957867,35.861107,-5.995196,35.951227,-5.995196,36.048773,-5.957867,36.138893,
-5.888893,36.207867,-5.798773,36.245196,-5.750000,36.250000,5.750000,36.250000,5.750000,37.250000,5.753611,37.323513,5.782295,37.467714,5.838559,37.603548,5.920242,37.725795,6.024205,37.829758,6.146452,37.911441,6.282286,37.967705,6.426487,37.996389,6.573513,37.996389,6.717714,37.967705,6.717714,37.967705,$1*%
%AMFreePoly11*
4,1,256,-6.532286,36.967705,-6.396452,36.911441,-6.274205,36.829758,-6.170242,36.725795,-6.088559,36.603548,-6.032295,36.467714,-6.003611,36.323513,-6.000000,36.250000,5.500000,36.250000,5.548773,36.245196,5.638893,36.207867,5.707867,36.138893,5.745196,36.048773,5.745196,35.951227,5.707867,35.861107,5.638893,35.792133,5.548773,35.754804,5.500000,35.750000,-6.000000,35.750000,-6.000000,34.250000,
5.500000,34.250000,5.548773,34.245196,5.638893,34.207867,5.707867,34.138893,5.745196,34.048773,5.745196,33.951227,5.707867,33.861107,5.638893,33.792133,5.548773,33.754804,5.500000,33.750000,-6.000000,33.750000,-6.000000,32.250000,5.500000,32.250000,5.548773,32.245196,5.638893,32.207867,5.707867,32.138893,5.745196,32.048773,5.745196,31.951227,5.707867,31.861107,5.638893,31.792133,
5.548773,31.754804,5.500000,31.750000,-6.000000,31.750000,-6.000000,30.250000,5.500000,30.250000,5.548773,30.245196,5.638893,30.207867,5.707867,30.138893,5.745196,30.048773,5.745196,29.951227,5.707867,29.861107,5.638893,29.792133,5.548773,29.754804,5.500000,29.750000,-6.000000,29.750000,-6.000000,28.250000,5.500000,28.250000,5.548773,28.245196,5.638893,28.207867,5.707867,28.138893,
5.745196,28.048773,5.745196,27.951227,5.707867,27.861107,5.638893,27.792133,5.548773,27.754804,5.500000,27.750000,-6.000000,27.750000,-6.000000,26.250000,5.500000,26.250000,5.548773,26.245196,5.638893,26.207867,5.707867,26.138893,5.745196,26.048773,5.745196,25.951227,5.707867,25.861107,5.638893,25.792133,5.548773,25.754804,5.500000,25.750000,-6.000000,25.750000,-6.000000,24.250000,
5.500000,24.250000,5.548773,24.245196,5.638893,24.207867,5.707867,24.138893,5.745196,24.048773,5.745196,23.951227,5.707867,23.861107,5.638893,23.792133,5.548773,23.754804,5.500000,23.750000,-6.000000,23.750000,-6.000000,22.250000,5.500000,22.250000,5.548773,22.245196,5.638893,22.207867,5.707867,22.138893,5.745196,22.048773,5.745196,21.951227,5.707867,21.861107,5.638893,21.792133,
5.548773,21.754804,5.500000,21.750000,-6.000000,21.750000,-6.000000,20.250000,5.500000,20.250000,5.548773,20.245196,5.638893,20.207867,5.707867,20.138893,5.745196,20.048773,5.745196,19.951227,5.707867,19.861107,5.638893,19.792133,5.548773,19.754804,5.500000,19.750000,-6.000000,19.750000,-6.000000,18.250000,5.500000,18.250000,5.548773,18.245196,5.638893,18.207867,5.707867,18.138893,
5.745196,18.048773,5.745196,17.951227,5.707867,17.861107,5.638893,17.792133,5.548773,17.754804,5.500000,17.750000,-6.000000,17.750000,-6.000000,16.250000,5.500000,16.250000,5.548773,16.245196,5.638893,16.207867,5.707867,16.138893,5.745196,16.048773,5.745196,15.951227,5.707867,15.861107,5.638893,15.792133,5.548773,15.754804,5.500000,15.750000,-6.000000,15.750000,-6.000000,14.250000,
5.500000,14.250000,5.548773,14.245196,5.638893,14.207867,5.707867,14.138893,5.745196,14.048773,5.745196,13.951227,5.707867,13.861107,5.638893,13.792133,5.548773,13.754804,5.500000,13.750000,-6.000000,13.750000,-6.000000,12.250000,5.500000,12.250000,5.548773,12.245196,5.638893,12.207867,5.707867,12.138893,5.745196,12.048773,5.745196,11.951227,5.707867,11.861107,5.638893,11.792133,
5.548773,11.754804,5.500000,11.750000,-6.000000,11.750000,-6.000000,10.250000,5.500000,10.250000,5.548773,10.245196,5.638893,10.207867,5.707867,10.138893,5.745196,10.048773,5.745196,9.951227,5.707867,9.861107,5.638893,9.792133,5.548773,9.754804,5.500000,9.750000,-6.000000,9.750000,-6.000000,8.250000,5.500000,8.250000,5.548773,8.245196,5.638893,8.207867,5.707867,8.138893,
5.745196,8.048773,5.745196,7.951227,5.707867,7.861107,5.638893,7.792133,5.548773,7.754804,5.500000,7.750000,-6.000000,7.750000,-6.000000,6.250000,5.500000,6.250000,5.548773,6.245196,5.638893,6.207867,5.707867,6.138893,5.745196,6.048773,5.745196,5.951227,5.707867,5.861107,5.638893,5.792133,5.548773,5.754804,5.500000,5.750000,-6.000000,5.750000,-6.000000,4.250000,
5.500000,4.250000,5.548773,4.245196,5.638893,4.207867,5.707867,4.138893,5.745196,4.048773,5.745196,3.951227,5.707867,3.861107,5.638893,3.792133,5.548773,3.754804,5.500000,3.750000,-6.000000,3.750000,-6.000000,2.250000,5.500000,2.250000,5.548773,2.245196,5.638893,2.207867,5.707867,2.138893,5.745196,2.048773,5.745196,1.951227,5.707867,1.861107,5.638893,1.792133,
5.548773,1.754804,5.500000,1.750000,-6.000000,1.750000,-6.000000,0.200000,6.000000,0.200000,6.000000,-0.200000,-6.000000,-0.200000,-6.000000,-1.250000,-6.003611,-1.323513,-6.032295,-1.467714,-6.088559,-1.603548,-6.170242,-1.725795,-6.274205,-1.829758,-6.396452,-1.911441,-6.532286,-1.967705,-6.676487,-1.996389,-6.823513,-1.996389,-6.967714,-1.967705,-7.103548,-1.911441,-7.225795,-1.829758,
-7.329758,-1.725795,-7.411441,-1.603548,-7.467705,-1.467714,-7.496389,-1.323513,-7.500000,-1.250000,-7.500000,36.250000,-7.496389,36.323513,-7.467705,36.467714,-7.411441,36.603548,-7.329758,36.725795,-7.225795,36.829758,-7.103548,36.911441,-6.967714,36.967705,-6.823513,36.996389,-6.676487,36.996389,-6.532286,36.967705,-6.532286,36.967705,$1*%
G04 Aperture macros list end*
%ADD10FreePoly0,0.000000*%
%ADD11FreePoly1,0.000000*%
%ADD12FreePoly2,90.000000*%
%ADD13FreePoly3,90.000000*%
%ADD14FreePoly4,0.000000*%
%ADD15FreePoly5,0.000000*%
%ADD16FreePoly6,270.000000*%
%ADD17FreePoly7,270.000000*%
%ADD18FreePoly8,270.000000*%
%ADD19FreePoly9,270.000000*%
%ADD20FreePoly10,270.000000*%
%ADD21FreePoly11,270.000000*%
G04 APERTURE END LIST*
D10*
X78500000Y-103750000D03*
D11*
X79500000Y-104750000D03*
D10*
X97500000Y-103750000D03*
D11*
X98500000Y-104750000D03*
D10*
X344500000Y-103750000D03*
D11*
X345500000Y-104750000D03*
D10*
X273600000Y-160850000D03*
D11*
X274600000Y-161850000D03*
D10*
X302100000Y-141850000D03*
D11*
X303100000Y-142850000D03*
D10*
X307100000Y-179350000D03*
D11*
X308100000Y-180350000D03*
D10*
X254600000Y-160850000D03*
D11*
X255600000Y-161850000D03*
D10*
X292600000Y-160850000D03*
D11*
X293600000Y-161850000D03*
D10*
X98100000Y-179350000D03*
D11*
X99100000Y-180350000D03*
D10*
X326100000Y-179350000D03*
D11*
X327100000Y-180350000D03*
D10*
X235600000Y-160850000D03*
D11*
X236600000Y-161850000D03*
D10*
X288100000Y-179350000D03*
D11*
X289100000Y-180350000D03*
D10*
X79100000Y-179350000D03*
D11*
X80100000Y-180350000D03*
D10*
X136100000Y-179350000D03*
D11*
X137100000Y-180350000D03*
D10*
X216600000Y-160850000D03*
D11*
X217600000Y-161850000D03*
D10*
X197600000Y-160850000D03*
D11*
X198600000Y-161850000D03*
D10*
X117100000Y-179350000D03*
D11*
X118100000Y-180350000D03*
D10*
X345100000Y-179350000D03*
D11*
X346100000Y-180350000D03*
D12*
X275050000Y-185500000D03*
D13*
X274050000Y-186250000D03*
D10*
X345100000Y-160950000D03*
D11*
X346100000Y-161950000D03*
D14*
X343750000Y-141750000D03*
D15*
X342000000Y-142750000D03*
D16*
X305750000Y-167900000D03*
D17*
X306750000Y-167150000D03*
D16*
X72050000Y-148800000D03*
D17*
X73050000Y-148050000D03*
D18*
X72000000Y-130150000D03*
D19*
X73000000Y-129400000D03*
D20*
X72350000Y-168250000D03*
D21*
X73350000Y-167500000D03*
D10*
X283100000Y-141850000D03*
D11*
X284100000Y-142850000D03*
D10*
X297300000Y-122750000D03*
D11*
X298300000Y-123750000D03*
D10*
X245100000Y-141850000D03*
D11*
X246100000Y-142850000D03*
D10*
X264100000Y-141850000D03*
D11*
X265100000Y-142850000D03*
D10*
X321100000Y-141850000D03*
D11*
X322100000Y-142850000D03*
D10*
X240300000Y-122750000D03*
D11*
X241300000Y-123750000D03*
D10*
X150100000Y-141850000D03*
D11*
X151100000Y-142850000D03*
D10*
X140600000Y-160850000D03*
D11*
X141600000Y-161850000D03*
D10*
X306500000Y-103750000D03*
D11*
X307500000Y-104750000D03*
D10*
X112100000Y-141850000D03*
D11*
X113100000Y-142850000D03*
D10*
X154500000Y-103750000D03*
D11*
X155500000Y-104750000D03*
D10*
X221300000Y-122750000D03*
D11*
X222300000Y-123750000D03*
D10*
X316300000Y-122750000D03*
D11*
X317300000Y-123750000D03*
D10*
X131100000Y-141850000D03*
D11*
X132100000Y-142850000D03*
D10*
X188100000Y-141850000D03*
D11*
X189100000Y-142850000D03*
D10*
X268500000Y-103750000D03*
D11*
X269500000Y-104750000D03*
D10*
X325500000Y-103750000D03*
D11*
X326500000Y-104750000D03*
D10*
X211500000Y-103750000D03*
D11*
X212500000Y-104750000D03*
D10*
X135500000Y-103750000D03*
D11*
X136500000Y-104750000D03*
D10*
X207100000Y-141850000D03*
D11*
X208100000Y-142850000D03*
D10*
X107300000Y-122750000D03*
D11*
X108300000Y-123750000D03*
D10*
X202300000Y-122750000D03*
D11*
X203300000Y-123750000D03*
D10*
X192500000Y-103750000D03*
D11*
X193500000Y-104750000D03*
D10*
X145300000Y-122750000D03*
D11*
X146300000Y-123750000D03*
D10*
X278300000Y-122750000D03*
D11*
X279300000Y-123750000D03*
D10*
X226100000Y-141850000D03*
D11*
X227100000Y-142850000D03*
D10*
X121600000Y-160850000D03*
D11*
X122600000Y-161850000D03*
D10*
X169100000Y-141850000D03*
D11*
X170100000Y-142850000D03*
D10*
X126300000Y-122750000D03*
D11*
X127300000Y-123750000D03*
D10*
X287500000Y-103750000D03*
D11*
X288500000Y-104750000D03*
D10*
X178600000Y-160850000D03*
D11*
X179600000Y-161850000D03*
D10*
X164300000Y-122750000D03*
D11*
X165300000Y-123750000D03*
D10*
X249500000Y-103750000D03*
D11*
X250500000Y-104750000D03*
D10*
X116500000Y-103750000D03*
D11*
X117500000Y-104750000D03*
D10*
X173500000Y-103750000D03*
D11*
X174500000Y-104750000D03*
D10*
X159600000Y-160850000D03*
D11*
X160600000Y-161850000D03*
D10*
X230500000Y-103750000D03*
D11*
X231500000Y-104750000D03*
D10*
X183300000Y-122750000D03*
D11*
X184300000Y-123750000D03*
D10*
X259300000Y-122750000D03*
D11*
X260300000Y-123750000D03*
M02*
