G04 #@! TF.GenerationSoftware,KiCad,Pcbnew,8.0.4-8.0.4-0~ubuntu22.04.1*
G04 #@! TF.CreationDate,2024-08-25T13:27:24+01:00*
G04 #@! TF.ProjectId,membrane1,6d656d62-7261-46e6-9531-2e6b69636164,V1.1*
G04 #@! TF.SameCoordinates,Original*
G04 #@! TF.FileFunction,Copper,L2,Bot*
G04 #@! TF.FilePolarity,Positive*
%FSLAX46Y46*%
G04 Gerber Fmt 4.6, Leading zero omitted, Abs format (unit mm)*
G04 Created by KiCad (PCBNEW 8.0.4-8.0.4-0~ubuntu22.04.1) date 2024-08-25 13:27:24*
%MOMM*%
%LPD*%
G01*
G04 APERTURE LIST*
G04 #@! TA.AperFunction,SMDPad,CuDef*
%ADD10R,0.900000X2.000000*%
G04 #@! TD*
G04 #@! TA.AperFunction,ViaPad*
%ADD11C,0.800000*%
G04 #@! TD*
G04 #@! TA.AperFunction,Conductor*
%ADD12C,0.250000*%
G04 #@! TD*
G04 APERTURE END LIST*
D10*
X279450000Y-75240000D03*
X281450000Y-78440000D03*
X283450000Y-75240000D03*
X285450000Y-78440000D03*
X287450000Y-75240000D03*
X289450000Y-78440000D03*
X291450000Y-75240000D03*
X293450000Y-78440000D03*
X306182000Y-75108000D03*
X308182000Y-78308000D03*
X310182000Y-75108000D03*
X312182000Y-78308000D03*
X314182000Y-75108000D03*
X316182000Y-78308000D03*
X318182000Y-75108000D03*
X320182000Y-78308000D03*
D11*
X204200000Y-158800000D03*
X202300000Y-121200000D03*
X198400000Y-159200000D03*
X338200000Y-98500000D03*
X295460000Y-97800000D03*
X199100000Y-142700000D03*
X338100000Y-102000000D03*
X203400000Y-118800000D03*
X206800000Y-158900000D03*
X295503600Y-91425825D03*
X297700000Y-117700000D03*
X217500000Y-151900000D03*
X300700000Y-101600000D03*
X336500000Y-179900000D03*
X160900000Y-140900000D03*
X161400000Y-175600000D03*
X335400000Y-118800000D03*
X220000000Y-175400000D03*
X156600000Y-119000000D03*
X220400000Y-137900000D03*
X297600000Y-138600000D03*
X160900000Y-137400000D03*
X301400000Y-96900000D03*
X290470000Y-96900000D03*
X156600000Y-121600000D03*
X290423600Y-91413600D03*
X122500000Y-154900000D03*
X270300000Y-122000000D03*
X285400000Y-118800000D03*
X277500000Y-137500000D03*
X307800000Y-123200000D03*
X309500000Y-119100000D03*
X270200000Y-118300000D03*
X265100000Y-176100000D03*
X109000000Y-102000000D03*
X279300000Y-176300000D03*
X268500000Y-176375000D03*
X279700000Y-194300000D03*
X285310000Y-91490000D03*
X110300000Y-137800000D03*
X125500000Y-175775000D03*
X117300000Y-121400000D03*
X280250000Y-91480000D03*
X69875000Y-179600000D03*
X312100000Y-145800000D03*
X303200000Y-177000000D03*
X280260000Y-95500000D03*
X303300000Y-157000000D03*
X70400000Y-118600000D03*
X306070000Y-96300000D03*
X336600000Y-99000000D03*
X336700000Y-161000000D03*
X184500000Y-158800000D03*
X177700000Y-119300000D03*
X292960000Y-100390000D03*
X179400000Y-142700000D03*
X232300000Y-120400000D03*
X187600000Y-158800000D03*
X240000000Y-100600000D03*
X177700000Y-121300000D03*
X336400000Y-101900000D03*
X175300000Y-138400000D03*
X179600000Y-159000000D03*
X292910000Y-98575000D03*
X292950000Y-91410000D03*
X317700000Y-191600000D03*
X287880000Y-91420000D03*
X241300000Y-140325000D03*
X142300000Y-118400000D03*
X222800000Y-139200000D03*
X143000000Y-139500000D03*
X149800000Y-159500000D03*
X287920000Y-101440000D03*
X210600000Y-139800000D03*
X319800000Y-196100000D03*
X242100000Y-101500000D03*
X241300000Y-194975000D03*
X242000000Y-138300000D03*
X277100000Y-178100000D03*
X274100000Y-155400000D03*
X101100000Y-137900000D03*
X255600000Y-141700000D03*
X282803600Y-91460000D03*
X103000000Y-176475000D03*
X91300000Y-118800000D03*
X261900000Y-96900000D03*
X257400000Y-137500000D03*
X147000000Y-179500000D03*
X292400000Y-138425000D03*
X149600000Y-175800000D03*
X282740000Y-96600000D03*
X102400000Y-144200000D03*
X288800000Y-135100000D03*
X95900000Y-126700000D03*
X260300000Y-102700000D03*
X274300000Y-119600000D03*
X72700000Y-157400000D03*
X108400000Y-195700000D03*
X246900000Y-156600000D03*
X277700000Y-91520000D03*
X73500000Y-176475000D03*
X72300000Y-138700000D03*
X246400000Y-173800000D03*
X75700000Y-178000000D03*
X277800000Y-157075000D03*
X108100000Y-179100000D03*
X246500000Y-195700000D03*
X322330000Y-91360000D03*
X323300000Y-157800000D03*
X276100000Y-120800000D03*
X317250000Y-91347775D03*
X326800000Y-121100000D03*
X328600000Y-137700000D03*
X330100000Y-142000000D03*
X239200000Y-117900000D03*
X278100000Y-116900000D03*
X237800000Y-121200000D03*
X296900000Y-156900000D03*
X288100000Y-125600000D03*
X317246000Y-119888000D03*
X316800000Y-158600000D03*
X220700000Y-116300000D03*
X312170000Y-91390575D03*
X228900000Y-140300000D03*
X292400000Y-155000000D03*
X220500000Y-121500000D03*
X230500000Y-135300000D03*
X230000000Y-158900000D03*
X289800000Y-158800000D03*
X225500000Y-119400000D03*
X89100000Y-179300000D03*
X114800000Y-120300000D03*
X114700000Y-139200000D03*
X88800000Y-158600000D03*
X307076400Y-91414175D03*
X308064000Y-99300000D03*
X225300000Y-99300000D03*
X114700000Y-158500000D03*
X319532000Y-119700000D03*
X70600000Y-195700000D03*
X319776400Y-91344175D03*
X70700000Y-158700000D03*
X127000000Y-196600000D03*
X287600000Y-176000000D03*
X127000000Y-191500000D03*
X286800000Y-197550000D03*
X295100000Y-118700000D03*
X324700000Y-137400000D03*
X314735400Y-91325175D03*
X304100000Y-162200000D03*
X334900000Y-104600000D03*
X334900000Y-100000000D03*
X314800000Y-100100000D03*
X325300000Y-158500000D03*
X295200000Y-121100000D03*
X304300000Y-176300000D03*
X316200000Y-176600000D03*
X216700000Y-154800000D03*
X106100000Y-196900000D03*
X297000000Y-196825000D03*
X218000000Y-196600000D03*
X297900000Y-178800000D03*
X119800000Y-196500000D03*
X107000000Y-193400000D03*
X119100000Y-157900000D03*
X309630000Y-91394175D03*
X124200000Y-95000000D03*
X143700000Y-94700000D03*
X161600000Y-101300000D03*
X304526400Y-91454175D03*
X105000000Y-94900000D03*
X86400000Y-94700000D03*
X105000000Y-101700000D03*
X199200000Y-93800000D03*
X161800000Y-94700000D03*
X143700000Y-101300000D03*
X181100000Y-94300000D03*
X124300000Y-101000000D03*
X199600000Y-100400000D03*
X86600000Y-101700000D03*
X180900000Y-101200000D03*
D12*
X295503600Y-91425825D02*
X293450000Y-89372225D01*
X204200000Y-158800000D02*
X206700000Y-158800000D01*
X202300000Y-121200000D02*
X202300000Y-139500000D01*
X295460000Y-97800000D02*
X295500000Y-97760000D01*
X293450000Y-89372225D02*
X293450000Y-77770000D01*
X295500000Y-91429425D02*
X295503600Y-91425825D01*
X199100000Y-158500000D02*
X198400000Y-159200000D01*
X338200000Y-98500000D02*
X338200000Y-101900000D01*
X338200000Y-101900000D02*
X338100000Y-102000000D01*
X202300000Y-139500000D02*
X199100000Y-142700000D01*
X203400000Y-118800000D02*
X203400000Y-120100000D01*
X206700000Y-158800000D02*
X206800000Y-158900000D01*
X199100000Y-142700000D02*
X199100000Y-158500000D01*
X295500000Y-97760000D02*
X295500000Y-91429425D01*
X203400000Y-120100000D02*
X202300000Y-121200000D01*
X220100000Y-151900000D02*
X220400000Y-151600000D01*
X217500000Y-151900000D02*
X220100000Y-151900000D01*
X289450000Y-90440000D02*
X289450000Y-77770000D01*
X301400000Y-100900000D02*
X300700000Y-101600000D01*
X301400000Y-96900000D02*
X301400000Y-100900000D01*
X290423600Y-96853600D02*
X290470000Y-96900000D01*
X156600000Y-121600000D02*
X156600000Y-119000000D01*
X160900000Y-175100000D02*
X161400000Y-175600000D01*
X220400000Y-175000000D02*
X220000000Y-175400000D01*
X297700000Y-117700000D02*
X297700000Y-138500000D01*
X220400000Y-140100000D02*
X220400000Y-175000000D01*
X336500000Y-179900000D02*
X335400000Y-178800000D01*
X290423600Y-91413600D02*
X290423600Y-96853600D01*
X335400000Y-178800000D02*
X335400000Y-118800000D01*
X220400000Y-137900000D02*
X220400000Y-140100000D01*
X160900000Y-140900000D02*
X160900000Y-137400000D01*
X297700000Y-138500000D02*
X297600000Y-138600000D01*
X290423600Y-91413600D02*
X289450000Y-90440000D01*
X160900000Y-140900000D02*
X160900000Y-175100000D01*
X309500000Y-119100000D02*
X307800000Y-120800000D01*
X279300000Y-176300000D02*
X279700000Y-176700000D01*
X116100000Y-118700000D02*
X111800000Y-118700000D01*
X109000000Y-102000000D02*
X110300000Y-103300000D01*
X116800000Y-159200000D02*
X116000000Y-160000000D01*
X285200000Y-118600000D02*
X285400000Y-118800000D01*
X268200000Y-176100000D02*
X268475000Y-176375000D01*
X120526998Y-155400000D02*
X116800000Y-159126998D01*
X114000000Y-160000000D02*
X110300000Y-156300000D01*
X110300000Y-138365685D02*
X110300000Y-137900000D01*
X279700000Y-176700000D02*
X279700000Y-194300000D01*
X110300000Y-156300000D02*
X110300000Y-138365685D01*
X285200000Y-91540000D02*
X285200000Y-118600000D01*
X285250000Y-91490000D02*
X285200000Y-91540000D01*
X270300000Y-118400000D02*
X270200000Y-118300000D01*
X121026998Y-154900000D02*
X120526998Y-155400000D01*
X122500000Y-154900000D02*
X121026998Y-154900000D01*
X116800000Y-159126998D02*
X116800000Y-159200000D01*
X307800000Y-120800000D02*
X307800000Y-123200000D01*
X117699999Y-121000001D02*
X117699999Y-120299999D01*
X110300000Y-103300000D02*
X110300000Y-137800000D01*
X110800000Y-119700000D02*
X110300000Y-119700000D01*
X116000000Y-160000000D02*
X114000000Y-160000000D01*
X279300000Y-176300000D02*
X279300000Y-139300000D01*
X285450000Y-91350000D02*
X285450000Y-77770000D01*
X111800000Y-118700000D02*
X110800000Y-119700000D01*
X279300000Y-139300000D02*
X277500000Y-137500000D01*
X270300000Y-122000000D02*
X270300000Y-118400000D01*
X268475000Y-176375000D02*
X268500000Y-176375000D01*
X285310000Y-91490000D02*
X285450000Y-91350000D01*
X117300000Y-121400000D02*
X117699999Y-121000001D01*
X117699999Y-120299999D02*
X116100000Y-118700000D01*
X124900000Y-175175000D02*
X125500000Y-175775000D01*
X265100000Y-176100000D02*
X268200000Y-176100000D01*
X124900000Y-175175000D02*
X124900000Y-157300000D01*
X124900000Y-157300000D02*
X122500000Y-154900000D01*
X303200000Y-177000000D02*
X303200000Y-157100000D01*
X303200000Y-157100000D02*
X303300000Y-157000000D01*
X280250000Y-91480000D02*
X281450000Y-90280000D01*
X70400000Y-118600000D02*
X69875000Y-119125000D01*
X310400000Y-145800000D02*
X306200000Y-141600000D01*
X281450000Y-90280000D02*
X281450000Y-77770000D01*
X280260000Y-91490000D02*
X280250000Y-91480000D01*
X306200000Y-141600000D02*
X306200000Y-137900000D01*
X306200000Y-96430000D02*
X306200000Y-137931403D01*
X280260000Y-95500000D02*
X280260000Y-91490000D01*
X69875000Y-119125000D02*
X69875000Y-179600000D01*
X312100000Y-145800000D02*
X310400000Y-145800000D01*
X306070000Y-96300000D02*
X306200000Y-96430000D01*
X177700000Y-119300000D02*
X177700000Y-121300000D01*
X238474999Y-102125001D02*
X238474999Y-116325001D01*
X179400000Y-158800000D02*
X179600000Y-159000000D01*
X175300000Y-138400000D02*
X179400000Y-142500000D01*
X179400000Y-142700000D02*
X179400000Y-158800000D01*
X292960000Y-100300000D02*
X292850000Y-100410000D01*
X240000000Y-100600000D02*
X238474999Y-102125001D01*
X336400000Y-101900000D02*
X336400000Y-99200000D01*
X184500000Y-158800000D02*
X187600000Y-158800000D01*
X291450000Y-89910000D02*
X291450000Y-74570000D01*
X238474999Y-116325001D02*
X234400000Y-120400000D01*
X336700000Y-161000000D02*
X336700000Y-102200000D01*
X179400000Y-142500000D02*
X179400000Y-142700000D01*
X292960000Y-91126285D02*
X292960000Y-100300000D01*
X292910000Y-98575000D02*
X292785000Y-98700000D01*
X234400000Y-120400000D02*
X232300000Y-120400000D01*
X292950000Y-91410000D02*
X291450000Y-89910000D01*
X292963600Y-91122685D02*
X292960000Y-91126285D01*
X336700000Y-102200000D02*
X336400000Y-101900000D01*
X336400000Y-99200000D02*
X336600000Y-99000000D01*
X242100000Y-139525000D02*
X241300000Y-140325000D01*
X143000000Y-139500000D02*
X143000000Y-119100000D01*
X319800000Y-193700000D02*
X317700000Y-191600000D01*
X222800000Y-138634315D02*
X222800000Y-135700000D01*
X210700000Y-139800000D02*
X210600000Y-139800000D01*
X222800000Y-135700000D02*
X220600000Y-133500000D01*
X211300000Y-139200000D02*
X210700000Y-139800000D01*
X143000000Y-139500000D02*
X149800000Y-146300000D01*
X287880000Y-91420000D02*
X287450000Y-90990000D01*
X287920000Y-101440000D02*
X287880000Y-101400000D01*
X222800000Y-139200000D02*
X222800000Y-138634315D01*
X213500000Y-133500000D02*
X211300000Y-135700000D01*
X242100000Y-101500000D02*
X242100000Y-138200000D01*
X241300000Y-140325000D02*
X241300000Y-194975000D01*
X287880000Y-101400000D02*
X287880000Y-91420000D01*
X242100000Y-138200000D02*
X242000000Y-138300000D01*
X220600000Y-133500000D02*
X213500000Y-133500000D01*
X287450000Y-90990000D02*
X287450000Y-74570000D01*
X319800000Y-196100000D02*
X319800000Y-193700000D01*
X242100000Y-138200000D02*
X242100000Y-139525000D01*
X287590000Y-91420000D02*
X287880000Y-91420000D01*
X143000000Y-119100000D02*
X142300000Y-118400000D01*
X211300000Y-135700000D02*
X211300000Y-139200000D01*
X149800000Y-146300000D02*
X149800000Y-159500000D01*
X290850000Y-137150000D02*
X291125000Y-137150000D01*
X282803600Y-91460000D02*
X283450000Y-90813600D01*
X102400000Y-144200000D02*
X102400000Y-175875000D01*
X257799999Y-137899999D02*
X257799999Y-139500001D01*
X257400000Y-137500000D02*
X257799999Y-137899999D01*
X283450000Y-90813600D02*
X283450000Y-74570000D01*
X274500000Y-119800000D02*
X274300000Y-119600000D01*
X282740000Y-96600000D02*
X282730000Y-96590000D01*
X149600000Y-175800000D02*
X147000000Y-178400000D01*
X260300000Y-98500000D02*
X260300000Y-102700000D01*
X277100000Y-178100000D02*
X277100000Y-158400000D01*
X91300000Y-123800000D02*
X94200000Y-126700000D01*
X277100000Y-158400000D02*
X274100000Y-155400000D01*
X101100000Y-137900000D02*
X101100000Y-142900000D01*
X261900000Y-96900000D02*
X260300000Y-98500000D01*
X274500000Y-138600000D02*
X274500000Y-119800000D01*
X291125000Y-137150000D02*
X292400000Y-138425000D01*
X91300000Y-118800000D02*
X91300000Y-123800000D01*
X101100000Y-142900000D02*
X102400000Y-144200000D01*
X274100000Y-155400000D02*
X274100000Y-139000000D01*
X147000000Y-178400000D02*
X147000000Y-179500000D01*
X102400000Y-175875000D02*
X103000000Y-176475000D01*
X94200000Y-126700000D02*
X95900000Y-126700000D01*
X282730000Y-91533600D02*
X282803600Y-91460000D01*
X274100000Y-139000000D02*
X274500000Y-138600000D01*
X290850000Y-137150000D02*
X288800000Y-135100000D01*
X282730000Y-96590000D02*
X282730000Y-91533600D01*
X291000000Y-137300000D02*
X290850000Y-137150000D01*
X257799999Y-139500001D02*
X255600000Y-141700000D01*
X72300000Y-138700000D02*
X72300000Y-157000000D01*
X277700000Y-91520000D02*
X277700000Y-93000000D01*
X275374999Y-95325001D02*
X275374999Y-154649999D01*
X108100000Y-179100000D02*
X108100000Y-195400000D01*
X72700000Y-157400000D02*
X72700000Y-175675000D01*
X108100000Y-195400000D02*
X108400000Y-195700000D01*
X72700000Y-175675000D02*
X73500000Y-176475000D01*
X277700000Y-93000000D02*
X275374999Y-95325001D01*
X246500000Y-173900000D02*
X246400000Y-173800000D01*
X277700000Y-91520000D02*
X279450000Y-89770000D01*
X72300000Y-157000000D02*
X72700000Y-157400000D01*
X246400000Y-173800000D02*
X246400000Y-157100000D01*
X279450000Y-89770000D02*
X279450000Y-74570000D01*
X73500000Y-176475000D02*
X74175000Y-176475000D01*
X246400000Y-157100000D02*
X246900000Y-156600000D01*
X246500000Y-195700000D02*
X246500000Y-173900000D01*
X74175000Y-176475000D02*
X75700000Y-178000000D01*
X275374999Y-154649999D02*
X277800000Y-157075000D01*
X322326000Y-156826000D02*
X323300000Y-157800000D01*
X322326000Y-89662000D02*
X322326000Y-156826000D01*
X322326400Y-91363600D02*
X322330000Y-91360000D01*
X322354000Y-89662000D02*
X320210000Y-87518000D01*
X320210000Y-87518000D02*
X320210000Y-78308000D01*
X316300400Y-90398175D02*
X316300400Y-88676175D01*
X296900000Y-138973002D02*
X288100000Y-130173002D01*
X330100000Y-139200000D02*
X330100000Y-142000000D01*
X296900000Y-156900000D02*
X296900000Y-138973002D01*
X328600000Y-137700000D02*
X330100000Y-139200000D01*
X316300400Y-78398400D02*
X316210000Y-78308000D01*
X239200000Y-119800000D02*
X239200000Y-117900000D01*
X288100000Y-130173002D02*
X288100000Y-125600000D01*
X237800000Y-121200000D02*
X239200000Y-119800000D01*
X317246000Y-119888000D02*
X317246000Y-91351775D01*
X276100000Y-120800000D02*
X278100000Y-118800000D01*
X317246000Y-91351775D02*
X317250000Y-91347775D01*
X317250000Y-91347775D02*
X316300400Y-90398175D01*
X328600000Y-122900000D02*
X326800000Y-121100000D01*
X328600000Y-137700000D02*
X328600000Y-122900000D01*
X278100000Y-118800000D02*
X278100000Y-116900000D01*
X316300400Y-88676175D02*
X316300400Y-78398400D01*
X312300400Y-89586175D02*
X312300400Y-78398400D01*
X230500000Y-138700000D02*
X230500000Y-135300000D01*
X220500000Y-116500000D02*
X220700000Y-116300000D01*
X228900000Y-140300000D02*
X228900000Y-157800000D01*
X316800000Y-137100000D02*
X316800000Y-158600000D01*
X312166000Y-132466000D02*
X316800000Y-137100000D01*
X292400000Y-156200000D02*
X292400000Y-155000000D01*
X289800000Y-158800000D02*
X292400000Y-156200000D01*
X228900000Y-157800000D02*
X230000000Y-158900000D01*
X228900000Y-140300000D02*
X230500000Y-138700000D01*
X312166000Y-89692575D02*
X312166000Y-132466000D01*
X220500000Y-121500000D02*
X220500000Y-116500000D01*
X312300400Y-78398400D02*
X312210000Y-78308000D01*
X312136400Y-91424175D02*
X312276400Y-91284175D01*
X312076400Y-91424175D02*
X312026400Y-91474175D01*
X308300400Y-90190175D02*
X308300400Y-88516175D01*
X307076400Y-91414175D02*
X308300400Y-90190175D01*
X307086400Y-91424175D02*
X307076400Y-91414175D01*
X88800000Y-179000000D02*
X89100000Y-179300000D01*
X114800000Y-120300000D02*
X114800000Y-139100000D01*
X225300000Y-99300000D02*
X225300000Y-119200000D01*
X308300400Y-78398400D02*
X308210000Y-78308000D01*
X114800000Y-139100000D02*
X114700000Y-139200000D01*
X308064000Y-99300000D02*
X307076400Y-98312400D01*
X307076400Y-98312400D02*
X307076400Y-91771375D01*
X114700000Y-139200000D02*
X114700000Y-158500000D01*
X88800000Y-158600000D02*
X88800000Y-179000000D01*
X225300000Y-119200000D02*
X225500000Y-119400000D01*
X308300400Y-88516175D02*
X308300400Y-78398400D01*
X319776400Y-91344175D02*
X318300400Y-89868175D01*
X319532000Y-119700000D02*
X319532000Y-91588575D01*
X319536000Y-91584575D02*
X319776400Y-91344175D01*
X319790000Y-91056860D02*
X319786400Y-91060460D01*
X70600000Y-195700000D02*
X70600000Y-158800000D01*
X70600000Y-158800000D02*
X70700000Y-158700000D01*
X318300400Y-75198400D02*
X318210000Y-75108000D01*
X318300400Y-88146175D02*
X318300400Y-75198400D01*
X319532000Y-91588575D02*
X319776400Y-91344175D01*
X318300400Y-89868175D02*
X318300400Y-88146175D01*
X314300400Y-75198400D02*
X314210000Y-75108000D01*
X127000000Y-196600000D02*
X127000000Y-191500000D01*
X287600000Y-196750000D02*
X286800000Y-197550000D01*
X295100000Y-118700000D02*
X295100000Y-121000000D01*
X314300400Y-90890175D02*
X314300400Y-75198400D01*
X314735400Y-91325175D02*
X314704000Y-91356575D01*
X314735400Y-91325175D02*
X314300400Y-90890175D01*
X304100000Y-176100000D02*
X304300000Y-176300000D01*
X334900000Y-104600000D02*
X334900000Y-100000000D01*
X314710000Y-91350575D02*
X314710000Y-100010000D01*
X304100000Y-162200000D02*
X304100000Y-176100000D01*
X295100000Y-121000000D02*
X295200000Y-121100000D01*
X324700000Y-156300000D02*
X325300000Y-156900000D01*
X324700000Y-137400000D02*
X324700000Y-156300000D01*
X314710000Y-100010000D02*
X314800000Y-100100000D01*
X287600000Y-176000000D02*
X287600000Y-196750000D01*
X325300000Y-156900000D02*
X325300000Y-158500000D01*
X314735400Y-91325175D02*
X314710000Y-91350575D01*
X310225000Y-132625000D02*
X316074999Y-138474999D01*
X119100000Y-157900000D02*
X119800000Y-158600000D01*
X316074999Y-138474999D02*
X316074999Y-176474999D01*
X309630000Y-89720175D02*
X309630000Y-118204695D01*
X297900000Y-178800000D02*
X297000000Y-179700000D01*
X106100000Y-194300000D02*
X107000000Y-193400000D01*
X216700000Y-195300000D02*
X216700000Y-154800000D01*
X316074999Y-176474999D02*
X316200000Y-176600000D01*
X310225000Y-118799695D02*
X310225000Y-132625000D01*
X309630000Y-118204695D02*
X310225000Y-118799695D01*
X310300400Y-89049775D02*
X309630000Y-89720175D01*
X218000000Y-196600000D02*
X216700000Y-195300000D01*
X106100000Y-196900000D02*
X106100000Y-194300000D01*
X297000000Y-179700000D02*
X297000000Y-196825000D01*
X310300400Y-89049775D02*
X310300400Y-75198400D01*
X119800000Y-158600000D02*
X119800000Y-196500000D01*
X310300400Y-75198400D02*
X310210000Y-75108000D01*
X309556400Y-91467775D02*
X309630000Y-91394175D01*
X161800000Y-101100000D02*
X161600000Y-101300000D01*
X181100000Y-101000000D02*
X180900000Y-101200000D01*
X199200000Y-93800000D02*
X199600000Y-94200000D01*
X86400000Y-94700000D02*
X86400000Y-101500000D01*
X306300400Y-75198400D02*
X306210000Y-75108000D01*
X181100000Y-94300000D02*
X181100000Y-101000000D01*
X304526400Y-91454175D02*
X306300400Y-89680175D01*
X161800000Y-94700000D02*
X161800000Y-101100000D01*
X124200000Y-95000000D02*
X124200000Y-100900000D01*
X105000000Y-94900000D02*
X105000000Y-101700000D01*
X306300400Y-89680175D02*
X306300400Y-75198400D01*
X143700000Y-94700000D02*
X143700000Y-101300000D01*
X199600000Y-94200000D02*
X199600000Y-100400000D01*
X86400000Y-101500000D02*
X86600000Y-101700000D01*
X124200000Y-100900000D02*
X124300000Y-101000000D01*
M02*
