M48
; DRILL file {KiCad 5.1.5+dfsg1-2build2} date Fri 31 May 2024 17:47:02 BST
; FORMAT={-:-/ absolute / inch / decimal}
; #@! TF.CreationDate,2024-05-31T17:47:02+01:00
; #@! TF.GenerationSoftware,Kicad,Pcbnew,5.1.5+dfsg1-2build2
; #@! TF.FileFunction,Plated,1,2,PTH
FMAT,2
INCH
T1C0.0157
%
G90
G05
T1
X2.751Y-7.0709
X2.7717Y-4.6693
X2.7795Y-7.7047
X2.7835Y-6.248
X2.8465Y-5.4606
X2.8622Y-6.1969
X2.8937Y-6.9478
X2.9803Y-7.0079
X3.4016Y-3.7283
X3.4094Y-4.0039
X3.4961Y-6.2441
X3.5079Y-7.0591
X3.5945Y-4.6772
X3.7756Y-4.9882
X3.9803Y-5.4291
X4.0315Y-5.6772
X4.0551Y-6.9478
X4.1339Y-3.7362
X4.1339Y-4.0039
X4.1772Y-7.752
X4.2126Y-7.6142
X4.2559Y-7.0512
X4.2677Y-7.7047
X4.2913Y-4.0157
X4.3425Y-5.4252
X4.5157Y-5.4803
X4.5157Y-6.2402
X4.5197Y-4.7362
X4.6181Y-4.7795
X4.689Y-6.2165
X4.7165Y-7.7362
X4.8228Y-6.0984
X4.8898Y-3.7402
X4.8937Y-3.9764
X4.9409Y-6.9203
X5.0Y-7.5394
X5.0Y-7.7402
X5.6024Y-4.6614
X5.6299Y-5.4921
X5.6575Y-3.7283
X5.6575Y-3.9882
X5.7874Y-7.0669
X5.8898Y-6.9213
X5.8976Y-6.2795
X6.1654Y-4.685
X6.1654Y-4.7874
X6.3346Y-5.4094
X6.3346Y-5.5472
X6.3543Y-6.9134
X6.3622Y-3.9882
X6.3701Y-3.7283
X6.9016Y-5.4488
X6.9961Y-4.6969
X6.9961Y-4.7756
X7.063Y-5.6181
X7.0709Y-6.2598
X7.122Y-3.9843
X7.1299Y-3.7126
X7.2638Y-6.252
X7.3858Y-6.252
X7.811Y-6.2677
X7.8386Y-5.6181
X7.8425Y-3.6929
X7.8583Y-3.9528
X7.9646Y-4.7717
X8.0079Y-4.6772
X8.0394Y-6.252
X8.1417Y-6.2559
X8.2913Y-5.5039
X8.5315Y-6.0945
X8.563Y-5.9803
X8.5827Y-7.7402
X8.6614Y-6.9055
X8.6772Y-5.4291
X8.6811Y-4.7835
X8.689Y-4.5787
X8.7717Y-5.4803
X8.8701Y-3.9094
X8.878Y-4.7008
X9.0118Y-5.5236
X9.0551Y-6.2559
X9.0748Y-5.3268
X9.1457Y-4.7402
X9.3622Y-4.7717
X9.4173Y-4.6417
X9.4488Y-3.9606
X9.5Y-5.5246
X9.5Y-7.6762
X9.5276Y-5.4449
X9.5315Y-3.9961
X9.7008Y-6.8425
X9.7047Y-7.7047
X9.7205Y-6.1654
X10.063Y-5.5787
X10.1339Y-5.4134
X10.248Y-4.0433
X10.311Y-3.815
X10.437Y-6.9331
X10.5709Y-6.9439
X10.6378Y-4.6575
X10.6417Y-4.8031
X10.7913Y-6.1181
X10.7992Y-4.7087
X10.8701Y-4.7559
X10.9094Y-7.0118
X10.9252Y-5.4134
X10.937Y-3.6575
X10.937Y-6.1841
X10.9488Y-4.6024
X10.9961Y-6.9409
X11.0118Y-7.6496
X11.0787Y-3.5827
X11.0827Y-3.7598
X11.1772Y-3.8031
X11.2047Y-3.5906
X11.2283Y-3.6614
X11.2362Y-4.6772
X11.2913Y-7.7776
X11.3228Y-6.9291
X11.3425Y-4.9449
X11.3701Y-5.3189
X11.374Y-3.6339
X11.378Y-4.0
X11.4094Y-6.252
X11.4134Y-3.6614
X11.4252Y-3.815
X11.4843Y-3.8809
X11.4882Y-3.9528
X11.5118Y-5.4498
X11.5118Y-6.1024
X11.5157Y-3.5669
X11.5551Y-3.6654
X11.5591Y-3.8504
X11.6181Y-4.6732
X11.622Y-4.7677
X11.689Y-6.1772
X11.6929Y-7.749
X11.7165Y-5.4567
X11.7205Y-4.6339
X11.7283Y-7.0394
X11.8386Y-4.0
X11.8661Y-3.815
X11.937Y-6.9685
X11.9409Y-6.1811
X11.9724Y-6.3858
X11.9803Y-6.9409
X12.1024Y-3.7913
X12.1181Y-4.8504
X12.1457Y-3.937
X12.1614Y-3.6575
X12.185Y-4.689
X12.2402Y-3.7008
X12.2874Y-5.7402
X12.3071Y-3.6496
X12.3898Y-3.7244
X12.3937Y-3.9409
X12.4449Y-4.7283
X12.4488Y-6.9528
X12.4646Y-3.7402
X12.4724Y-6.2441
X12.5079Y-7.5433
X12.5512Y-3.7323
X12.5512Y-4.7126
X12.5906Y-7.7205
X12.7283Y-6.2126
X12.7402Y-3.6535
X12.7835Y-5.4094
X12.8071Y-6.2402
X12.8661Y-4.7677
X12.937Y-5.4213
X12.9961Y-5.5906
X13.185Y-3.937
X13.185Y-4.1181
X13.2047Y-4.6772
X13.2441Y-4.0118
X13.248Y-7.0827
X13.252Y-3.8976
X13.2559Y-6.3386
X13.311Y-4.0157
X13.315Y-3.878
T0
M30
